<?xml version="1.0" encoding="UTF-8" standalone="no"?>
<svg
   xmlns:dc="http://purl.org/dc/elements/1.1/"
   xmlns:cc="http://creativecommons.org/ns#"
   xmlns:rdf="http://www.w3.org/1999/02/22-rdf-syntax-ns#"
   xmlns:svg="http://www.w3.org/2000/svg"
   xmlns="http://www.w3.org/2000/svg"
   xmlns:sodipodi="http://sodipodi.sourceforge.net/DTD/sodipodi-0.dtd"
   xmlns:inkscape="http://www.inkscape.org/namespaces/inkscape"
   role="img"
   viewBox="0 0 24 24"
   version="1.1"
   id="svg6"
   sodipodi:docname="css3-1572B6-05.svg"
   inkscape:version="0.92.5 (2060ec1f9f, 2020-04-08)">
  <metadata
     id="metadata12">
    <rdf:RDF>
      <cc:Work
         rdf:about="">
        <dc:format>image/svg+xml</dc:format>
        <dc:type
           rdf:resource="http://purl.org/dc/dcmitype/StillImage" />
        <dc:title>CSS3</dc:title>
      </cc:Work>
    </rdf:RDF>
  </metadata>
  <defs
     id="defs10" />
  <sodipodi:namedview
     pagecolor="#ffffff"
     bordercolor="#666666"
     borderopacity="1"
     objecttolerance="10"
     gridtolerance="10"
     guidetolerance="10"
     inkscape:pageopacity="0"
     inkscape:pageshadow="2"
     inkscape:window-width="1920"
     inkscape:window-height="1023"
     id="namedview8"
     showgrid="false"
     inkscape:zoom="19.666667"
     inkscape:cx="7.0199561"
     inkscape:cy="12.040937"
     inkscape:window-x="0"
     inkscape:window-y="1080"
     inkscape:window-maximized="1"
     inkscape:current-layer="svg6" />
  <title
     id="title2">CSS3</title>
  <path
     d="M1.5 0h21l-1.91 21.563L11.977 24l-8.565-2.438L1.5 0zm17.09 4.413L5.41 4.41l.213 2.622 10.125.002-.255 2.716h-6.64l.24 2.573h6.182l-.366 3.523-2.91.804-2.956-.81-.188-2.11h-2.61l.29 3.855L12 19.288l5.373-1.53L18.59 4.414z"
     id="path4" />
  <path
     style="opacity:1;fill:#1572b6;fill-opacity:1;stroke:#1572b6;stroke-width:0;stroke-linejoin:round;stroke-miterlimit:4;stroke-dasharray:none;stroke-opacity:1"
     d="M 7.6271186,22.725013 C 5.3618644,22.076338 3.4966769,21.537655 3.4822575,21.527941 3.4678382,21.518226 3.0464999,16.869533 2.5459502,11.197512 2.0454005,5.5254905 1.6118872,0.69025424 1.5825873,0.45254237 L 1.5293146,0.02033898 H 12 22.470685 l -0.0534,0.43220339 C 22.387915,0.69025424 21.955021,5.524871 21.455298,11.196135 c -0.499721,5.671264 -0.921002,10.320467 -0.936179,10.331562 -0.09842,0.07195 -8.457858,2.389546 -8.598364,2.383837 -0.09625,-0.0039 -2.0283821,-0.537846 -4.2936364,-1.186521 z m 7.0341274,-4.142575 c 1.460378,-0.417964 2.678228,-0.782929 2.706333,-0.811034 0.0469,-0.0469 1.232891,-12.6272574 1.239635,-13.1493701 l 0.003,-0.2288136 H 11.987906 5.3656436 L 5.434445,5.3847458 C 5.4722858,5.9300847 5.5285835,6.525 5.5595511,6.7067797 l 0.056305,0.3305084 h 5.0357119 5.035712 l -0.06854,0.8389831 c -0.0377,0.4614407 -0.09526,1.0563559 -0.127927,1.3220339 l -0.05939,0.4830508 H 12.125456 8.8194876 l 0.067346,0.8898301 c 0.03704,0.489407 0.094292,1.084322 0.1272267,1.322034 l 0.059881,0.432204 h 3.0920857 3.092085 l -0.04881,0.228813 c -0.02685,0.125848 -0.102793,0.823729 -0.168767,1.550848 -0.06597,0.727118 -0.15433,1.414937 -0.196343,1.528486 -0.06054,0.163631 -0.364421,0.285738 -1.465073,0.588716 L 11.990432,16.604553 11.20708,16.389314 C 10.776237,16.270933 10.11969,16.085604 9.748086,15.977472 L 9.0724432,15.780869 8.9853741,14.739588 8.8983051,13.698305 7.5508475,13.669929 c -1.2354489,-0.02602 -1.3472039,-0.01334 -1.3444059,0.152543 0.01131,0.670514 0.2941663,3.715516 0.3504017,3.772146 0.049073,0.04942 5.1361837,1.684183 5.4207397,1.741981 0.01564,0.0032 1.223285,-0.336197 2.683663,-0.754161 z"
     id="path4526"
     inkscape:connector-curvature="0" />
  <path
     style="opacity:1;fill:#1572b6;fill-opacity:1;stroke:#1572b6;stroke-width:37.7;stroke-linejoin:round;stroke-miterlimit:4;stroke-dasharray:none;stroke-opacity:0"
     d="M 11.29357,23.736885 C 10.303827,23.469718 8.380481,22.925703 5.892045,22.209074 4.5921951,21.834738 3.522389,21.528463 3.5146979,21.528463 c -0.029513,0 -0.1372495,-1.163121 -0.8492466,-9.168418 C 1.9153286,3.9260844 1.5901362,0.32919463 1.5626751,0.16245254 L 1.5404697,0.02762286 H 11.98998 c 9.267367,0 10.449511,0.0061051 10.449511,0.05396538 0,0.02968096 -0.03239,0.37349664 -0.07198,0.76403487 -0.03959,0.39053819 -0.371441,4.08350819 -0.737448,8.20659989 -0.82723,9.318818 -1.091981,12.251157 -1.11738,12.375967 -0.01761,0.08652 -0.05321,0.107656 -0.316724,0.188033 -1.139576,0.347592 -8.225056,2.297091 -8.297675,2.283022 -0.0063,-0.0012 -0.278424,-0.07428 -0.604712,-0.16236 z m 1.91734,-4.72718 c 1.51852,-0.427326 3.289274,-0.943304 3.77041,-1.098654 0.258489,-0.08346 0.390719,-0.144376 0.403587,-0.185919 C 17.437767,17.554484 18.527869,6.0445772 18.6141,4.7466618 L 18.63858,4.3781273 H 11.999824 5.3610641 v 0.1209602 c 0,0.2323432 0.1457056,1.9488376 0.1896396,2.2340649 l 0.044305,0.2876367 5.0437323,0.00911 5.043732,0.00911 -0.01958,0.1706591 c -0.01077,0.093863 -0.04432,0.4618916 -0.07455,0.817842 -0.03023,0.3559503 -0.07845,0.849427 -0.107158,1.0966147 -0.0287,0.2471878 -0.05233,0.4696568 -0.05251,0.4943755 -2.58e-4,0.035627 -0.686034,0.044943 -3.308147,0.044943 H 8.812704 l 4.818e-4,0.098875 c 0.00156,0.3216626 0.1804334,2.1793666 0.2371392,2.4628886 l 0.019776,0.09887 h 3.093084 c 2.855553,0 3.091341,0.0045 3.070392,0.05913 -0.03726,0.09709 -0.08708,0.497203 -0.183844,1.476484 -0.118596,1.20016 -0.188861,1.699218 -0.25321,1.798422 -0.102003,0.157254 -0.354456,0.249654 -1.759155,0.643861 -0.533925,0.149838 -1.003132,0.272535 -1.042682,0.272659 -0.07907,2.52e-4 -2.7709421,-0.752557 -2.8595115,-0.799688 -0.044235,-0.02354 -0.071354,-0.229478 -0.1380009,-1.047958 -0.045621,-0.560264 -0.089961,-1.025754 -0.098534,-1.034423 -0.00857,-0.0087 -0.6063086,-0.01676 -1.3283025,-0.01798 -1.1285223,-0.0019 -1.3177839,0.0054 -1.3488368,0.05172 -0.078939,0.117863 0.2395528,3.733372 0.3402698,3.862731 0.038028,0.04884 1.5823702,0.56165 3.8868689,1.290657 1.405594,0.444646 1.42388,0.45009 1.521839,0.453022 0.04601,0.0014 0.604206,-0.143983 1.240433,-0.323024 z"
     id="path4530"
     inkscape:connector-curvature="0" />
  <path
     style="opacity:1;fill:#1572b6;fill-opacity:1;stroke:#1572b6;stroke-width:0.5;stroke-linejoin:bevel;stroke-miterlimit:4;stroke-dasharray:none;stroke-opacity:0.96296299;stroke-linecap:butt;paint-order:normal"
     d="M 10.556501,23.538123 C 9.5446685,23.257147 4.6499547,21.858965 3.6843104,21.575071 3.5019859,21.521469 3.4993984,21.518696 3.477851,21.353842 3.4466733,21.115308 3.0982505,17.26435 2.556769,11.173543 1.9838388,4.7289879 1.5906601,0.38426136 1.5619405,0.18042984 L 1.5404102,0.02762286 H 11.98995 c 8.94656,0 10.449541,0.0072601 10.449541,0.0504762 0,0.02776191 -0.04029,0.46865497 -0.08954,0.97976234 -0.04924,0.5111074 -0.356961,3.9386847 -0.683813,7.6168385 -1.089065,12.2555371 -1.139136,12.8007321 -1.179305,12.8409011 -0.07601,0.07601 -8.426719,2.392048 -8.595435,2.383909 -0.02229,-0.0011 -0.622998,-0.1637 -1.334899,-0.361387 z m 1.810851,-4.296169 c 0.601136,-0.161864 3.310017,-0.938479 4.12786,-1.183425 0.505263,-0.151327 0.805108,-0.259191 0.841821,-0.30283 0.06665,-0.07922 0.07584,-0.160865 0.427169,-3.795676 0.424811,-4.3950409 0.864103,-9.2129147 0.864103,-9.4769259 V 4.3781273 H 11.989758 5.3512119 l 0.023978,0.3505572 c 0.048654,0.7113308 0.1389702,1.7242584 0.1786885,2.0040505 l 0.040891,0.2880541 5.0444006,0.00911 5.044402,0.00911 -0.02075,0.206614 c -0.01141,0.1136374 -0.05251,0.5544744 -0.09131,0.9796373 -0.03881,0.4251629 -0.08889,0.9226844 -0.111299,1.1056034 l -0.04074,0.3325799 H 12.116086 8.812704 l 2.517e-4,0.080898 c 8.09e-4,0.2672033 0.1905251,2.2534163 0.2369633,2.4808663 l 0.020188,0.09887 h 3.09166 c 2.926967,0 3.090751,0.0034 3.074601,0.06292 -0.04669,0.172233 -0.06765,0.339939 -0.185771,1.486769 -0.147342,1.430523 -0.182053,1.674464 -0.253945,1.784636 -0.104172,0.159642 -0.423335,0.275198 -1.861562,0.673996 l -0.938413,0.260208 -0.234697,-0.06503 C 10.633742,16.214951 9.4352127,15.874764 9.2761722,15.822023 l -0.1938088,-0.06427 -0.08543,-1.024706 c -0.046986,-0.563588 -0.089787,-1.029753 -0.095111,-1.035923 -0.00533,-0.0062 -0.5912077,-0.01426 -1.3019615,-0.01798 -1.0591382,-0.0055 -1.3032274,0.0023 -1.3529633,0.04333 -0.052003,0.04293 -0.05758,0.09694 -0.038985,0.377523 0.077902,1.175518 0.2710659,3.202381 0.3263917,3.424817 0.015044,0.06048 0.098377,0.105097 0.3847662,0.205992 0.4855461,0.171058 2.0954337,0.69174 3.5834985,1.159003 0.662464,0.208018 1.244928,0.392057 1.294365,0.408977 0.141536,0.04844 0.201695,0.04244 0.570418,-0.05684 z"
     id="path4532"
     inkscape:connector-curvature="0" />
</svg>
