<?xml version="1.0" encoding="UTF-8" standalone="no"?>
<svg
   xmlns:dc="http://purl.org/dc/elements/1.1/"
   xmlns:cc="http://creativecommons.org/ns#"
   xmlns:rdf="http://www.w3.org/1999/02/22-rdf-syntax-ns#"
   xmlns:svg="http://www.w3.org/2000/svg"
   xmlns="http://www.w3.org/2000/svg"
   xmlns:sodipodi="http://sodipodi.sourceforge.net/DTD/sodipodi-0.dtd"
   xmlns:inkscape="http://www.inkscape.org/namespaces/inkscape"
   role="img"
   viewBox="0 0 24 24"
   version="1.1"
   id="svg6"
   sodipodi:docname="CSS3-blue.svg"
   inkscape:version="0.92.5 (2060ec1f9f, 2020-04-08)">
  <metadata
     id="metadata12">
    <rdf:RDF>
      <cc:Work
         rdf:about="">
        <dc:format>image/svg+xml</dc:format>
        <dc:type
           rdf:resource="http://purl.org/dc/dcmitype/StillImage" />
        <dc:title>CSS3</dc:title>
      </cc:Work>
    </rdf:RDF>
  </metadata>
  <defs
     id="defs10" />
  <sodipodi:namedview
     pagecolor="#ffffff"
     bordercolor="#666666"
     borderopacity="1"
     objecttolerance="10"
     gridtolerance="10"
     guidetolerance="10"
     inkscape:pageopacity="0"
     inkscape:pageshadow="2"
     inkscape:window-width="1920"
     inkscape:window-height="1023"
     id="namedview8"
     showgrid="false"
     inkscape:zoom="27.812867"
     inkscape:cx="12.561274"
     inkscape:cy="14.55913"
     inkscape:window-x="0"
     inkscape:window-y="1080"
     inkscape:window-maximized="1"
     inkscape:current-layer="svg6" />
  <title
     id="title2">CSS3</title>
  <path
     d="M1.5 0h21l-1.91 21.563L11.977 24l-8.565-2.438L1.5 0zm17.09 4.413L5.41 4.41l.213 2.622 10.125.002-.255 2.716h-6.64l.24 2.573h6.182l-.366 3.523-2.91.804-2.956-.81-.188-2.11h-2.61l.29 3.855L12 19.288l5.373-1.53L18.59 4.414z"
     id="path4" />
  <path
     style="fill:#1572b6;fill-opacity:1;stroke:#ececec;stroke-width:0.19217937;stroke-linejoin:round;stroke-miterlimit:4;stroke-dasharray:none"
     d="M 7.652307,22.749219 3.4337433,21.54334 2.5086355,11.098059 C 1.9998262,5.3531538 1.5693647,0.50976872 1.5520544,0.33498058 L 1.5205811,0.01718397 H 12.001566 22.482551 l -0.03179,0.29237288 C 22.43328,0.47036194 22.008068,5.2582857 21.505848,10.949387 c -0.502219,5.691102 -0.919187,10.40326 -0.926594,10.471463 -0.01296,0.119331 -0.174444,0.16961 -4.284654,1.334051 -2.349153,0.665526 -4.305509,1.20783 -4.347458,1.205122 -0.04195,-0.0027 -1.9746248,-0.54757 -4.294835,-1.210804 z m 7.053904,-4.203747 c 1.432936,-0.408594 2.624929,-0.761109 2.648874,-0.783367 0.0324,-0.03011 1.248649,-12.9544778 1.2524,-13.3084803 5.36e-4,-0.050525 -1.354899,-0.063559 -6.609495,-0.063559 -3.6355937,0 -6.6101062,0.017161 -6.6100283,0.038136 7.63e-5,0.020975 0.045535,0.5758475 0.1010149,1.2330509 0.05548,0.6572034 0.1011793,1.2349576 0.1015533,1.2838983 6.432e-4,0.084145 0.2757574,0.088983 5.0600021,0.088983 4.013157,0 5.059478,0.013143 5.060076,0.063559 0.0015,0.1244609 -0.209685,2.4045916 -0.233094,2.5169492 l -0.02384,0.1144068 h -3.304116 c -2.6086253,0 -3.3044194,0.013379 -3.3055583,0.063559 -7.933e-4,0.034958 0.049116,0.6184321 0.1109079,1.2966101 l 0.11235,1.233051 h 3.0982554 3.098256 l -0.03005,0.216101 c -0.01653,0.118856 -0.101144,0.902543 -0.188037,1.741526 -0.08689,0.838983 -0.164972,1.532435 -0.173508,1.541005 -0.03903,0.03918 -2.761086,0.771303 -2.869918,0.771891 -0.09621,5.18e-4 -2.9057072,-0.745231 -2.9352684,-0.779135 -0.004,-0.0046 -0.047653,-0.483126 -0.097011,-1.063422 L 8.880238,13.69515 H 7.5456474 6.2110563 l 0.021336,0.190678 c 0.011735,0.104873 0.08008,0.980056 0.1518771,1.944851 0.071798,0.964796 0.1366268,1.760259 0.1440647,1.767697 0.038956,0.03896 5.3600889,1.683041 5.4575379,1.686231 0.06325,0.0021 1.287403,-0.330541 2.720339,-0.739135 z"
     id="path834"
     inkscape:connector-curvature="0" />
  <path
     style="fill:#1572b6;fill-opacity:1;stroke:#1572b6;stroke-width:0;stroke-linejoin:round;stroke-miterlimit:4;stroke-dasharray:none;stroke-opacity:1"
     d="M 11.464091,23.712089 C 11.296295,23.661382 9.4543455,23.134676 7.3708709,22.54163 5.2873963,21.948584 3.5735703,21.454869 3.5623686,21.444484 3.551167,21.4341 3.4430491,20.309768 3.3221067,18.94597 3.2011643,17.582171 2.7813038,12.850748 2.3890835,8.4316958 1.9968632,4.0126437 1.6759557,0.33446577 1.6759557,0.2579672 V 0.11887889 H 12.012017 22.34808 L 22.25478,1.1739636 C 22.20346,1.7542602 21.779288,6.5415708 21.312167,11.812432 l -0.84931,9.583384 -0.253618,0.09435 c -0.690272,0.2568 -8.080894,2.325177 -8.285667,2.318869 -0.08492,-0.0026 -0.291681,-0.04624 -0.459478,-0.09695 z m 1.008478,-4.426976 c 0.518151,-0.13096 4.040436,-1.132762 4.566915,-1.298914 l 0.388952,-0.122749 0.05466,-0.317201 C 17.539136,17.221033 18.126215,11.132292 18.514941,6.8446847 18.6913,4.8994715 18.720347,4.4310662 18.66787,4.3785831 18.57849,4.2891971 5.6401525,4.2559532 5.4259547,4.3445601 c -0.1696656,0.070185 -0.1679593,0.00922 -0.042318,1.5120891 0.055692,0.6661632 0.1192953,1.1604132 0.1537703,1.1949152 0.043367,0.043402 1.3644704,0.065511 5.035116,0.084264 2.736977,0.013983 4.985766,0.036864 4.997309,0.050847 0.02092,0.025343 -0.132966,1.8140268 -0.19139,2.2245763 l -0.03075,0.2161017 h -3.215979 c -2.655643,0 -3.2327158,0.012238 -3.3120374,0.070239 -0.094067,0.068783 -0.093719,0.096847 0.01677,1.3540356 0.062055,0.706088 0.1251392,1.303718 0.1401875,1.328066 0.015048,0.02435 1.4051109,0.04427 3.0890269,0.04427 h 3.061667 l -0.177644,1.653749 -0.177644,1.653749 -0.331939,0.09801 c -0.182566,0.0539 -0.807002,0.223653 -1.387635,0.377222 l -1.055697,0.279217 -1.399915,-0.372176 C 9.8268982,15.909034 9.1889736,15.733021 9.1792414,15.72259 9.1695087,15.712159 9.1242179,15.248679 9.078595,14.692635 9.0329721,14.13659 8.9833811,13.661802 8.9683923,13.63755 c -0.04075,-0.06593 -2.8687078,-0.05678 -2.8687078,0.0093 0,0.101913 0.253544,3.329538 0.2833957,3.607639 0.049052,0.456974 0.014995,0.428055 0.7989484,0.678414 2.086654,0.666379 4.6674784,1.451404 4.7820654,1.454589 0.05127,0.0014 0.280086,-0.04464 0.508475,-0.102362 z"
     id="path855"
     inkscape:connector-curvature="0" />
</svg>
