<?xml version="1.0" encoding="UTF-8" standalone="no"?>
<svg
   xmlns:dc="http://purl.org/dc/elements/1.1/"
   xmlns:cc="http://creativecommons.org/ns#"
   xmlns:rdf="http://www.w3.org/1999/02/22-rdf-syntax-ns#"
   xmlns:svg="http://www.w3.org/2000/svg"
   xmlns="http://www.w3.org/2000/svg"
   xmlns:sodipodi="http://sodipodi.sourceforge.net/DTD/sodipodi-0.dtd"
   xmlns:inkscape="http://www.inkscape.org/namespaces/inkscape"
   role="img"
   viewBox="0 0 24 24"
   version="1.1"
   id="svg1233"
   sodipodi:docname="cypress-38726c-01.svg"
   inkscape:version="0.92.5 (2060ec1f9f, 2020-04-08)">
  <metadata
     id="metadata1239">
    <rdf:RDF>
      <cc:Work
         rdf:about="">
        <dc:format>image/svg+xml</dc:format>
        <dc:type
           rdf:resource="http://purl.org/dc/dcmitype/StillImage" />
        <dc:title>Cypress</dc:title>
      </cc:Work>
    </rdf:RDF>
  </metadata>
  <defs
     id="defs1237" />
  <sodipodi:namedview
     pagecolor="#ffffff"
     bordercolor="#666666"
     borderopacity="1"
     objecttolerance="10"
     gridtolerance="10"
     guidetolerance="10"
     inkscape:pageopacity="0"
     inkscape:pageshadow="2"
     inkscape:window-width="1920"
     inkscape:window-height="1023"
     id="namedview1235"
     showgrid="false"
     inkscape:zoom="11.313709"
     inkscape:cx="-3.5704571"
     inkscape:cy="19.865729"
     inkscape:window-x="0"
     inkscape:window-y="1080"
     inkscape:window-maximized="1"
     inkscape:current-layer="svg1233" />
  <title
     id="title1229">Cypress</title>
  <path
     d="M11.998 0C5.366 0 0 5.367 0 12a11.992 11.992 0 0 0 12 12c6.633 0 12-5.367 12-12-.001-6.633-5.412-12-12.002-12zM6.37 14.575c.392.523.916.742 1.657.742.35 0 .699-.044 1.004-.175.306-.13.655-.306 1.09-.567l1.223 1.745c-1.003.83-2.138 1.222-3.447 1.222-1.048 0-1.92-.218-2.705-.654a4.393 4.393 0 0 1-1.746-1.92c-.392-.83-.611-1.79-.611-2.925 0-1.09.219-2.094.61-2.923a4.623 4.623 0 0 1 1.748-2.007c.741-.48 1.657-.698 2.661-.698.699 0 1.353.087 1.877.305a5.64 5.64 0 0 1 1.614.96l-1.222 1.658A4.786 4.786 0 0 0 9.12 8.77c-.305-.13-.698-.174-1.048-.174-1.483 0-2.225 1.134-2.225 3.446-.043 1.18.175 2.008.524 2.532H6.37zm12 2.705c-.436 1.353-1.091 2.357-2.008 3.098-.916.743-2.138 1.135-3.665 1.266l-.305-2.05c1.003-.132 1.745-.35 2.225-.7.174-.13.524-.523.524-.523L11.519 6.764h3.01l2.095 8.683 2.226-8.683h2.923L18.37 17.28z"
     id="path1231" />
  <path
     style="opacity:1;fill:#38726c;fill-opacity:1;stroke:#38726c;stroke-width:0.37795276;stroke-linecap:butt;stroke-linejoin:bevel;stroke-miterlimit:4;stroke-dasharray:none;stroke-opacity:0.97354496;paint-order:normal"
     d="M 11.194224,23.959708 C 9.4166386,23.840357 7.6242461,23.299714 6.0534296,22.40908 5.0738807,21.853687 3.9905652,20.994437 3.2320439,20.17125 0.43720985,17.138148 -0.61457603,13.031969 0.38221274,9.0454874 1.0927223,6.2039298 2.8873363,3.6717343 5.3602888,2.0214361 6.9345912,0.97084237 8.6637389,0.33800104 10.645487,0.08713516 c 0.579629,-0.07337416 2.109286,-0.07328884 2.700361,1.5062e-4 1.077328,0.13385497 2.0533,0.37642033 2.985373,0.74197594 3.730985,1.46327948 6.501935,4.68919058 7.367557,8.57723648 0.218637,0.9820338 0.288693,1.7331438 0.26657,2.8580268 -0.0177,0.900127 -0.06806,1.382598 -0.223842,2.1446 -0.565013,2.763776 -2.087366,5.232717 -4.31542,6.998718 -2.313431,1.833673 -5.271392,2.750636 -8.231862,2.551865 z m 1.950321,-2.352047 c 2.705385,-0.332963 4.316176,-1.639335 5.197952,-4.215603 0.149761,-0.437553 3.436564,-10.5968441 3.436564,-10.6221911 0,-0.011225 -0.662816,-0.020408 -1.472924,-0.020408 -0.810108,0 -1.472924,0.00604 -1.472924,0.013432 0,0.012204 -2.186226,8.5483041 -2.202938,8.6013551 -0.0039,0.0125 -0.473088,-1.910965 -1.042554,-4.274368 -0.569467,-2.3634045 -1.044442,-4.3069629 -1.0555,-4.3190195 -0.01106,-0.012057 -0.696879,-0.018555 -1.524045,-0.01444 l -1.503939,0.00748 1.80286,5.7761735 c 1.072508,3.436201 1.796675,5.80103 1.787591,5.837531 -0.0084,0.03375 -0.130837,0.171336 -0.272088,0.305754 -0.28909,0.275107 -0.587238,0.44733 -1.029098,0.594453 -0.297266,0.09898 -0.813835,0.217838 -1.162455,0.267474 -0.20469,0.02914 -0.238267,0.0418 -0.238267,0.08983 0,0.03075 0.06498,0.491248 0.144404,1.023334 0.07942,0.532087 0.144404,0.973305 0.144404,0.980485 0,0.02114 0.08224,0.01559 0.462957,-0.03127 z m -4.5990025,-4.08724 c 0.6049678,-0.06575 1.201172,-0.235521 1.7274385,-0.491888 0.289002,-0.140785 0.801332,-0.463961 0.990461,-0.62478 l 0.0981,-0.08341 -0.603189,-0.861195 c -0.331754,-0.473657 -0.616797,-0.866416 -0.633429,-0.872799 -0.01663,-0.0064 -0.1337458,0.04804 -0.260253,0.120935 -0.3178278,0.183141 -0.7728831,0.401341 -0.9850056,0.472312 -0.283823,0.09496 -0.5680433,0.126899 -0.9778593,0.109882 C 7.2781845,15.26358 6.9457692,15.134679 6.58421,14.778549 6.4033973,14.600452 6.3400326,14.512119 6.229386,14.283909 6.073786,13.962981 5.9445193,13.487065 5.8933123,13.0466 5.8374637,12.566206 5.8717505,11.24856 5.9519599,10.79278 6.1691168,9.5588084 6.6672297,8.8869548 7.5263538,8.6692399 c 0.3660032,-0.092751 1.0438452,-0.06288 1.4440433,0.063635 0.1999567,0.063212 0.6815391,0.3068193 0.9241877,0.4674975 0.1111912,0.073629 0.2102612,0.1376641 0.2201542,0.1423003 0.01808,0.00847 1.199859,-1.5810856 1.225076,-1.6477981 0.01622,-0.042913 -0.43108,-0.379416 -0.786225,-0.5914744 C 9.7916318,6.6484326 9.069684,6.4445164 8.1039711,6.4114992 6.4294469,6.3542481 5.1802747,6.8475775 4.1809467,7.9608003 3.5482452,8.6656118 3.0870059,9.7251703 2.9041473,10.893863 c -0.074193,0.474185 -0.089875,1.535471 -0.0303,2.050541 0.1156139,0.999564 0.4278648,1.907033 0.9035937,2.626038 0.2461198,0.37198 0.7843665,0.91478 1.1586235,1.168425 0.597278,0.404792 1.4290461,0.695052 2.232372,0.779023 0.3501753,0.0366 1.051749,0.03789 1.3771058,0.0025 z"
     id="path1241"
     inkscape:connector-curvature="0" />
</svg>
