<?xml version="1.0" encoding="UTF-8" standalone="no"?>
<svg
   xmlns:dc="http://purl.org/dc/elements/1.1/"
   xmlns:cc="http://creativecommons.org/ns#"
   xmlns:rdf="http://www.w3.org/1999/02/22-rdf-syntax-ns#"
   xmlns:svg="http://www.w3.org/2000/svg"
   xmlns="http://www.w3.org/2000/svg"
   xmlns:sodipodi="http://sodipodi.sourceforge.net/DTD/sodipodi-0.dtd"
   xmlns:inkscape="http://www.inkscape.org/namespaces/inkscape"
   role="img"
   viewBox="0 0 24 24"
   version="1.1"
   id="svg4619"
   sodipodi:docname="git-F05032-05.svg"
   inkscape:version="0.92.5 (2060ec1f9f, 2020-04-08)">
  <metadata
     id="metadata4625">
    <rdf:RDF>
      <cc:Work
         rdf:about="">
        <dc:format>image/svg+xml</dc:format>
        <dc:type
           rdf:resource="http://purl.org/dc/dcmitype/StillImage" />
        <dc:title>Git</dc:title>
      </cc:Work>
    </rdf:RDF>
  </metadata>
  <defs
     id="defs4623" />
  <sodipodi:namedview
     pagecolor="#ffffff"
     bordercolor="#666666"
     borderopacity="1"
     objecttolerance="10"
     gridtolerance="10"
     guidetolerance="10"
     inkscape:pageopacity="0"
     inkscape:pageshadow="2"
     inkscape:window-width="1920"
     inkscape:window-height="1023"
     id="namedview4621"
     showgrid="false"
     inkscape:zoom="32"
     inkscape:cx="7.4159093"
     inkscape:cy="12.462267"
     inkscape:window-x="0"
     inkscape:window-y="1080"
     inkscape:window-maximized="1"
     inkscape:current-layer="svg4619" />
  <title
     id="title4615">Git</title>
  <path
     d="M23.546 10.93L13.067.452c-.604-.603-1.582-.603-2.188 0L8.708 2.627l2.76 2.76c.645-.215 1.379-.07 1.889.441.516.515.658 1.258.438 1.9l2.658 2.66c.645-.223 1.387-.078 1.9.435.721.72.721 1.884 0 2.604-.719.719-1.881.719-2.6 0-.539-.541-.674-1.337-.404-1.996L12.86 8.955v6.525c.176.086.342.203.488.348.713.721.713 1.883 0 2.6-.719.721-1.889.721-2.609 0-.719-.719-.719-1.879 0-2.598.182-.18.387-.316.605-.406V8.835c-.217-.091-.424-.222-.6-.401-.545-.545-.676-1.342-.396-2.009L7.636 3.7.45 10.881c-.6.605-.6 1.584 0 2.189l10.48 10.477c.604.604 1.582.604 2.186 0l10.43-10.43c.605-.603.605-1.582 0-2.187"
     id="path4617" />
  <path
     style="opacity:1;fill:#f05032;fill-opacity:0.98941797;stroke:#f05032;stroke-width:0.2;stroke-linecap:butt;stroke-linejoin:bevel;stroke-miterlimit:4;stroke-dasharray:none;stroke-opacity:1;paint-order:normal"
     d="M 11.338983,23.760955 C 10.971941,23.572748 0.58799927,13.2295 0.29207295,12.757335 0.01855563,12.320926 0.01826605,11.618854 0.29142304,11.181648 0.40509555,10.999707 2.1025655,9.2502479 4.0635785,7.2939596 l 3.5654781,-3.556888 1.3102295,1.3073211 1.3102289,1.3073211 -0.05232,0.5769567 c -0.06306,0.6954259 0.182257,1.2649414 0.734757,1.705782 l 0.356173,0.2841916 4e-6,3.2167429 3e-6,3.216744 -0.356871,0.272198 c -0.732429,0.558651 -0.9566169,1.522523 -0.549655,2.363193 0.381367,0.787799 1.314132,1.203587 2.142989,0.955255 0.663363,-0.198749 1.267509,-0.851168 1.36013,-1.468809 0.101986,-0.680088 -0.08896,-1.249805 -0.573873,-1.712267 L 12.915254,15.384418 V 12.254885 9.1253516 l 1.169801,1.1664824 1.169801,1.166482 -0.06143,0.463081 c -0.09998,0.753711 0.322031,1.537489 1.024533,1.902793 0.447898,0.23291 1.267507,0.201928 1.744093,-0.06593 1.011935,-0.56874 1.272775,-1.962911 0.52631,-2.813087 -0.436876,-0.497575 -0.788689,-0.653649 -1.473424,-0.653649 H 16.426557 L 15.142189,9.0100085 13.857821,7.7284917 13.906878,7.2932539 C 13.975068,6.6882827 13.785823,6.1972057 13.323559,5.7795778 12.873012,5.3725361 12.321433,5.1866398 11.800478,5.2662601 c -0.349146,0.053362 -0.39976,0.014801 -1.7094,-1.3023664 L 8.7414763,2.6065373 9.8951484,1.4682966 C 11.16742,0.21304282 11.580414,-0.03225784 12.241722,0.07453207 c 0.389775,0.06294218 0.804636,0.4518261 5.89269,5.52370713 3.010368,3.000799 5.538758,5.5795728 5.618644,5.7306088 0.186578,0.352748 0.186232,1.031262 -7.12e-4,1.382982 -0.17634,0.331783 -10.794319,10.9349 -11.110072,11.094523 -0.316003,0.159747 -0.946015,0.137802 -1.303296,-0.0454 z"
     id="path5173"
     inkscape:connector-curvature="0" />
  <path
     style="opacity:1;fill:#f05032;fill-opacity:0.98941806;stroke:#f05032;stroke-width:0.5;stroke-linecap:butt;stroke-linejoin:bevel;stroke-miterlimit:4;stroke-dasharray:none;stroke-opacity:1;paint-order:normal"
     d="M 11.724065,23.977524 C 11.560644,23.948391 11.346031,23.873102 11.266713,23.817079 10.757849,23.45767 2.2280393,14.992111 0.53327531,13.16449 0.37672417,12.995666 0.22371599,12.815013 0.19325714,12.763039 0.12652718,12.649173 0.05756765,12.45825 0.02727093,12.303485 -0.00725586,12.127111 -4.3166594e-4,11.767682 0.0409665,11.582141 0.10626502,11.289481 0.19491378,11.139722 0.49877352,10.808743 1.1167415,10.135621 2.3206579,8.9119274 4.8739409,6.3617039 7.1131649,4.1251632 7.5775036,3.6713836 7.6268621,3.6713836 c 0.049042,0 0.2896888,0.2303398 1.3830255,1.3237903 1.2358194,1.2359484 1.3235284,1.328691 1.3217814,1.3976407 -10e-4,0.040618 -0.01394,0.2111907 -0.02868,0.3790512 -0.04622,0.5261226 -0.0058,0.8216038 0.157778,1.153207 0.122187,0.2477077 0.306322,0.4585336 0.624734,0.7152924 0.150642,0.1214739 0.280187,0.2372589 0.287878,0.2573005 0.02482,0.06468 0.01628,6.4396033 -0.0087,6.4862593 -0.01247,0.02331 -0.119367,0.115718 -0.237543,0.205362 -0.118176,0.08964 -0.256097,0.203151 -0.306489,0.252238 -0.507078,0.493939 -0.674307,1.207862 -0.441917,1.886608 0.09266,0.270639 0.183363,0.422801 0.374913,0.628965 0.514663,0.553925 1.312929,0.717575 1.979282,0.405768 0.304885,-0.142666 0.628097,-0.425595 0.817321,-0.715457 0.208317,-0.319109 0.283932,-0.61232 0.261366,-1.01348 -0.01532,-0.272347 -0.05567,-0.433351 -0.167441,-0.668158 -0.106355,-0.223424 -0.228981,-0.376021 -0.559039,-0.695669 l -0.262392,-0.254117 4.64e-4,-3.143014 4.64e-4,-3.1430139 0.08198,-0.034252 0.08198,-0.034252 1.166707,1.1664309 c 0.641689,0.641537 1.172131,1.183427 1.17876,1.204198 0.0066,0.02077 -0.0047,0.159984 -0.0251,0.30936 -0.06605,0.482917 -0.02109,0.835004 0.15037,1.177572 0.212283,0.424126 0.601564,0.774836 1.000276,0.901166 0.135255,0.04285 0.20324,0.04901 0.541378,0.04901 0.335991,0 0.409298,-0.0066 0.559038,-0.04995 0.685609,-0.198709 1.162694,-0.777617 1.252947,-1.520358 0.03828,-0.315007 -0.02255,-0.67632 -0.159688,-0.948611 -0.140682,-0.279318 -0.501152,-0.653835 -0.75969,-0.789292 -0.261859,-0.137198 -0.355933,-0.153699 -0.96463,-0.169198 l -0.54711,-0.01393 -1.306742,-1.3073405 -1.306742,-1.3073413 0.01631,-0.1731636 c 0.009,-0.09524 0.02364,-0.2527133 0.03259,-0.3499405 C 13.864274,6.7191981 13.714196,6.3036319 13.344847,5.9345869 12.936199,5.5262763 12.515554,5.3418133 12.017126,5.3523494 11.544699,5.362336 11.511581,5.3604228 11.431553,5.3185252 11.250648,5.2238138 11.026366,5.0149302 9.8785769,3.8721703 8.7162465,2.7149326 8.6686529,2.6643451 8.6818797,2.6001928 8.691178,2.5550953 8.7721784,2.4555438 8.931128,2.2938611 9.3169368,1.901419 10.411027,0.84475687 10.62501,0.6579256 c 0.608492,-0.53128231 1.014497,-0.72269136 1.463322,-0.68987569 0.383387,0.0280312 0.587696,0.16398766 1.425446,0.94855619 1.505898,1.4103023 9.856146,9.7869349 10.257474,10.2898839 0.232404,0.291252 0.281402,1.057396 0.09383,1.467108 -0.09185,0.200628 -0.432747,0.556692 -3.427708,3.580217 -3.214877,3.245539 -7.356994,7.32945 -7.680312,7.572388 -0.06256,0.047 -0.16514,0.101558 -0.227964,0.121231 -0.135866,0.04255 -0.631283,0.06106 -0.805033,0.03009 z"
     id="path5263"
     inkscape:connector-curvature="0" />
</svg>
