<?xml version="1.0" encoding="UTF-8" standalone="no"?>
<svg
   xmlns:dc="http://purl.org/dc/elements/1.1/"
   xmlns:cc="http://creativecommons.org/ns#"
   xmlns:rdf="http://www.w3.org/1999/02/22-rdf-syntax-ns#"
   xmlns:svg="http://www.w3.org/2000/svg"
   xmlns="http://www.w3.org/2000/svg"
   xmlns:sodipodi="http://sodipodi.sourceforge.net/DTD/sodipodi-0.dtd"
   xmlns:inkscape="http://www.inkscape.org/namespaces/inkscape"
   role="img"
   viewBox="0 0 24 24"
   version="1.1"
   id="svg6"
   sodipodi:docname="gnubash-4EAA25-02.svg"
   inkscape:version="0.92.5 (2060ec1f9f, 2020-04-08)">
  <metadata
     id="metadata12">
    <rdf:RDF>
      <cc:Work
         rdf:about="">
        <dc:format>image/svg+xml</dc:format>
        <dc:type
           rdf:resource="http://purl.org/dc/dcmitype/StillImage" />
        <dc:title>GNU Bash</dc:title>
      </cc:Work>
    </rdf:RDF>
  </metadata>
  <defs
     id="defs10" />
  <sodipodi:namedview
     pagecolor="#ffffff"
     bordercolor="#666666"
     borderopacity="1"
     objecttolerance="10"
     gridtolerance="10"
     guidetolerance="10"
     inkscape:pageopacity="0"
     inkscape:pageshadow="2"
     inkscape:window-width="1920"
     inkscape:window-height="1023"
     id="namedview8"
     showgrid="false"
     inkscape:zoom="16"
     inkscape:cx="0.79096794"
     inkscape:cy="13.454879"
     inkscape:window-x="0"
     inkscape:window-y="1080"
     inkscape:window-maximized="1"
     inkscape:current-layer="svg6" />
  <title
     id="title2">GNU Bash</title>
  <path
     d="M21.038,4.9l-7.577-4.498C13.009,0.134,12.505,0,12,0c-0.505,0-1.009,0.134-1.462,0.403L2.961,4.9 C2.057,5.437,1.5,6.429,1.5,7.503v8.995c0,1.073,0.557,2.066,1.462,2.603l7.577,4.497C10.991,23.866,11.495,24,12,24 c0.505,0,1.009-0.134,1.461-0.402l7.577-4.497c0.904-0.537,1.462-1.529,1.462-2.603V7.503C22.5,6.429,21.943,5.437,21.038,4.9z M15.17,18.946l0.013,0.646c0.001,0.078-0.05,0.167-0.111,0.198l-0.383,0.22c-0.061,0.031-0.111-0.007-0.112-0.085L14.57,19.29 c-0.328,0.136-0.66,0.169-0.872,0.084c-0.04-0.016-0.057-0.075-0.041-0.142l0.139-0.584c0.011-0.046,0.036-0.092,0.069-0.121 c0.012-0.011,0.024-0.02,0.036-0.026c0.022-0.011,0.043-0.014,0.062-0.006c0.229,0.077,0.521,0.041,0.802-0.101 c0.357-0.181,0.596-0.545,0.592-0.907c-0.003-0.328-0.181-0.465-0.613-0.468c-0.55,0.001-1.064-0.107-1.072-0.917 c-0.007-0.667,0.34-1.361,0.889-1.8l-0.007-0.652c-0.001-0.08,0.048-0.168,0.111-0.2l0.37-0.236 c0.061-0.031,0.111,0.007,0.112,0.087l0.006,0.653c0.273-0.109,0.511-0.138,0.726-0.088c0.047,0.012,0.067,0.076,0.048,0.151 l-0.144,0.578c-0.011,0.044-0.036,0.088-0.065,0.116c-0.012,0.012-0.025,0.021-0.038,0.028c-0.019,0.01-0.038,0.013-0.057,0.009 c-0.098-0.022-0.332-0.073-0.699,0.113c-0.385,0.195-0.52,0.53-0.517,0.778c0.003,0.297,0.155,0.387,0.681,0.396 c0.7,0.012,1.003,0.318,1.01,1.023C16.105,17.747,15.736,18.491,15.17,18.946z M19.143,17.859c0,0.06-0.008,0.116-0.058,0.145 l-1.916,1.164c-0.05,0.029-0.09,0.004-0.09-0.056v-0.494c0-0.06,0.037-0.093,0.087-0.122l1.887-1.129 c0.05-0.029,0.09-0.004,0.09,0.056V17.859z M20.459,6.797l-7.168,4.427c-0.894,0.523-1.553,1.109-1.553,2.187v8.833 c0,0.645,0.26,1.063,0.66,1.184c-0.131,0.023-0.264,0.039-0.398,0.039c-0.42,0-0.833-0.114-1.197-0.33L3.226,18.64 c-0.741-0.44-1.201-1.261-1.201-2.142V7.503c0-0.881,0.46-1.702,1.201-2.142l7.577-4.498c0.363-0.216,0.777-0.33,1.197-0.33 c0.419,0,0.833,0.114,1.197,0.33l7.577,4.498c0.624,0.371,1.046,1.013,1.164,1.732C21.686,6.557,21.12,6.411,20.459,6.797z"
     id="path4" />
  <path
     style="opacity:1;fill:#4eaa25;fill-opacity:1;stroke:#4eaa25;stroke-width:0.2;stroke-linecap:butt;stroke-linejoin:bevel;stroke-miterlimit:4;stroke-dasharray:none;stroke-opacity:0.99470901;paint-order:normal"
     d="M 11.410727,23.920489 C 11.272302,23.889705 11.053878,23.82034 10.925341,23.766345 10.796803,23.71235 9.3325526,22.861417 7.6714509,21.875382 6.0103492,20.889347 4.2718834,19.857358 3.8081936,19.582073 3.3445039,19.306789 2.8914761,19.031171 2.8014653,18.969591 2.2290268,18.577955 1.7988314,17.948505 1.6045339,17.218272 l -0.081317,-0.305614 v -4.889823 c 0,-4.5985211 0.00389,-4.9064016 0.065293,-5.1681103 C 1.7241786,6.2764851 1.9586675,5.8395521 2.3571748,5.4224394 2.5037801,5.2689892 2.7239751,5.078605 2.8464971,4.9993632 3.4067383,4.6370245 10.579979,0.40115849 10.835454,0.28180922 c 0.720658,-0.3366668 1.622361,-0.33796489 2.337048,-0.003364 0.11865,0.0555493 1.985448,1.15134428 4.148441,2.43509998 4.228827,2.5098475 4.226883,2.5085693 4.591088,3.0189568 0.215384,0.301833 0.395695,0.7015555 0.483793,1.0724932 0.07102,0.2990318 0.07222,0.400638 0.06268,5.2961578 l -0.0097,4.991278 -0.112093,0.329603 c -0.196376,0.57743 -0.505448,1.039511 -0.927199,1.386215 -0.223916,0.184073 -7.979839,4.81144 -8.272945,4.935835 -0.506213,0.214839 -1.223378,0.288144 -1.72582,0.176405 z m 0.948559,-0.478694 c 0.03886,-0.02461 0.03246,-0.03694 -0.02933,-0.05655 -0.226988,-0.07204 -0.460598,-0.405375 -0.537234,-0.766563 -0.02875,-0.135502 -0.04025,-1.521811 -0.0398,-4.799936 6.76e-4,-4.978626 -0.0033,-4.867234 0.190681,-5.286603 0.12375,-0.267475 0.349571,-0.551217 0.623888,-0.78391 0.300539,-0.254936 7.940159,-4.9791338 8.19952,-5.07043 0.240988,-0.084829 0.559857,-0.084209 0.748443,0.00145 0.134545,0.061115 0.291183,0.2109718 0.372615,0.3564814 0.06061,0.1083063 0.06806,0.030037 0.01641,-0.1723817 C 21.780347,6.3769066 21.417368,5.8094897 21.056498,5.5377741 20.819479,5.3593132 13.287527,0.88413884 12.992729,0.74661727 12.390624,0.46573943 11.630075,0.45622941 11.04165,0.72222072 10.940925,0.7677522 9.0986763,1.848587 6.9477628,3.1240758 3.2236112,5.3324929 3.0240564,5.4560256 2.7655012,5.7130678 2.4547061,6.0220442 2.2648537,6.3254822 2.1245366,6.7375113 L 2.0265815,7.025148 v 4.943755 c 0,4.639798 0.00396,4.958124 0.064372,5.17746 0.1410601,0.512127 0.4753353,1.026679 0.8563877,1.318244 0.179407,0.137274 7.6946598,4.613558 8.0444078,4.791462 0.257163,0.13081 0.641472,0.214212 0.994253,0.21577 0.177975,7.88e-4 0.345953,-0.01273 0.373285,-0.03004 z m 2.540185,-3.530702 c 0.282834,-0.159622 0.304465,-0.202869 0.304465,-0.608729 0,-0.338519 0.002,-0.346748 0.110995,-0.45042 0.318356,-0.302886 0.596641,-0.776923 0.719945,-1.226368 0.09999,-0.364481 0.08514,-0.920304 -0.03058,-1.144373 -0.158938,-0.307752 -0.355452,-0.408984 -0.886602,-0.456721 -0.468907,-0.04214 -0.618383,-0.09412 -0.671897,-0.233666 -0.08105,-0.21135 0.04538,-0.561321 0.275918,-0.763733 0.207543,-0.182226 0.42662,-0.264206 0.726561,-0.271882 0.144277,-0.0037 0.276624,-0.02134 0.294104,-0.03922 0.01748,-0.01788 0.07405,-0.199915 0.125701,-0.404526 0.119716,-0.47421 0.111189,-0.488933 -0.267519,-0.461943 -0.148934,0.01061 -0.307193,0.03055 -0.351687,0.04431 -0.08003,0.02475 -0.0809,0.0213 -0.0809,-0.321877 0,-0.419522 -0.02386,-0.440228 -0.308636,-0.267793 -0.317243,0.192098 -0.322212,0.201797 -0.309676,0.604441 l 0.01089,0.349861 -0.21493,0.219653 c -0.400834,0.40964 -0.638767,0.924045 -0.67682,1.463262 -0.02674,0.378935 0.02889,0.61523 0.188831,0.802088 0.160239,0.187203 0.35553,0.26073 0.751884,0.283088 0.178612,0.01008 0.374954,0.03354 0.436315,0.05213 0.520922,0.157889 0.304594,0.999744 -0.337986,1.315294 -0.176066,0.08646 -0.249407,0.100863 -0.519094,0.10194 -0.179613,7.19e-4 -0.331067,0.01826 -0.353789,0.04098 -0.02185,0.02185 -0.07911,0.206383 -0.127252,0.410071 -0.07873,0.333143 -0.08197,0.375893 -0.03226,0.4256 0.07252,0.07252 0.517126,0.06867 0.72849,-0.0063 l 0.152807,-0.05421 v 0.33137 c 0,0.182254 0.01079,0.342157 0.02397,0.355341 0.04492,0.04492 0.120782,0.02406 0.318748,-0.08767 z m 3.252741,-1.318374 0.988751,-0.601423 0.01053,-0.302271 c 0.0058,-0.166249 -0.0049,-0.317694 -0.02374,-0.336545 -0.02173,-0.02173 -0.380924,0.173126 -0.981308,0.532331 -0.520869,0.311632 -0.975348,0.590976 -1.009954,0.620765 -0.0511,0.04398 -0.06292,0.113907 -0.06292,0.372179 0,0.230881 0.01232,0.317795 0.04494,0.317203 0.02472,-4.5e-4 0.489881,-0.271457 1.033695,-0.602239 z"
     id="path822"
     inkscape:connector-curvature="0" />
</svg>
