<?xml version="1.0" encoding="UTF-8" standalone="no"?>
<svg
   xmlns:dc="http://purl.org/dc/elements/1.1/"
   xmlns:cc="http://creativecommons.org/ns#"
   xmlns:rdf="http://www.w3.org/1999/02/22-rdf-syntax-ns#"
   xmlns:svg="http://www.w3.org/2000/svg"
   xmlns="http://www.w3.org/2000/svg"
   xmlns:sodipodi="http://sodipodi.sourceforge.net/DTD/sodipodi-0.dtd"
   xmlns:inkscape="http://www.inkscape.org/namespaces/inkscape"
   role="img"
   viewBox="0 0 24 24"
   version="1.1"
   id="svg6"
   sodipodi:docname="html5-E34F26-05.svg"
   inkscape:version="0.92.5 (2060ec1f9f, 2020-04-08)">
  <metadata
     id="metadata12">
    <rdf:RDF>
      <cc:Work
         rdf:about="">
        <dc:format>image/svg+xml</dc:format>
        <dc:type
           rdf:resource="http://purl.org/dc/dcmitype/StillImage" />
        <dc:title>HTML5</dc:title>
      </cc:Work>
    </rdf:RDF>
  </metadata>
  <defs
     id="defs10" />
  <sodipodi:namedview
     pagecolor="#ffffff"
     bordercolor="#666666"
     borderopacity="1"
     objecttolerance="10"
     gridtolerance="10"
     guidetolerance="10"
     inkscape:pageopacity="0"
     inkscape:pageshadow="2"
     inkscape:window-width="1920"
     inkscape:window-height="1023"
     id="namedview8"
     showgrid="false"
     inkscape:zoom="27.812867"
     inkscape:cx="7.2484463"
     inkscape:cy="13.346271"
     inkscape:window-x="0"
     inkscape:window-y="1080"
     inkscape:window-maximized="1"
     inkscape:current-layer="svg6" />
  <title
     id="title2">HTML5</title>
  <path
     d="M1.5 0h21l-1.91 21.563L11.977 24l-8.564-2.438L1.5 0zm7.031 9.75l-.232-2.718 10.059.003.23-2.622L5.412 4.41l.698 8.01h9.126l-.326 3.426-2.91.804-2.955-.81-.188-2.11H6.248l.33 4.171L12 19.351l5.379-1.443.744-8.157H8.531z"
     id="path4" />
  <path
     style="opacity:1;fill:#e34f26;fill-opacity:1;stroke:#e34f26;stroke-width:0.5;stroke-linecap:butt;stroke-linejoin:bevel;stroke-miterlimit:4;stroke-dasharray:none;stroke-opacity:1;paint-order:normal"
     d="M 7.5864407,22.71002 C 4.0415697,21.687762 3.4641947,21.494418 3.441941,21.322166 3.3850529,20.881832 1.5864407,0.44754213 1.5864407,0.24156453 V 0.02033898 H 12.010169 22.433898 l -0.0057,0.22881356 C 22.425112,0.375 22.000404,5.2136873 21.484426,11.001791 l -0.938142,10.523824 -4.217209,1.195454 c -2.319467,0.6575 -4.308736,1.191228 -4.4206,1.186063 -0.111865,-0.0052 -2.0567801,-0.543866 -4.3220343,-1.197112 z m 7.1694913,-4.043266 c 1.398305,-0.37167 2.572832,-0.703481 2.610058,-0.73736 0.05045,-0.04591 0.800839,-7.736549 0.797336,-8.1717669 -3.38e-4,-0.041949 -2.148378,-0.076271 -4.773422,-0.076271 -4.4580107,0 -4.7762232,-0.011738 -4.8245845,-0.1779661 C 8.5368425,9.405509 8.4821365,8.8110281 8.4437509,8.182322 l -0.069792,-1.1431019 5.0214951,-0.02639 5.021495,-0.02639 0.07126,-0.9152543 c 0.03919,-0.5033898 0.09204,-1.0868644 0.117441,-1.2966101 l 0.04618,-0.381356 H 11.99699 5.3421472 l 0.05664,0.4830509 c 0.04873,0.4155853 0.6622293,7.3651454 0.6622293,7.5015564 0,0.02711 2.0571659,0.04929 4.5714805,0.04929 h 4.57148 l -0.05454,0.48305 c -0.03,0.265678 -0.107927,1.0276 -0.173176,1.69316 l -0.118633,1.210109 -1.424215,0.391007 -1.424214,0.391007 -1.421293,-0.38725 C 8.9615868,15.765091 9.0709038,15.883723 8.9544828,14.435593 L 8.8911214,13.647458 H 7.5947133 c -0.7130246,0 -1.3168633,0.02046 -1.3418638,0.04546 -0.075387,0.07539 0.2593116,4.100577 0.3485607,4.191894 0.1165906,0.119292 4.9365158,1.433109 5.3070648,1.446601 0.167796,0.0061 1.449152,-0.292985 2.847457,-0.664654 z"
     id="path822"
     inkscape:connector-curvature="0" />
</svg>
