<?xml version="1.0" encoding="UTF-8" standalone="no"?>
<svg
   xmlns:dc="http://purl.org/dc/elements/1.1/"
   xmlns:cc="http://creativecommons.org/ns#"
   xmlns:rdf="http://www.w3.org/1999/02/22-rdf-syntax-ns#"
   xmlns:svg="http://www.w3.org/2000/svg"
   xmlns="http://www.w3.org/2000/svg"
   xmlns:sodipodi="http://sodipodi.sourceforge.net/DTD/sodipodi-0.dtd"
   xmlns:inkscape="http://www.inkscape.org/namespaces/inkscape"
   role="img"
   viewBox="0 0 24 24"
   version="1.1"
   id="svg6"
   sodipodi:docname="javascript-F7DF1E-05.svg"
   inkscape:version="0.92.5 (2060ec1f9f, 2020-04-08)">
  <metadata
     id="metadata12">
    <rdf:RDF>
      <cc:Work
         rdf:about="">
        <dc:format>image/svg+xml</dc:format>
        <dc:type
           rdf:resource="http://purl.org/dc/dcmitype/StillImage" />
        <dc:title>JavaScript</dc:title>
      </cc:Work>
    </rdf:RDF>
  </metadata>
  <defs
     id="defs10" />
  <sodipodi:namedview
     pagecolor="#ffffff"
     bordercolor="#666666"
     borderopacity="1"
     objecttolerance="10"
     gridtolerance="10"
     guidetolerance="10"
     inkscape:pageopacity="0"
     inkscape:pageshadow="2"
     inkscape:window-width="1920"
     inkscape:window-height="1023"
     id="namedview8"
     showgrid="false"
     inkscape:zoom="9.8333333"
     inkscape:cx="-17.672585"
     inkscape:cy="19.848507"
     inkscape:window-x="0"
     inkscape:window-y="1080"
     inkscape:window-maximized="1"
     inkscape:current-layer="svg6" />
  <title
     id="title2">JavaScript</title>
  <path
     d="M0 0h24v24H0V0zm22.034 18.276c-.175-1.095-.888-2.015-3.003-2.873-.736-.345-1.554-.585-1.797-1.14-.091-.33-.105-.51-.046-.705.15-.646.915-.84 1.515-.66.39.12.75.42.976.9 1.034-.676 1.034-.676 1.755-1.125-.27-.42-.404-.601-.586-.78-.63-.705-1.469-1.065-2.834-1.034l-.705.089c-.676.165-1.32.525-1.71 1.005-1.14 1.291-.811 3.541.569 4.471 1.365 1.02 3.361 1.244 3.616 2.205.24 1.17-.87 1.545-1.966 1.41-.811-.18-1.26-.586-1.755-1.336l-1.83 1.051c.21.48.45.689.81 1.109 1.74 1.756 6.09 1.666 6.871-1.004.029-.09.24-.705.074-1.65l.046.067zm-8.983-7.245h-2.248c0 1.938-.009 3.864-.009 5.805 0 1.232.063 2.363-.138 2.711-.33.689-1.18.601-1.566.48-.396-.196-.597-.466-.83-.855-.063-.105-.11-.196-.127-.196l-1.825 1.125c.305.63.75 1.172 1.324 1.517.855.51 2.004.675 3.207.405.783-.226 1.458-.691 1.811-1.411.51-.93.402-2.07.397-3.346.012-2.054 0-4.109 0-6.179l.004-.056z"
     id="path4" />
  <path
     style="opacity:1;fill:#f7df1e;fill-opacity:0.99470901;stroke:#f7df1e;stroke-width:0.2;stroke-linecap:butt;stroke-linejoin:bevel;stroke-miterlimit:4;stroke-dasharray:none;stroke-opacity:1;paint-order:normal"
     d="M 0.02348108,11.983231 V 0.00865443 H 11.998057 23.972634 V 11.983231 23.957807 H 11.998057 0.02348108 Z M 10.797899,22.050735 c 0.798814,-0.192255 1.555036,-0.787828 1.904239,-1.499708 0.364003,-0.742052 0.354593,-0.608631 0.375627,-5.326271 l 0.01887,-4.233051 H 11.94989 c -0.879988,0 -1.14828,0.01479 -1.153333,0.06356 -0.0036,0.03496 -0.02078,1.916949 -0.03814,4.182203 l -0.03155,4.118644 -0.134844,0.22936 C 10.369041,19.964753 9.9465785,20.137863 9.4081335,20.070589 9.010729,20.020936 8.7211233,19.809805 8.4264699,19.354927 8.2933853,19.149475 8.1638997,18.979888 8.1387246,18.978067 c -0.050703,-0.0037 -1.801414,1.060048 -1.8355322,1.115251 -0.04851,0.07849 0.3798839,0.707699 0.7118141,1.045487 0.5218942,0.531104 1.189949,0.858345 2.024491,0.991682 0.3695375,0.05904 1.3703155,0.01365 1.7584015,-0.07975 z m 8.193018,-0.02799 c 0.506047,-0.06308 1.228641,-0.293519 1.624723,-0.518134 0.154398,-0.08756 0.431959,-0.309471 0.616802,-0.493141 0.662036,-0.657828 0.912055,-1.45653 0.811548,-2.592548 -0.04125,-0.466209 -0.07169,-0.580385 -0.251493,-0.943246 -0.248994,-0.502491 -0.667576,-0.944999 -1.259774,-1.331781 -0.422672,-0.27606 -0.791549,-0.460433 -1.873649,-0.936492 -1.048245,-0.461166 -1.344937,-0.701059 -1.445191,-1.168524 -0.150515,-0.701832 0.358586,-1.211749 1.153057,-1.154905 0.5032,0.036 0.89124,0.277467 1.182494,0.735822 l 0.135242,0.212834 0.300758,-0.202208 c 0.165418,-0.111214 0.558174,-0.363972 0.872793,-0.561684 0.314618,-0.197712 0.572034,-0.382639 0.572034,-0.410949 0,-0.109355 -0.469395,-0.701753 -0.785701,-0.99159 -0.364701,-0.334181 -0.791881,-0.566796 -1.299045,-0.707376 -0.256067,-0.07098 -0.508023,-0.0909 -1.118644,-0.08843 -0.709768,0.0029 -0.828583,0.01651 -1.194915,0.137219 -1.038561,0.342214 -1.743203,1.049451 -2.038571,2.046078 -0.117701,0.397147 -0.119134,1.20119 -0.0029,1.649884 0.315356,1.217772 1.012799,1.85316 2.93134,2.670524 1.401242,0.596978 1.785407,0.884498 1.854668,1.388082 0.0686,0.498747 -0.125293,0.8427 -0.609373,1.081011 -0.66103,0.325424 -1.534226,0.248389 -2.200974,-0.194174 -0.244308,-0.162161 -0.606661,-0.543248 -0.823983,-0.866581 l -0.07627,-0.113477 -0.889831,0.512826 c -0.489406,0.282053 -0.90929,0.531632 -0.933075,0.554619 -0.107735,0.104123 0.682012,1.116621 1.124076,1.441126 0.929723,0.682479 2.322819,1.007397 3.623893,0.845216 z"
     id="path822"
     inkscape:connector-curvature="0" />
</svg>
