<?xml version="1.0" encoding="UTF-8" standalone="no"?>
<svg
   xmlns:dc="http://purl.org/dc/elements/1.1/"
   xmlns:cc="http://creativecommons.org/ns#"
   xmlns:rdf="http://www.w3.org/1999/02/22-rdf-syntax-ns#"
   xmlns:svg="http://www.w3.org/2000/svg"
   xmlns="http://www.w3.org/2000/svg"
   xmlns:sodipodi="http://sodipodi.sourceforge.net/DTD/sodipodi-0.dtd"
   xmlns:inkscape="http://www.inkscape.org/namespaces/inkscape"
   role="img"
   viewBox="0 0 24 24"
   version="1.1"
   id="svg978"
   sodipodi:docname="jest-C21325-01.svg"
   inkscape:version="0.92.5 (2060ec1f9f, 2020-04-08)">
  <metadata
     id="metadata984">
    <rdf:RDF>
      <cc:Work
         rdf:about="">
        <dc:format>image/svg+xml</dc:format>
        <dc:type
           rdf:resource="http://purl.org/dc/dcmitype/StillImage" />
        <dc:title>Jest</dc:title>
      </cc:Work>
    </rdf:RDF>
  </metadata>
  <defs
     id="defs982" />
  <sodipodi:namedview
     pagecolor="#ffffff"
     bordercolor="#666666"
     borderopacity="1"
     objecttolerance="10"
     gridtolerance="10"
     guidetolerance="10"
     inkscape:pageopacity="0"
     inkscape:pageshadow="2"
     inkscape:window-width="1920"
     inkscape:window-height="1023"
     id="namedview980"
     showgrid="false"
     inkscape:zoom="12.241786"
     inkscape:cx="9.4264753"
     inkscape:cy="15.400976"
     inkscape:window-x="0"
     inkscape:window-y="1080"
     inkscape:window-maximized="1"
     inkscape:current-layer="svg978" />
  <title
     id="title974">Jest</title>
  <path
     d="M22.251 11.82a3.117 3.117 0 0 0-2.328-3.01L22.911 0H8.104L11.1 8.838a3.116 3.116 0 0 0-2.244 2.988c0 1.043.52 1.967 1.313 2.536a8.279 8.279 0 0 1-1.084 1.244 8.14 8.14 0 0 1-2.55 1.647c-.834-.563-1.195-1.556-.869-2.446a3.11 3.11 0 0 0-.91-6.08 3.117 3.117 0 0 0-3.113 3.113c0 .848.347 1.626.903 2.182-.048.097-.097.195-.146.299-.465.959-.993 2.043-1.195 3.259-.403 2.432.257 4.384 1.849 5.489A5.093 5.093 0 0 0 5.999 24c1.827 0 3.682-.917 5.475-1.807 1.279-.632 2.599-1.292 3.898-1.612.48-.118.98-.187 1.508-.264 1.07-.153 2.175-.312 3.168-.89a4.482 4.482 0 0 0 2.182-3.091c.174-.994 0-1.994-.444-2.87.298-.48.465-1.042.465-1.647zm-1.355 0c0 .965-.785 1.75-1.75 1.75a1.753 1.753 0 0 1-1.085-3.126l.007-.007c.056-.042.118-.084.18-.125 0 0 .008 0 .008-.007.028-.014.055-.035.083-.05.007 0 .014-.006.021-.006.028-.014.063-.028.097-.042.035-.014.07-.027.098-.041.007 0 .013-.007.02-.007.028-.007.056-.021.084-.028.007 0 .02-.007.028-.007.034-.007.062-.014.097-.02h.007l.104-.022c.007 0 .02 0 .028-.007.028 0 .055-.007.083-.007h.035c.035 0 .07-.007.111-.007h.09c.028 0 .05 0 .077.007h.014c.055.007.111.014.167.028a1.766 1.766 0 0 1 1.396 1.723zM10.043 1.39h10.93l-2.509 7.4c-.104.02-.208.055-.312.09l-2.64-5.385-2.648 5.35c-.104-.034-.216-.055-.327-.076l-2.494-7.38zm4.968 9.825a3.083 3.083 0 0 0-.938-1.668l1.438-2.904 1.452 2.967c-.43.43-.743.98-.868 1.605H15.01zm-3.481-1.098c.034-.007.062-.014.097-.02h.02c.029-.008.056-.008.084-.015h.028c.028 0 .049-.007.076-.007h.271c.028 0 .049.007.07.007.014 0 .02 0 .035.007.027.007.048.007.076.014.007 0 .014 0 .028.007l.097.02h.007c.028.008.056.015.083.029.007 0 .014.007.028.007.021.007.049.014.07.027.007 0 .014.007.02.007.028.014.056.021.084.035h.007a.374.374 0 0 1 .09.049h.007c.028.014.056.034.084.048.007 0 .007.007.013.007.028.014.05.035.077.049l.007.007c.083.062.16.132.236.201l.007.007a1.747 1.747 0 0 1 .48 1.209 1.752 1.752 0 0 1-3.502 0 1.742 1.742 0 0 1 1.32-1.695zm-6.838-.049c.966 0 1.751.786 1.751 1.751s-.785 1.751-1.75 1.751-1.752-.785-1.752-1.75.786-1.752 1.751-1.752zm16.163 6.025a3.07 3.07 0 0 1-1.508 2.133c-.758.438-1.689.577-2.669.716a17.29 17.29 0 0 0-1.64.291c-1.445.355-2.834 1.05-4.182 1.717-1.724.854-3.35 1.66-4.857 1.66a3.645 3.645 0 0 1-2.154-.688c-1.529-1.056-1.453-3.036-1.272-4.12.167-1.015.632-1.966 1.077-2.877.028-.055.049-.104.077-.16.152.056.312.098.479.126-.264 1.473.486 2.994 1.946 3.745l.264.139.284-.104c1.216-.431 2.342-1.133 3.336-2.071a9.334 9.334 0 0 0 1.445-1.716c.16.027.32.034.48.034a3.117 3.117 0 0 0 3.008-2.327h1.167a3.109 3.109 0 0 0 3.01 2.327c.576 0 1.11-.16 1.57-.43.18.52.236 1.063.139 1.605z"
     id="path976" />
  <path
     style="opacity:1;fill:#c21325;fill-opacity:0.97354497;stroke:#c21325;stroke-width:0.37795276;stroke-linecap:butt;stroke-linejoin:bevel;stroke-miterlimit:4;stroke-dasharray:none;stroke-opacity:1;paint-order:normal"
     d="M 5.4758123,23.961525 C 4.6418114,23.866321 3.8460365,23.57822 3.1766864,23.129153 2.4533103,22.64384 1.9791285,22.102142 1.6181779,21.348736 1.2452379,20.570306 1.0714313,19.662107 1.1096871,18.691697 1.1623443,17.355978 1.4344743,16.3878 2.2273266,14.715383 c 0.1743927,-0.367859 0.3170777,-0.683581 0.3170777,-0.701605 0,-0.01802 -0.046571,-0.07756 -0.1034913,-0.1323 C 2.1709274,13.621831 1.8732186,13.057619 1.7509379,12.57385 1.3596614,11.025875 2.2560926,9.409559 3.7862816,8.9040107 4.7163382,8.5967359 5.6773259,8.7354651 6.5122874,9.2975399 6.7582336,9.4631044 7.1265554,9.83963 7.311036,10.114079 c 0.1839434,0.27365 0.3475194,0.639436 0.4348352,0.972372 0.088078,0.33584 0.1081825,0.953957 0.042407,1.303787 -0.2010255,1.069161 -0.95088,1.966517 -1.9569831,2.341934 l -0.1821975,0.06799 -0.048571,0.184036 c -0.029783,0.112848 -0.049333,0.301565 -0.050541,0.487867 -0.00319,0.491357 0.1380936,0.900884 0.4469779,1.295652 0.1417981,0.181224 0.4318256,0.450653 0.5226048,0.485488 0.082646,0.03171 0.9552823,-0.418603 1.4688803,-0.758006 0.6498558,-0.42945 1.331249,-1.048078 1.8412282,-1.671633 C 10.229599,14.33458 10.22139,14.41745 9.9000274,14.113313 9.4654498,13.70203 9.2197531,13.334122 9.0444269,12.832132 8.6155596,11.604209 9.0204436,10.218585 10.046592,9.4024494 c 0.25808,-0.205261 0.52557,-0.3570201 0.833865,-0.4730891 L 11.115426,8.8408976 9.6231148,4.4377773 8.130804,0.03465704 15.493986,0.02738096 c 4.049751,-0.0040018 7.368563,-0.0018953 7.37514,0.0046811 0.0066,0.0065765 -0.657065,1.98506304 -1.47476,4.39663644 l -1.486716,4.3846797 0.257107,0.091799 c 0.794863,0.2838039 1.412133,0.8423154 1.771733,1.6030818 0.406506,0.860001 0.396317,1.835063 -0.02819,2.697025 l -0.128478,0.26088 0.129895,0.306475 c 0.144004,0.339764 0.281182,0.83481 0.333611,1.203937 0.04939,0.347731 0.01831,1.187802 -0.0558,1.508314 -0.128414,0.555359 -0.355985,1.083745 -0.671377,1.558837 -0.249446,0.375753 -0.813934,0.937388 -1.195581,1.189537 -0.866947,0.572782 -1.620057,0.805727 -3.480145,1.076447 -1.88106,0.273773 -2.571171,0.506093 -4.953068,1.667409 -1.678758,0.818494 -1.931871,0.93825 -2.454874,1.161477 -1.2819787,0.547173 -2.3203651,0.812498 -3.2779784,0.837579 -0.2462094,0.0064 -0.5516245,-1.45e-4 -0.6787003,-0.01465 z m 0.8953068,-1.357501 c 0.7945586,-0.07469 1.6475919,-0.326282 2.7581228,-0.81348 0.1826715,-0.08014 0.9169671,-0.431507 1.6317691,-0.780818 3.068756,-1.499647 3.752221,-1.736607 5.935018,-2.057688 1.811194,-0.266419 2.496744,-0.501432 3.18494,-1.091823 0.409622,-0.351407 0.788812,-0.97604 0.932899,-1.536749 0.09699,-0.377426 0.121811,-0.878258 0.06155,-1.241878 -0.05255,-0.317083 -0.130492,-0.592057 -0.167821,-0.592057 -0.01521,0 -0.108512,0.04084 -0.207337,0.09076 -0.416051,0.210164 -0.865784,0.313568 -1.363797,0.313568 -0.852571,0 -1.60457,-0.318513 -2.199498,-0.93161 -0.348426,-0.359066 -0.551603,-0.685988 -0.717836,-1.155033 L 16.139799,12.58339 H 15.55058 c -0.445695,0 -0.592154,0.0088 -0.601268,0.0361 -0.199316,0.597172 -0.409079,0.956647 -0.780362,1.337322 -0.409755,0.42012 -0.890385,0.70047 -1.467804,0.856164 -0.193744,0.05224 -0.325874,0.06486 -0.735554,0.07026 l -0.499387,0.0066 -0.17119,0.240285 C 10.760217,15.88077 10.035688,16.636542 9.3025271,17.20852 8.5791437,17.772871 7.654242,18.294963 6.8144274,18.613011 L 6.4201903,18.762314 6.1554839,18.618485 C 5.7666758,18.407226 5.5640991,18.261334 5.2764087,17.985392 4.7300762,17.461369 4.3806819,16.842399 4.2323235,16.13574 4.1776413,15.875278 4.1591318,15.283318 4.1975561,15.023827 l 0.021383,-0.144405 -0.2524294,-0.06133 c -0.1388364,-0.03373 -0.2537385,-0.05972 -0.2553381,-0.05776 -0.0016,0.002 -0.1216047,0.252803 -0.266678,0.557429 -0.5822402,1.222591 -0.8219291,1.945055 -0.9325128,2.810756 -0.045594,0.35693 -0.045345,1.189996 4.479e-4,1.499104 0.1464799,0.988758 0.5540121,1.724897 1.2413714,2.24233 0.5365074,0.403874 1.1966212,0.664484 1.8596329,0.734175 0.3108996,0.03268 0.4090614,0.03267 0.7576866,-1.16e-4 z M 5.1148014,13.530713 c 0.2022828,-0.04687 0.5173052,-0.207819 0.7063177,-0.360867 0.2119945,-0.171657 0.4469332,-0.510352 0.5389514,-0.776969 0.05874,-0.170197 0.06881,-0.254321 0.06881,-0.574826 0,-0.317349 -0.010332,-0.405354 -0.066764,-0.568677 -0.2408627,-0.697094 -0.9061551,-1.178947 -1.637207,-1.185785 -0.324683,-0.003 -0.5116413,0.03943 -0.8201925,0.18632 -0.427836,0.203673 -0.7699977,0.616908 -0.9158156,1.106048 -0.069942,0.234616 -0.069942,0.689571 0,0.924187 0.1698738,0.569834 0.6313868,1.051017 1.1741956,1.224239 0.2719662,0.08679 0.6460985,0.09714 0.9517044,0.02633 z m 14.4801636,-0.01099 c 0.386954,-0.09505 0.799281,-0.393237 1.028186,-0.743565 0.349771,-0.53531 0.37103,-1.273658 0.05279,-1.833433 -0.362725,-0.63802 -1.124414,-0.9972946 -1.830593,-0.863457 -0.551666,0.104554 -1.020335,0.450412 -1.260399,0.930122 -0.149338,0.298415 -0.181136,0.440376 -0.181136,0.808665 0,0.264073 0.01296,0.384381 0.05444,0.505415 0.0652,0.19027 0.177778,0.420511 0.254178,0.519855 0.466839,0.607048 1.156328,0.854782 1.882542,0.676398 z m -7.254148,-0.04362 c 0.08418,-0.01731 0.263515,-0.08401 0.398533,-0.148211 0.195879,-0.09314 0.289261,-0.16119 0.462101,-0.336748 0.123363,-0.125303 0.257322,-0.296931 0.311178,-0.398678 0.529042,-0.999498 -0.01,-2.192578 -1.119849,-2.478789 -0.264594,-0.06823 -0.785689,-0.04881 -1.023312,0.03813 -0.826261,0.302324 -1.319596,1.177357 -1.126667,1.998379 0.147435,0.627419 0.655815,1.14702 1.283553,1.311882 0.191364,0.05026 0.603824,0.05736 0.814463,0.01403 z m 3.828953,-2.488591 c 0.118405,-0.428373 0.371776,-0.888904 0.665099,-1.2088941 L 16.983535,9.6164312 16.254944,8.1258322 C 15.854219,7.3060029 15.519521,6.6349412 15.511171,6.6345843 15.50282,6.6342261 15.172785,7.2898397 14.777759,8.0915012 l -0.718228,1.4575662 0.181559,0.1940878 c 0.324229,0.3466018 0.577655,0.8005218 0.698026,1.2502568 l 0.06225,0.232581 0.551303,-2.31e-4 0.551303,-2.31e-4 0.0658,-0.238049 z m 2.155369,-2.1446553 0.150635,-0.043791 1.247312,-3.6790169 c 0.686021,-2.0234596 1.247311,-3.6932843 1.247311,-3.7107219 0,-0.022907 -1.518291,-0.031705 -5.47182,-0.031705 h -5.47182 l 0.703823,2.0866426 c 0.387103,1.1476535 0.949537,2.8136465 1.249854,3.7022068 l 0.54603,1.6155642 0.156984,0.036642 c 0.08634,0.020153 0.164252,0.037193 0.173134,0.037866 0.0089,6.729e-4 0.606716,-1.1937837 1.32852,-2.6543481 0.721804,-1.4605646 1.318869,-2.6556081 1.326811,-2.6556522 0.0079,-5.78e-5 0.349105,0.6848548 0.75814,1.5219977 1.49441,3.0585077 1.869814,3.8181071 1.886955,3.8181071 0.0096,0 0.08528,-0.019706 0.168131,-0.043791 z"
     id="path986"
     inkscape:connector-curvature="0" />
</svg>
