<?xml version="1.0" encoding="UTF-8" standalone="no"?>
<svg
   xmlns:dc="http://purl.org/dc/elements/1.1/"
   xmlns:cc="http://creativecommons.org/ns#"
   xmlns:rdf="http://www.w3.org/1999/02/22-rdf-syntax-ns#"
   xmlns:svg="http://www.w3.org/2000/svg"
   xmlns="http://www.w3.org/2000/svg"
   xmlns:sodipodi="http://sodipodi.sourceforge.net/DTD/sodipodi-0.dtd"
   xmlns:inkscape="http://www.inkscape.org/namespaces/inkscape"
   role="img"
   viewBox="0 0 24 24"
   version="1.1"
   id="svg6"
   sodipodi:docname="nodedotjs-339933-05.svg"
   inkscape:version="0.92.5 (2060ec1f9f, 2020-04-08)">
  <metadata
     id="metadata12">
    <rdf:RDF>
      <cc:Work
         rdf:about="">
        <dc:format>image/svg+xml</dc:format>
        <dc:type
           rdf:resource="http://purl.org/dc/dcmitype/StillImage" />
        <dc:title>Node.js</dc:title>
      </cc:Work>
    </rdf:RDF>
  </metadata>
  <defs
     id="defs10" />
  <sodipodi:namedview
     pagecolor="#ffffff"
     bordercolor="#666666"
     borderopacity="1"
     objecttolerance="10"
     gridtolerance="10"
     guidetolerance="10"
     inkscape:pageopacity="0"
     inkscape:pageshadow="2"
     inkscape:window-width="1920"
     inkscape:window-height="1023"
     id="namedview8"
     showgrid="false"
     inkscape:zoom="27.812867"
     inkscape:cx="7.9265139"
     inkscape:cy="11.13831"
     inkscape:window-x="0"
     inkscape:window-y="1080"
     inkscape:window-maximized="1"
     inkscape:current-layer="svg6" />
  <title
     id="title2">Node.js</title>
  <path
     d="M11.998,24c-0.321,0-0.641-0.084-0.922-0.247l-2.936-1.737c-0.438-0.245-0.224-0.332-0.08-0.383 c0.585-0.203,0.703-0.25,1.328-0.604c0.065-0.037,0.151-0.023,0.218,0.017l2.256,1.339c0.082,0.045,0.197,0.045,0.272,0l8.795-5.076 c0.082-0.047,0.134-0.141,0.134-0.238V6.921c0-0.099-0.053-0.192-0.137-0.242l-8.791-5.072c-0.081-0.047-0.189-0.047-0.271,0 L3.075,6.68C2.99,6.729,2.936,6.825,2.936,6.921v10.15c0,0.097,0.054,0.189,0.139,0.235l2.409,1.392 c1.307,0.654,2.108-0.116,2.108-0.89V7.787c0-0.142,0.114-0.253,0.256-0.253h1.115c0.139,0,0.255,0.112,0.255,0.253v10.021 c0,1.745-0.95,2.745-2.604,2.745c-0.508,0-0.909,0-2.026-0.551L2.28,18.675c-0.57-0.329-0.922-0.945-0.922-1.604V6.921 c0-0.659,0.353-1.275,0.922-1.603l8.795-5.082c0.557-0.315,1.296-0.315,1.848,0l8.794,5.082c0.57,0.329,0.924,0.944,0.924,1.603 v10.15c0,0.659-0.354,1.273-0.924,1.604l-8.794,5.078C12.643,23.916,12.324,24,11.998,24z M19.099,13.993 c0-1.9-1.284-2.406-3.987-2.763c-2.731-0.361-3.009-0.548-3.009-1.187c0-0.528,0.235-1.233,2.258-1.233 c1.807,0,2.473,0.389,2.747,1.607c0.024,0.115,0.129,0.199,0.247,0.199h1.141c0.071,0,0.138-0.031,0.186-0.081 c0.048-0.054,0.074-0.123,0.067-0.196c-0.177-2.098-1.571-3.076-4.388-3.076c-2.508,0-4.004,1.058-4.004,2.833 c0,1.925,1.488,2.457,3.895,2.695c2.88,0.282,3.103,0.703,3.103,1.269c0,0.983-0.789,1.402-2.642,1.402 c-2.327,0-2.839-0.584-3.011-1.742c-0.02-0.124-0.126-0.215-0.253-0.215h-1.137c-0.141,0-0.254,0.112-0.254,0.253 c0,1.482,0.806,3.248,4.655,3.248C17.501,17.007,19.099,15.91,19.099,13.993z"
     id="path4" />
  <path
     style="opacity:1;fill:#339933;fill-opacity:1;stroke:#339933;stroke-width:0.5;stroke-linecap:butt;stroke-linejoin:bevel;stroke-miterlimit:4;stroke-dasharray:none;stroke-opacity:1;paint-order:normal"
     d="m 11.568371,23.929889 c -0.117838,-0.02849 -0.328172,-0.11464 -0.46741,-0.191433 C 10.584889,23.45383 8.116167,21.9786 7.9975629,21.883964 7.8376689,21.756381 7.8700607,21.723262 8.3156426,21.558745 c 0.1864109,-0.06883 0.512753,-0.213832 0.7252043,-0.322235 0.2124517,-0.108404 0.4158615,-0.197097 0.4520217,-0.197097 0.03616,0 0.5975484,0.315501 1.2475284,0.701114 0.64998,0.385613 1.21554,0.701114 1.2568,0.701114 0.08972,0 8.959293,-5.111689 9.029012,-5.203578 0.04001,-0.05273 0.04858,-0.960636 0.04953,-5.246233 0.0011,-4.8853109 -0.0025,-5.1865815 -0.06178,-5.2542491 C 20.979353,6.6980999 18.961126,5.5192444 16.529011,4.117902 13.353157,2.2880303 12.076477,1.5700064 11.998733,1.5700064 c -0.156024,0 -8.9837011,5.0977072 -9.0394108,5.2199768 -0.028117,0.06171 -0.039507,1.5679225 -0.039507,5.2245158 v 5.137809 l 0.080898,0.09065 c 0.088241,0.09888 2.3780541,1.432617 2.6696277,1.554971 0.2858861,0.119967 0.5439404,0.166476 0.821723,0.148098 0.3493156,-0.02311 0.593078,-0.134306 0.8059449,-0.367642 0.3217022,-0.352637 0.2962812,0.135624 0.2960803,-5.686822 l -1.78e-4,-5.1456451 0.074519,-0.094735 0.074519,-0.094735 h 0.6599406 0.6599406 l 0.074519,0.094735 0.074519,0.094735 v 5.0841411 c 0,3.359798 -0.01301,5.202557 -0.03836,5.433282 -0.045092,0.410415 -0.2021395,0.90932 -0.3766922,1.196664 -0.1801727,0.296596 -0.5722078,0.651186 -0.8877481,0.802955 -0.4223495,0.203142 -0.6814911,0.2521 -1.3398619,0.253133 -0.494528,7.76e-4 -0.615646,-0.0107 -0.86291,-0.08174 C 5.1975649,20.288186 4.6906199,20.039005 3.4052024,19.303283 2.2968224,18.668891 2.1189099,18.55477 1.9129253,18.346067 1.6634089,18.093258 1.5173989,17.836462 1.4279837,17.493174 1.3461455,17.178976 1.3461455,6.8146941 1.4279837,6.5004963 1.5214357,6.1417095 1.6609975,5.9013506 1.930373,5.6352619 2.168103,5.4004321 2.4372645,5.2390435 6.5692056,2.8538264 8.9817581,1.461149 11.068922,0.26716292 11.207347,0.20052413 c 0.501341,-0.2413489 1.077647,-0.24138548 1.582001,-1.0031e-4 0.138425,0.0662231 2.225589,1.26002418 4.638141,2.65289118 4.113415,2.3748458 4.402291,2.5480084 4.640802,2.7818635 0.156382,0.1533294 0.290978,0.3255418 0.349462,0.4471279 0.215881,0.4488071 0.205174,0.140137 0.205174,5.9145286 0,5.774225 0.01115,5.454408 -0.205926,5.908382 -0.06157,0.12877 -0.190633,0.295172 -0.350274,0.45162 -0.236306,0.23158 -0.532778,0.40929 -4.549351,2.726945 -2.363115,1.363571 -4.426009,2.549767 -4.584209,2.635989 -0.467669,0.254889 -0.902687,0.321863 -1.364796,0.210118 z"
     id="path822"
     inkscape:connector-curvature="0" />
  <path
     style="opacity:1;fill:#339933;fill-opacity:1;stroke:#339933;stroke-width:0.5;stroke-linecap:butt;stroke-linejoin:bevel;stroke-miterlimit:4;stroke-dasharray:none;stroke-opacity:1;paint-order:normal"
     d="m 13.609587,16.935826 c -1.302634,-0.156385 -2.205761,-0.533453 -2.798895,-1.168575 -0.435471,-0.466298 -0.675432,-1.047239 -0.713929,-1.728406 -0.02994,-0.529684 -0.04857,-0.517266 0.776293,-0.517266 0.771324,0 0.767726,-0.0016 0.84668,0.380412 0.18327,0.886773 0.562177,1.241232 1.56626,1.4652 0.305737,0.0682 0.452834,0.07617 1.402229,0.07606 0.967775,-1.07e-4 1.090572,-0.0071 1.402229,-0.07974 0.665069,-0.155011 1.073323,-0.440324 1.207319,-0.843749 0.07943,-0.239145 0.08293,-0.691281 0.0065,-0.836379 -0.232821,-0.441863 -0.998435,-0.681723 -2.813779,-0.881535 -0.911298,-0.100305 -1.503865,-0.193414 -1.954452,-0.3071 -0.993255,-0.250605 -1.637925,-0.679835 -1.921495,-1.279356 -0.184426,-0.389913 -0.223317,-0.592686 -0.219693,-1.145445 0.0028,-0.4224216 0.01548,-0.522699 0.09795,-0.7730231 0.137243,-0.4165364 0.323315,-0.7051886 0.660419,-1.024503 0.451523,-0.4276952 1.096401,-0.7300953 1.869833,-0.8768129 0.768076,-0.1457014 1.956864,-0.1458374 2.81573,-3.22e-4 1.014822,0.1719388 1.779607,0.5651942 2.249289,1.1565931 0.330717,0.4164234 0.575625,1.0639988 0.614914,1.6259319 0.02904,0.415375 0.036,0.410995 -0.675587,0.425045 -0.322206,0.0064 -0.639005,0.0016 -0.703997,-0.0106 -0.13261,-0.02488 -0.190097,-0.111938 -0.2584,-0.391329 -0.02348,-0.09605 -0.09777,-0.283996 -0.165078,-0.4176589 -0.319446,-0.6343357 -0.906404,-0.9136079 -2.031915,-0.9667775 -1.524403,-0.072013 -2.403873,0.171996 -2.684128,0.7447127 -0.09493,0.1939878 -0.110554,0.6764147 -0.02758,0.8512787 0.168536,0.355165 0.729556,0.519169 2.765635,0.808484 1.884483,0.267775 2.679022,0.483592 3.278095,0.890415 0.567938,0.385679 0.833451,0.912338 0.866217,1.718184 0.03636,0.894259 -0.206483,1.532014 -0.796925,2.092876 -0.501269,0.476157 -1.133721,0.76367 -2.088977,0.949652 -0.286845,0.05585 -0.555837,0.07264 -1.33032,0.08306 -0.533925,0.0072 -1.09212,-0.0015 -1.240433,-0.01932 z"
     id="path824"
     inkscape:connector-curvature="0" />
  <path
     style="opacity:1;fill:#339933;fill-opacity:1;stroke:#339933;stroke-width:0.01797729;stroke-linecap:butt;stroke-linejoin:bevel;stroke-miterlimit:4;stroke-dasharray:none;stroke-opacity:1;paint-order:normal"
     d="M 13.123588,17.101012 C 12.012734,16.90158 11.235557,16.534254 10.674267,15.943361 10.136906,15.377659 9.8696984,14.699195 9.8696984,13.900485 c 0,-0.324132 0.00165,-0.330358 0.1190196,-0.447722 0.15201,-0.15201 0.279419,-0.171482 1.018736,-0.155695 0.758167,0.01619 0.81611,0.05231 0.951195,0.592872 0.181424,0.726 0.408513,0.964393 1.129774,1.18601 0.318707,0.09793 0.337445,0.09936 1.477042,0.112688 1.076864,0.0126 1.17568,0.0084 1.474053,-0.06245 0.79255,-0.188231 1.064916,-0.450575 1.071634,-1.032209 0.0032,-0.278941 -0.0021,-0.299679 -0.103208,-0.405534 -0.281535,-0.294625 -0.945534,-0.461865 -2.643923,-0.665919 -1.698925,-0.204119 -2.417359,-0.385829 -3.083765,-0.779964 -0.318062,-0.188111 -0.697192,-0.581266 -0.84566,-0.876941 -0.226585,-0.451244 -0.258966,-0.610955 -0.25835,-1.27424 5.16e-4,-0.5555685 0.0069,-0.611521 0.100761,-0.8808875 0.372378,-1.0688529 1.373221,-1.8116554 2.766634,-2.0533313 0.692158,-0.1200491 2.029705,-0.1194232 2.776541,0.0013 0.965423,0.1560562 1.720704,0.5008697 2.244556,1.0247211 0.502312,0.5023125 0.865515,1.383677 0.865515,2.1002987 0,0.453542 -0.105315,0.522846 -0.83975,0.552603 -0.280597,0.01137 -0.606506,0.0086 -0.724243,-0.0061 -0.280333,-0.03503 -0.398865,-0.155441 -0.516876,-0.525091 C 16.670553,9.7447568 16.46714,9.4800721 16.074154,9.2961716 15.725212,9.1328822 15.424028,9.0823366 14.664241,9.0595561 c -1.282468,-0.038452 -1.976098,0.1331948 -2.229435,0.5516991 -0.06752,0.1115462 -0.08391,0.189829 -0.08406,0.4015898 -2.2e-4,0.314338 0.02939,0.379066 0.217246,0.474903 0.30536,0.155783 0.823731,0.263142 2.515118,0.520901 1.987068,0.302819 2.732457,0.525378 3.373369,1.007222 0.398337,0.299473 0.670513,0.748839 0.782665,1.292188 0.04528,0.219354 0.05499,0.408698 0.04152,0.808979 -0.01975,0.586558 -0.08122,0.84118 -0.307801,1.274971 -0.229681,0.439719 -0.837689,1.009804 -1.354953,1.270439 -0.230606,0.116196 -0.760688,0.295019 -1.168524,0.394201 -0.362296,0.08811 -0.429007,0.09229 -1.653911,0.103589 -1.146031,0.01058 -1.31678,0.0045 -1.671888,-0.05923 z"
     id="path826"
     inkscape:connector-curvature="0" />
</svg>
