<?xml version="1.0" encoding="UTF-8" standalone="no"?>
<svg
   xmlns:dc="http://purl.org/dc/elements/1.1/"
   xmlns:cc="http://creativecommons.org/ns#"
   xmlns:rdf="http://www.w3.org/1999/02/22-rdf-syntax-ns#"
   xmlns:svg="http://www.w3.org/2000/svg"
   xmlns="http://www.w3.org/2000/svg"
   xmlns:sodipodi="http://sodipodi.sourceforge.net/DTD/sodipodi-0.dtd"
   xmlns:inkscape="http://www.inkscape.org/namespaces/inkscape"
   role="img"
   viewBox="0 0 24 24"
   version="1.1"
   id="svg6"
   sodipodi:docname="react-61DAFB-05.svg"
   inkscape:version="0.92.5 (2060ec1f9f, 2020-04-08)">
  <metadata
     id="metadata12">
    <rdf:RDF>
      <cc:Work
         rdf:about="">
        <dc:format>image/svg+xml</dc:format>
        <dc:type
           rdf:resource="http://purl.org/dc/dcmitype/StillImage" />
        <dc:title>React</dc:title>
      </cc:Work>
    </rdf:RDF>
  </metadata>
  <defs
     id="defs10" />
  <sodipodi:namedview
     pagecolor="#ffffff"
     bordercolor="#666666"
     borderopacity="1"
     objecttolerance="10"
     gridtolerance="10"
     guidetolerance="10"
     inkscape:pageopacity="0"
     inkscape:pageshadow="2"
     inkscape:window-width="1920"
     inkscape:window-height="1023"
     id="namedview8"
     showgrid="false"
     inkscape:zoom="13.906433"
     inkscape:cx="0.44523155"
     inkscape:cy="12.043518"
     inkscape:window-x="0"
     inkscape:window-y="1080"
     inkscape:window-maximized="1"
     inkscape:current-layer="svg6" />
  <title
     id="title2">React</title>
  <path
     d="M14.23 12.004a2.236 2.236 0 0 1-2.235 2.236 2.236 2.236 0 0 1-2.236-2.236 2.236 2.236 0 0 1 2.235-2.236 2.236 2.236 0 0 1 2.236 2.236zm2.648-10.69c-1.346 0-3.107.96-4.888 2.622-1.78-1.653-3.542-2.602-4.887-2.602-.41 0-.783.093-1.106.278-1.375.793-1.683 3.264-.973 6.365C1.98 8.917 0 10.42 0 12.004c0 1.59 1.99 3.097 5.043 4.03-.704 3.113-.39 5.588.988 6.38.32.187.69.275 1.102.275 1.345 0 3.107-.96 4.888-2.624 1.78 1.654 3.542 2.603 4.887 2.603.41 0 .783-.09 1.106-.275 1.374-.792 1.683-3.263.973-6.365C22.02 15.096 24 13.59 24 12.004c0-1.59-1.99-3.097-5.043-4.032.704-3.11.39-5.587-.988-6.38-.318-.184-.688-.277-1.092-.278zm-.005 1.09v.006c.225 0 .406.044.558.127.666.382.955 1.835.73 3.704-.054.46-.142.945-.25 1.44-.96-.236-2.006-.417-3.107-.534-.66-.905-1.345-1.727-2.035-2.447 1.592-1.48 3.087-2.292 4.105-2.295zm-9.77.02c1.012 0 2.514.808 4.11 2.28-.686.72-1.37 1.537-2.02 2.442-1.107.117-2.154.298-3.113.538-.112-.49-.195-.964-.254-1.42-.23-1.868.054-3.32.714-3.707.19-.09.4-.127.563-.132zm4.882 3.05c.455.468.91.992 1.36 1.564-.44-.02-.89-.034-1.345-.034-.46 0-.915.01-1.36.034.44-.572.895-1.096 1.345-1.565zM12 8.1c.74 0 1.477.034 2.202.093.406.582.802 1.203 1.183 1.86.372.64.71 1.29 1.018 1.946-.308.655-.646 1.31-1.013 1.95-.38.66-.773 1.288-1.18 1.87-.728.063-1.466.098-2.21.098-.74 0-1.477-.035-2.202-.093-.406-.582-.802-1.204-1.183-1.86-.372-.64-.71-1.29-1.018-1.946.303-.657.646-1.313 1.013-1.954.38-.66.773-1.286 1.18-1.868.728-.064 1.466-.098 2.21-.098zm-3.635.254c-.24.377-.48.763-.704 1.16-.225.39-.435.782-.635 1.174-.265-.656-.49-1.31-.676-1.947.64-.15 1.315-.283 2.015-.386zm7.26 0c.695.103 1.365.23 2.006.387-.18.632-.405 1.282-.66 1.933-.2-.39-.41-.783-.64-1.174-.225-.392-.465-.774-.705-1.146zm3.063.675c.484.15.944.317 1.375.498 1.732.74 2.852 1.708 2.852 2.476-.005.768-1.125 1.74-2.857 2.475-.42.18-.88.342-1.355.493-.28-.958-.646-1.956-1.1-2.98.45-1.017.81-2.01 1.085-2.964zm-13.395.004c.278.96.645 1.957 1.1 2.98-.45 1.017-.812 2.01-1.086 2.964-.484-.15-.944-.318-1.37-.5-1.732-.737-2.852-1.706-2.852-2.474 0-.768 1.12-1.742 2.852-2.476.42-.18.88-.342 1.356-.494zm11.678 4.28c.265.657.49 1.312.676 1.948-.64.157-1.316.29-2.016.39.24-.375.48-.762.705-1.158.225-.39.435-.788.636-1.18zm-9.945.02c.2.392.41.783.64 1.175.23.39.465.772.705 1.143-.695-.102-1.365-.23-2.006-.386.18-.63.406-1.282.66-1.933zM17.92 16.32c.112.493.2.968.254 1.423.23 1.868-.054 3.32-.714 3.708-.147.09-.338.128-.563.128-1.012 0-2.514-.807-4.11-2.28.686-.72 1.37-1.536 2.02-2.44 1.107-.118 2.154-.3 3.113-.54zm-11.83.01c.96.234 2.006.415 3.107.532.66.905 1.345 1.727 2.035 2.446-1.595 1.483-3.092 2.295-4.11 2.295-.22-.005-.406-.05-.553-.132-.666-.38-.955-1.834-.73-3.703.054-.46.142-.944.25-1.438zm4.56.64c.44.02.89.034 1.345.034.46 0 .915-.01 1.36-.034-.44.572-.895 1.095-1.345 1.565-.455-.47-.91-.993-1.36-1.565z"
     id="path4" />
  <path
     style="opacity:1;fill:#61dafb;fill-opacity:1;stroke:#61dafb;stroke-width:0.5;stroke-linecap:butt;stroke-linejoin:bevel;stroke-miterlimit:4;stroke-dasharray:none;stroke-opacity:1;paint-order:normal"
     d="M 6.4839926,22.569309 C 5.9682569,22.412429 5.4782051,21.97922 5.2011401,21.435258 4.6756295,20.403523 4.5785964,18.567845 4.949897,16.682224 5.018479,16.333936 5.0405772,16.06165 5.002936,16.028699 4.9674473,15.997632 4.6795381,15.881147 4.3631378,15.769845 2.3058918,15.046151 0.73418409,13.936661 0.23851832,12.858219 -0.02465147,12.285628 -0.01400495,11.673946 0.26917814,11.096699 0.51738039,10.590757 1.1577574,9.9150383 1.7984569,9.4830202 2.3860614,9.0868029 3.6457153,8.4802103 4.4360431,8.2128764 5.0548479,8.0035615 5.0564422,8.0023854 5.013008,7.787254 4.7720697,6.5938736 4.729133,6.1859959 4.7291413,5.0906604 4.7291482,4.1751332 4.7583247,3.7987251 4.8568951,3.4424997 5.4055472,1.4597159 6.7143867,0.91027216 8.8103939,1.7828423 c 0.6289182,0.2618191 1.8020331,1.020554 2.5193351,1.6294297 0.272122,0.2309879 0.53439,0.4492099 0.582817,0.4849379 0.06031,0.044497 0.264041,-0.085204 0.646739,-0.4117401 1.559747,-1.3308487 3.163944,-2.1293959 4.285019,-2.1330231 0.622417,-0.00201 1.069869,0.1871694 1.513138,0.6397556 0.464354,0.4741143 0.66628,0.9276656 0.835218,1.8760023 0.134973,0.7576745 0.08391,2.1899276 -0.11918,3.3425741 -0.07653,0.4343894 -0.133221,0.793052 -0.125969,0.7970281 0.0073,0.00398 0.320599,0.1126519 0.696324,0.2415019 1.979801,0.678946 3.510198,1.7369513 4.069984,2.8136913 0.169485,0.326001 0.20402,0.48199 0.206106,0.93094 0.0021,0.448536 -0.03146,0.608477 -0.199251,0.950175 -0.240322,0.48939 -0.896354,1.161397 -1.572795,1.611094 -0.582843,0.387474 -1.916619,1.02604 -2.611908,1.250493 -0.27685,0.08937 -0.521991,0.172766 -0.544758,0.185319 -0.02277,0.01255 0.01931,0.307543 0.0935,0.655533 0.196477,0.921547 0.252317,3.038845 0.09914,3.759059 -0.629205,2.958414 -3.270387,2.952119 -6.745668,-0.01608 l -0.410232,-0.350376 -0.668405,0.556661 c -1.199472,0.998945 -2.3748344,1.676979 -3.3394232,1.92642 -0.458884,0.118666 -1.223718,0.142102 -1.5361332,0.04707 z m 1.7622401,-1.192752 c 0.2768503,-0.110972 0.7253233,-0.334001 0.9966056,-0.49562 0.5732577,-0.341522 1.9876247,-1.454103 1.9876247,-1.563521 0,-0.04101 -0.198169,-0.289851 -0.440375,-0.552989 -0.242205,-0.26314 -0.698335,-0.80628 -1.013619,-1.20698 L 9.2032243,16.828902 8.5449556,16.745548 C 8.182908,16.699704 7.4859579,16.581547 6.9961787,16.482978 6.5063992,16.38441 6.0907802,16.318652 6.0725809,16.336852 5.9606325,16.4488 5.7696098,18.043718 5.7676267,18.883024 c -0.00354,1.496883 0.2091227,2.193742 0.7904518,2.590212 0.2166536,0.14776 0.3122693,0.166125 0.7173805,0.137785 0.2763116,-0.01933 0.6732071,-0.115188 0.9707737,-0.234464 z m 9.3107723,0.04941 c 0.488383,-0.364632 0.749924,-1.402309 0.70079,-2.780432 -0.03422,-0.959778 -0.242554,-2.337048 -0.353519,-2.337048 -0.03425,0 -0.457753,0.07958 -0.941112,0.176852 -0.483358,0.09727 -1.174696,0.214316 -1.536307,0.260104 l -0.657475,0.08325 -0.348568,0.476965 c -0.191712,0.26233 -0.647481,0.822244 -1.012821,1.244252 l -0.664254,0.767288 0.411886,0.356124 c 1.047921,0.90605 2.295623,1.646263 3.131689,1.857907 0.466135,0.117999 1.033675,0.07095 1.269691,-0.105264 z M 12.62611,17.907232 c 0.299675,-0.346744 0.595471,-0.702694 0.657324,-0.791001 l 0.112459,-0.160559 h -1.370352 c -0.753693,0 -1.370351,0.02078 -1.370351,0.04618 0,0.114408 1.27302,1.535822 1.375484,1.535822 0.02781,0 0.29576,-0.283699 0.595436,-0.630442 z m 0.923355,-2.005455 0.701046,-0.04642 0.418419,-0.654319 c 0.498586,-0.779681 1.120734,-1.880542 1.497674,-2.650057 l 0.273113,-0.557555 -0.309684,-0.628947 C 15.783131,10.659942 14.625685,8.6901304 14.370861,8.3706086 14.207205,8.1654031 14.193059,8.1622104 13.167293,8.0989798 12.203547,8.0395723 10.737191,8.0646879 10.030518,8.1527062 9.7448693,8.1882848 9.7102759,8.2200792 9.3555567,8.773056 8.8285315,9.5946412 8.3256743,10.47434 7.9072824,11.30667 l -0.3593927,0.714959 0.1572502,0.327724 c 0.3143078,0.655049 1.0431626,1.928058 1.5546381,2.715315 l 0.5233858,0.805588 0.4899452,0.02526 c 0.950639,0.04901 2.583647,0.05213 3.276356,0.0063 z M 7.9590433,14.915107 C 7.7077725,14.504697 7.3974917,13.962681 7.26953,13.710628 L 7.0368726,13.25235 6.9438432,13.468078 c -0.187297,0.434326 -0.6170372,1.77191 -0.5808931,1.808055 0.052643,0.05264 1.6277886,0.374805 1.8602522,0.380475 0.191341,0.0047 0.1894828,-5.76e-4 -0.264159,-0.741501 z m 9.0182997,0.525497 c 0.372507,-0.07652 0.686452,-0.148288 0.697655,-0.159492 0.02467,-0.02467 -0.419601,-1.358903 -0.58151,-1.746406 l -0.115664,-0.276822 -0.433721,0.781453 c -0.238547,0.429799 -0.54475,0.955018 -0.680451,1.167154 -0.135702,0.212135 -0.24673,0.404925 -0.24673,0.428423 0,0.05418 0.494692,-0.01648 1.360421,-0.19431 z M 5.5158636,14.420874 c 0.1065696,-0.326287 0.354203,-1.005153 0.5502965,-1.508591 L 6.4226937,11.996943 6.0661245,11.114554 C 5.8700115,10.629241 5.6193191,9.9519507 5.5090304,9.609466 L 5.3085055,8.9867672 4.707879,9.1987619 C 2.5317087,9.9668546 1.0910454,11.069467 1.0785275,11.976486 c -0.00981,0.710553 0.7926168,1.515064 2.2419274,2.247761 0.4195804,0.212119 1.833194,0.782049 1.9536194,0.787646 0.026415,0.0012 0.1352198,-0.264731 0.2417893,-0.591019 z m 13.8166284,0.37023 c 2.061324,-0.724041 3.609239,-1.914205 3.617586,-2.781496 0.0083,-0.867374 -1.529272,-2.0620661 -3.566721,-2.7712551 L 18.666427,8.9888058 18.431168,9.7183495 C 18.301776,10.119598 18.056189,10.795053 17.88542,11.219358 l -0.310488,0.771466 0.379954,0.946826 c 0.208974,0.520754 0.456054,1.200836 0.549065,1.511291 0.09301,0.310456 0.174622,0.564627 0.181358,0.564824 0.0067,2.16e-4 0.297969,-0.1 0.647183,-0.222661 z M 7.311896,10.214188 C 7.457845,9.9472255 7.7560344,9.4280737 7.9745383,9.060518 8.1930422,8.6929622 8.3575243,8.3779401 8.3400533,8.3604694 8.3068614,8.3272775 7.3675631,8.4804713 6.7181629,8.62499 6.5100609,8.671301 6.3406398,8.749152 6.3406398,8.7984659 c 0,0.049204 0.1109451,0.4080945 0.2465448,0.7975351 0.3250716,0.933602 0.391025,1.103574 0.4282134,1.103574 0.017124,0 0.1505483,-0.218424 0.296498,-0.485387 z M 17.344558,9.7323264 C 17.50176,9.265618 17.630379,8.8419767 17.630379,8.790901 c 0,-0.052641 -0.147948,-0.1243604 -0.341569,-0.1655795 -0.812049,-0.1728713 -1.61544,-0.3072574 -1.64717,-0.2755277 -0.01888,0.018883 0.209812,0.4394612 0.508211,0.9346176 0.298399,0.4951565 0.597943,1.0164566 0.665652,1.1584436 0.06771,0.141988 0.150137,0.231131 0.183172,0.198096 0.03304,-0.03303 0.188683,-0.441916 0.345883,-0.9086246 z M 6.7496553,7.5656817 C 7.1486845,7.4730553 8.9760647,7.1775981 9.1575979,7.1763573 9.1842482,7.1761776 9.4631069,6.8443451 9.7772838,6.4389572 10.09146,6.0335693 10.550394,5.4828368 10.797136,5.2151074 11.315401,4.6527615 11.330751,4.7226965 10.549856,4.0885675 8.655124,2.5499413 7.0357356,2.0176404 6.3228698,2.6991363 5.9037016,3.0998588 5.6335604,4.414699 5.728589,5.5916392 c 0.047502,0.5883133 0.2146839,1.6981707 0.2955305,1.96191 0.047307,0.1543277 0.1085558,0.1553519 0.7255358,0.012132 z M 18.003479,7.3917536 C 18.17865,6.5846569 18.290228,5.3621345 18.249593,4.69516 18.120694,2.5794339 17.395585,1.9727867 15.771992,2.6223264 14.942406,2.9542129 13.88868,3.6429967 13.052803,4.3997653 l -0.334022,0.3024101 0.487004,0.535811 c 0.267853,0.2946961 0.730066,0.8499726 1.027142,1.2339478 0.520667,0.6729707 0.552107,0.6996441 0.87218,0.739948 0.598416,0.075353 2.073769,0.3305879 2.283786,0.395093 0.389535,0.119642 0.554441,0.061894 0.614586,-0.2152216 z M 13.378495,7.0338525 c 0.04321,-0.00266 -0.631586,-0.7966144 -1.024482,-1.2053954 L 11.99186,5.4516617 11.783967,5.6486842 c -0.290738,0.2755359 -1.128777,1.2838316 -1.128782,1.3581069 -3e-6,0.043523 2.114662,0.064536 2.72331,0.027061 z"
     id="path822"
     inkscape:connector-curvature="0" />
  <path
     style="opacity:1;fill:#61dafb;fill-opacity:1;stroke:#61dafb;stroke-width:0.5;stroke-linecap:butt;stroke-linejoin:bevel;stroke-miterlimit:4;stroke-dasharray:none;stroke-opacity:1;paint-order:normal"
     d="m 11.711206,14.202532 c -0.920571,-0.146597 -1.647878,-0.797125 -1.8693272,-1.671989 -0.069174,-0.273281 -0.068696,-0.762568 0.00104,-1.058387 0.1352752,-0.57388 0.6285232,-1.18634 1.1671782,-1.449271 0.654344,-0.3194011 1.309126,-0.3154363 1.977502,0.01197 0.580734,0.284479 1.036185,0.865902 1.168868,1.492163 0.159588,0.753254 -0.06244,1.497049 -0.610709,2.045898 -0.474865,0.475364 -1.212801,0.728622 -1.834547,0.629612 z"
     id="path824"
     inkscape:connector-curvature="0" />
</svg>
