<?xml version="1.0" encoding="UTF-8" standalone="no"?>
<svg
   xmlns:dc="http://purl.org/dc/elements/1.1/"
   xmlns:cc="http://creativecommons.org/ns#"
   xmlns:rdf="http://www.w3.org/1999/02/22-rdf-syntax-ns#"
   xmlns:svg="http://www.w3.org/2000/svg"
   xmlns="http://www.w3.org/2000/svg"
   xmlns:sodipodi="http://sodipodi.sourceforge.net/DTD/sodipodi-0.dtd"
   xmlns:inkscape="http://www.inkscape.org/namespaces/inkscape"
   role="img"
   viewBox="0 0 24 24"
   version="1.1"
   id="svg6"
   sodipodi:docname="redux-764ABC.svg"
   inkscape:version="0.92.5 (2060ec1f9f, 2020-04-08)">
  <metadata
     id="metadata12">
    <rdf:RDF>
      <cc:Work
         rdf:about="">
        <dc:format>image/svg+xml</dc:format>
        <dc:type
           rdf:resource="http://purl.org/dc/dcmitype/StillImage" />
        <dc:title>Redux</dc:title>
      </cc:Work>
    </rdf:RDF>
  </metadata>
  <defs
     id="defs10" />
  <sodipodi:namedview
     pagecolor="#ffffff"
     bordercolor="#666666"
     borderopacity="1"
     objecttolerance="10"
     gridtolerance="10"
     guidetolerance="10"
     inkscape:pageopacity="0"
     inkscape:pageshadow="2"
     inkscape:window-width="1920"
     inkscape:window-height="1023"
     id="namedview8"
     showgrid="false"
     inkscape:zoom="9.8333333"
     inkscape:cx="5.5389212"
     inkscape:cy="13.028762"
     inkscape:window-x="0"
     inkscape:window-y="1080"
     inkscape:window-maximized="1"
     inkscape:current-layer="svg6" />
  <title
     id="title2">Redux</title>
  <path
     d="M16.634 16.504c.87-.075 1.543-.84 1.5-1.754-.047-.914-.796-1.648-1.709-1.648h-.061a1.71 1.71 0 00-1.648 1.769c.03.479.226.869.494 1.153-1.048 2.038-2.621 3.536-5.005 4.795-1.603.838-3.296 1.154-4.944.93-1.378-.195-2.456-.81-3.116-1.799-.988-1.499-1.078-3.116-.255-4.734.6-1.17 1.499-2.023 2.099-2.443a9.96 9.96 0 01-.42-1.543C-.868 14.408-.416 18.752.932 20.805c1.004 1.498 3.057 2.456 5.304 2.456.6 0 1.23-.044 1.843-.194 3.897-.749 6.848-3.086 8.541-6.532zm5.348-3.746c-2.32-2.728-5.738-4.226-9.634-4.226h-.51c-.253-.554-.837-.899-1.498-.899h-.045c-.943 0-1.678.81-1.647 1.753.03.898.794 1.648 1.708 1.648h.074a1.69 1.69 0 001.499-1.049h.555c2.309 0 4.495.674 6.488 1.992 1.527 1.005 2.622 2.323 3.237 3.897.538 1.288.509 2.547-.045 3.597-.855 1.647-2.294 2.517-4.196 2.517-1.199 0-2.367-.375-2.967-.644-.36.298-.96.793-1.394 1.093 1.318.598 2.652.943 3.94.943 2.922 0 5.094-1.647 5.919-3.236.898-1.798.824-4.824-1.47-7.416zM6.49 17.042c.03.899.793 1.648 1.708 1.648h.06a1.688 1.688 0 001.648-1.768c0-.9-.779-1.647-1.693-1.647h-.06c-.06 0-.15 0-.226.029-1.243-2.098-1.768-4.347-1.572-6.772.12-1.828.72-3.417 1.797-4.735.9-1.124 2.593-1.68 3.747-1.708 3.236-.061 4.585 3.971 4.689 5.574l1.498.45C17.741 3.197 14.686.62 11.764.62 9.02.62 6.49 2.613 5.47 5.535 4.077 9.43 4.991 13.177 6.7 16.174c-.15.195-.24.539-.21.868z"
     id="path4" />
  <path
     style="opacity:1;fill:#764abc;fill-opacity:0;stroke:none;stroke-width:0.00719092;stroke-linecap:butt;stroke-linejoin:bevel;stroke-miterlimit:4;stroke-dasharray:none;stroke-opacity:1;paint-order:normal"
     d="m 16.562585,23.296591 c -0.787625,-0.106835 -1.676167,-0.350509 -2.498824,-0.685279 -0.217515,-0.08851 -0.399955,-0.165409 -0.405423,-0.170877 -0.0055,-0.0055 0.11587,-0.104015 0.26964,-0.218995 0.15377,-0.114979 0.441377,-0.340393 0.639127,-0.50092 0.19775,-0.160527 0.37949,-0.304115 0.403866,-0.319084 0.02452,-0.01506 0.193196,0.02848 0.377523,0.09743 0.425108,0.159027 0.871603,0.283564 1.393863,0.388778 0.559046,0.112625 1.820185,0.121681 2.299203,0.01651 1.379813,-0.302943 2.367949,-1.04738 3.085037,-2.324192 0.545272,-0.970884 0.623471,-2.156003 0.221821,-3.361753 -0.565662,-1.698116 -1.73522,-3.17166 -3.383577,-4.263017 -1.152079,-0.762779 -2.373628,-1.305158 -3.678644,-1.633353 -0.923017,-0.232127 -1.534543,-0.312143 -2.534798,-0.3316711 l -0.844933,-0.016495 -0.07191,0.1543711 C 11.638723,10.54845 11.116921,10.915665 10.602145,10.995345 9.4892542,11.167606 8.4724564,10.111642 8.7012641,9.0212437 8.8417555,8.3517229 9.2951855,7.8635636 9.9302212,7.6981578 10.599584,7.523811 11.406286,7.8301337 11.729294,8.3813062 l 0.08741,0.149149 0.784346,0.022805 c 1.785284,0.051907 3.24356,0.3322831 4.724263,0.908314 0.510672,0.1986643 1.437397,0.6633898 1.897914,0.9517498 0.839324,0.525555 1.868354,1.368065 2.39565,1.961419 0.121219,0.136405 0.307284,0.337381 0.413477,0.446612 0.569601,0.585891 1.229497,1.68628 1.53808,2.564775 0.304065,0.865632 0.414401,1.576879 0.388429,2.503896 -0.04026,1.436937 -0.422196,2.405441 -1.32466,3.359018 -1.05537,1.115144 -2.516284,1.84085 -4.124378,2.048776 -0.54028,0.06986 -1.427289,0.0693 -1.947237,-0.0012 z"
     id="path822"
     inkscape:connector-curvature="0" />
  <path
     style="opacity:1;fill:#764abc;fill-opacity:0;stroke:none;stroke-width:0.00719092;stroke-linecap:butt;stroke-linejoin:bevel;stroke-miterlimit:4;stroke-dasharray:none;stroke-opacity:1;paint-order:normal"
     d="m 16.562585,23.296591 c -0.787625,-0.106835 -1.676167,-0.350509 -2.498824,-0.685279 -0.217515,-0.08851 -0.399955,-0.165409 -0.405423,-0.170877 -0.0055,-0.0055 0.11587,-0.104015 0.26964,-0.218995 0.15377,-0.114979 0.441377,-0.340393 0.639127,-0.50092 0.19775,-0.160527 0.37949,-0.304115 0.403866,-0.319084 0.02452,-0.01506 0.193196,0.02848 0.377523,0.09743 0.425108,0.159027 0.871603,0.283564 1.393863,0.388778 0.559046,0.112625 1.820185,0.121681 2.299203,0.01651 1.379813,-0.302943 2.367949,-1.04738 3.085037,-2.324192 0.545272,-0.970884 0.623471,-2.156003 0.221821,-3.361753 -0.565662,-1.698116 -1.73522,-3.17166 -3.383577,-4.263017 -1.152079,-0.762779 -2.373628,-1.305158 -3.678644,-1.633353 -0.923017,-0.232127 -1.534543,-0.312143 -2.534798,-0.3316711 l -0.844933,-0.016495 -0.07191,0.1543711 C 11.638723,10.54845 11.116921,10.915665 10.602145,10.995345 9.4892542,11.167606 8.4724564,10.111642 8.7012641,9.0212437 8.8417555,8.3517229 9.2951855,7.8635636 9.9302212,7.6981578 10.599584,7.523811 11.406286,7.8301337 11.729294,8.3813062 l 0.08741,0.149149 0.784346,0.022805 c 1.785284,0.051907 3.24356,0.3322831 4.724263,0.908314 0.510672,0.1986643 1.437397,0.6633898 1.897914,0.9517498 0.839324,0.525555 1.868354,1.368065 2.39565,1.961419 0.121219,0.136405 0.307284,0.337381 0.413477,0.446612 0.569601,0.585891 1.229497,1.68628 1.53808,2.564775 0.304065,0.865632 0.414401,1.576879 0.388429,2.503896 -0.04026,1.436937 -0.422196,2.405441 -1.32466,3.359018 -1.05537,1.115144 -2.516284,1.84085 -4.124378,2.048776 -0.54028,0.06986 -1.427289,0.0693 -1.947237,-0.0012 z"
     id="path824"
     inkscape:connector-curvature="0" />
  <path
     style="opacity:1;fill:#764abc;fill-opacity:1;stroke:none;stroke-width:0.00719092;stroke-linecap:butt;stroke-linejoin:bevel;stroke-miterlimit:4;stroke-dasharray:none;stroke-opacity:1;paint-order:normal"
     d="m 16.562585,23.296591 c -0.787625,-0.106835 -1.676167,-0.350509 -2.498824,-0.685279 -0.217515,-0.08851 -0.399955,-0.165409 -0.405423,-0.170877 -0.0055,-0.0055 0.11587,-0.104015 0.26964,-0.218995 0.15377,-0.114979 0.441377,-0.340393 0.639127,-0.50092 0.19775,-0.160527 0.37949,-0.304115 0.403866,-0.319084 0.02452,-0.01506 0.193196,0.02848 0.377523,0.09743 0.425108,0.159027 0.871603,0.283564 1.393863,0.388778 0.559046,0.112625 1.820185,0.121681 2.299203,0.01651 1.379813,-0.302943 2.367949,-1.04738 3.085037,-2.324192 0.545272,-0.970884 0.623471,-2.156003 0.221821,-3.361753 -0.565662,-1.698116 -1.73522,-3.17166 -3.383577,-4.263017 -1.152079,-0.762779 -2.373628,-1.305158 -3.678644,-1.633353 -0.923017,-0.232127 -1.534543,-0.312143 -2.534798,-0.3316711 l -0.844933,-0.016495 -0.07191,0.1543711 C 11.638723,10.54845 11.116921,10.915665 10.602145,10.995345 9.4892542,11.167606 8.4724564,10.111642 8.7012641,9.0212437 8.8417555,8.3517229 9.2951855,7.8635636 9.9302212,7.6981578 10.599584,7.523811 11.406286,7.8301337 11.729294,8.3813062 l 0.08741,0.149149 0.784346,0.022805 c 1.785284,0.051907 3.24356,0.3322831 4.724263,0.908314 0.510672,0.1986643 1.437397,0.6633898 1.897914,0.9517498 0.839324,0.525555 1.868354,1.368065 2.39565,1.961419 0.121219,0.136405 0.307284,0.337381 0.413477,0.446612 0.569601,0.585891 1.229497,1.68628 1.53808,2.564775 0.304065,0.865632 0.414401,1.576879 0.388429,2.503896 -0.04026,1.436937 -0.422196,2.405441 -1.32466,3.359018 -1.05537,1.115144 -2.516284,1.84085 -4.124378,2.048776 -0.54028,0.06986 -1.427289,0.0693 -1.947237,-0.0012 z"
     id="path826"
     inkscape:connector-curvature="0" />
  <path
     style="opacity:1;fill:#764abc;fill-opacity:1;stroke:none;stroke-width:0.00719092;stroke-linecap:butt;stroke-linejoin:bevel;stroke-miterlimit:4;stroke-dasharray:none;stroke-opacity:1;paint-order:normal"
     d="M 7.7867475,18.615185 C 7.1290118,18.443487 6.6323871,17.884022 6.5250945,17.193888 6.4767671,16.883035 6.5206818,16.540255 6.6383939,16.30952 L 6.7059569,16.177086 6.3367883,15.442602 C 5.3627456,13.504684 4.8818686,11.713871 4.8168699,9.7823404 4.7506095,7.8133193 5.2496531,5.667085 6.1237612,4.1618002 7.7378514,1.3822062 10.746515,0.03254683 13.384345,0.90476742 c 2.246393,0.74278848 3.932657,2.91309508 4.491937,5.78134988 0.09147,0.4691199 0.207782,1.3530238 0.181497,1.3793094 -0.0079,0.00787 -0.33538,-0.081809 -0.72779,-0.1992969 L 16.616516,7.6525157 16.588289,7.4590178 C 16.343445,5.7806543 15.588033,4.1646404 14.596258,3.1975685 14.075453,2.6897366 13.491957,2.3497182 12.837993,2.1729822 12.455945,2.0697324 11.626125,2.0600341 11.15142,2.1532706 9.9154251,2.3960315 8.8419561,2.9655475 8.1945297,3.7220134 7.3329291,4.7287247 6.7070066,6.1006552 6.4595776,7.5247741 6.2880177,8.5122167 6.2693443,10.198721 6.4192532,11.166732 c 0.2112826,1.364322 0.6628056,2.663413 1.3589648,3.909921 l 0.1255012,0.224716 h 0.2807549 c 0.734766,0 1.4135691,0.477062 1.6172885,1.136629 0.1407561,0.455715 0.079336,1.028229 -0.1528073,1.424351 -0.1334987,0.227799 -0.4610654,0.519941 -0.7175801,0.639979 -0.3958175,0.185225 -0.7381149,0.218975 -1.1446277,0.112857 z"
     id="path828"
     inkscape:connector-curvature="0" />
  <path
     style="opacity:1;fill:#764abc;fill-opacity:1;stroke:none;stroke-width:0.00719092;stroke-linecap:butt;stroke-linejoin:bevel;stroke-miterlimit:4;stroke-dasharray:none;stroke-opacity:1;paint-order:normal"
     d="M 5.6323916,23.225229 C 4.1084786,23.086173 2.7500167,22.550157 1.7480554,21.692565 0.27760039,20.433983 -0.33965874,18.025506 0.23701457,15.79665 0.56173394,14.541602 1.2348099,13.405262 2.2685459,12.366858 2.7495018,11.88373 3.5071315,11.253351 3.5489678,11.301493 c 0.012854,0.01479 0.067072,0.212959 0.1204841,0.440372 0.053412,0.227413 0.1413393,0.550547 0.195393,0.718076 l 0.09828,0.304599 -0.2590294,0.205841 c -0.9726027,0.772892 -1.8346565,1.993414 -2.1693566,3.071443 -0.281779,0.907577 -0.2817995,1.84102 -5.75e-5,2.68577 0.5449391,1.633902 1.6719445,2.626324 3.3762951,2.973108 1.6746907,0.340748 3.5673841,0.02803 5.3056255,-0.876614 2.194195,-1.14194 3.742814,-2.560964 4.78153,-4.381389 l 0.241184,-0.422694 -0.108673,-0.123771 c -0.160078,-0.18232 -0.322063,-0.548229 -0.372245,-0.840869 -0.151061,-0.880918 0.513183,-1.774249 1.424787,-1.916173 0.824581,-0.128375 1.695827,0.47169 1.886427,1.299267 0.04742,0.205892 0.04786,0.583253 9.13e-4,0.786878 -0.134982,0.585503 -0.626074,1.079009 -1.210132,1.216079 l -0.252409,0.05924 -0.134052,0.272257 c -0.315151,0.640063 -0.895284,1.532158 -1.416196,2.177744 -0.353727,0.438389 -1.229324,1.307907 -1.695108,1.683341 -1.163817,0.938067 -2.628911,1.699474 -4.0830173,2.121939 -0.5135857,0.149213 -1.4630923,0.362287 -1.8674659,0.41907 -0.2995459,0.04206 -1.4984324,0.07589 -1.7797518,0.05022 z"
     id="path830"
     inkscape:connector-curvature="0" />
  <path
     style="opacity:1;fill:#764abc;fill-opacity:1;stroke:#764abc;stroke-width:0.00719092;stroke-linecap:butt;stroke-linejoin:bevel;stroke-miterlimit:4;stroke-dasharray:none;stroke-opacity:0;paint-order:normal"
     d="m 16.652471,23.294872 c -0.791702,-0.09978 -2.066787,-0.460269 -2.818648,-0.796887 l -0.146991,-0.06581 0.653369,-0.513592 0.653369,-0.513593 0.579579,0.186053 c 0.318768,0.102329 0.781009,0.228688 1.0272,0.280798 0.413412,0.0875 0.516319,0.09487 1.346487,0.09643 0.989046,0.0019 1.142337,-0.02052 1.818802,-0.265564 1.283833,-0.465054 2.379814,-1.682339 2.735897,-3.038711 0.108654,-0.413878 0.130866,-1.18418 0.04841,-1.678916 -0.166904,-1.001451 -0.749244,-2.226885 -1.50919,-3.17583 -1.222598,-1.526659 -3.317959,-2.833492 -5.502878,-3.432032 -1.021569,-0.27985 -1.806945,-0.3843254 -3.059952,-0.4070534 l -0.579086,-0.010504 -0.09838,0.1879124 c -0.138602,0.264727 -0.43326,0.529515 -0.764076,0.686618 -0.24267,0.115244 -0.319189,0.133774 -0.602798,0.145977 -0.264569,0.01138 -0.36785,-5.57e-4 -0.5566094,-0.06435 C 9.4105218,10.758169 9.0595927,10.444731 8.8427998,9.9921328 8.4258928,9.1217557 8.9085222,8.0377547 9.842348,7.7471154 c 0.428023,-0.1332158 0.983854,-0.069046 1.371942,0.1583887 0.173897,0.1019101 0.472761,0.4056978 0.536286,0.5451202 0.03316,0.072779 0.06775,0.091443 0.17065,0.092074 0.418863,0.00257 1.708718,0.079412 2.106561,0.1255027 0.91462,0.1059605 1.756792,0.2881393 2.60303,0.5630883 0.605907,0.1968636 1.07933,0.3994969 1.812102,0.7756107 1.142428,0.58638 2.053795,1.267533 3.056545,2.28445 0.859125,0.871263 1.243279,1.388609 1.690407,2.276499 0.329795,0.654895 0.513556,1.186293 0.661937,1.914189 0.09167,0.449677 0.09044,1.934107 -0.002,2.392281 -0.193461,0.959091 -0.549878,1.639882 -1.235998,2.360877 -1.04214,1.09511 -2.450417,1.808556 -4.006509,2.029732 -0.342036,0.04862 -1.647968,0.06862 -1.954847,0.02994 z"
     id="path832"
     inkscape:connector-curvature="0" />
  <path
     style="opacity:1;fill:#764abc;fill-opacity:1;stroke:#764abc;stroke-width:64.707;stroke-linecap:butt;stroke-linejoin:bevel;stroke-miterlimit:4;stroke-dasharray:none;stroke-opacity:0;paint-order:normal"
     d="m 16.346857,23.249917 c -0.847079,-0.149745 -1.733373,-0.413335 -2.512005,-0.747088 l -0.15698,-0.06729 0.649656,-0.510947 c 0.357312,-0.281021 0.66633,-0.510947 0.68671,-0.510947 0.02038,0 0.200817,0.05634 0.400974,0.125207 0.706205,0.242969 1.334315,0.379478 1.920396,0.417365 0.686941,0.04441 1.456042,0.0115 1.849675,-0.07914 1.31154,-0.301993 2.387877,-1.175078 3.031345,-2.458915 0.699827,-1.396284 0.44114,-3.184804 -0.717652,-4.961732 -1.464774,-2.24613 -4.364963,-3.954281 -7.453212,-4.389786 -0.207638,-0.02928 -0.776422,-0.06312 -1.263964,-0.075199 l -0.886442,-0.02196 -0.0779,0.152692 c -0.105139,0.206089 -0.339079,0.455144 -0.562255,0.598582 C 10.393759,11.274427 9.2960389,10.942941 8.8423321,9.9921328 8.4264297,9.1205493 8.9087838,8.0376733 9.842348,7.7471154 c 0.428023,-0.1332158 0.983854,-0.069046 1.371942,0.1583887 0.144522,0.084695 0.379506,0.3144414 0.548358,0.5361336 l 0.07191,0.094413 0.86394,0.038978 c 2.456944,0.1108484 4.074121,0.5308742 5.991358,1.5561223 1.038614,0.555401 2.031129,1.330069 2.977003,2.32358 0.555075,0.583031 0.843687,0.942514 1.13568,1.414556 0.596385,0.964127 0.934212,1.853219 1.079633,2.841367 0.08182,0.555948 0.05431,1.761492 -0.05133,2.250074 -0.200962,0.929386 -0.562163,1.598921 -1.241497,2.301283 -0.955493,0.987879 -2.142058,1.632664 -3.563868,1.936621 -0.386621,0.08265 -0.528593,0.09358 -1.366274,0.105131 -0.791256,0.01091 -0.992796,0.0026 -1.312342,-0.05384 z"
     id="path1562"
     inkscape:connector-curvature="0" />
  <path
     style="opacity:1;fill:#764abc;fill-opacity:1;stroke:#764abc;stroke-width:2.32651329;stroke-linecap:butt;stroke-linejoin:bevel;stroke-miterlimit:4;stroke-dasharray:none;stroke-opacity:0;paint-order:normal"
     d="m 16.418766,23.266376 c -0.716705,-0.117305 -1.599268,-0.366191 -2.306656,-0.650485 -0.222869,-0.08957 -0.410782,-0.16842 -0.417584,-0.175223 -0.0196,-0.0196 1.275497,-1.02702 1.320295,-1.02702 0.02215,0 0.262154,0.07277 0.533346,0.161714 1.042964,0.342063 1.876615,0.449264 2.949765,0.379317 0.760222,-0.04955 1.25324,-0.19509 1.889879,-0.557894 0.389454,-0.22194 0.615466,-0.403343 0.987885,-0.792899 0.548437,-0.573675 0.927449,-1.228604 1.108449,-1.915387 0.127928,-0.48541 0.135842,-1.351159 0.01738,-1.901789 -0.219601,-1.020778 -0.815443,-2.191285 -1.579831,-3.103511 -1.469708,-1.753961 -3.98368,-3.123478 -6.534366,-3.559675 -0.458094,-0.07834 -1.378177,-0.1416118 -2.075771,-0.142747 L 11.8897,9.9800906 11.80312,10.150948 c -0.09132,0.180205 -0.386223,0.480874 -0.597768,0.60945 C 10.543629,11.162587 9.6699388,11.024732 9.1294154,10.432847 8.550243,9.7986411 8.5444415,8.8611237 9.1156815,8.2134347 9.6227606,7.6384931 10.530897,7.505009 11.213557,7.9050745 c 0.144579,0.084729 0.4459,0.3778043 0.567383,0.5518561 0.05079,0.072761 0.09922,0.078935 0.917052,0.1168881 1.910523,0.088661 3.237788,0.3500376 4.673571,0.9203602 0.385303,0.1530506 1.477531,0.7058571 1.850701,0.9366901 0.425255,0.263052 1.069558,0.743547 1.54927,1.155385 0.401883,0.345019 1.28808,1.257335 1.565629,1.611772 0.712123,0.909399 1.26198,2.073919 1.493966,3.164003 0.07575,0.355951 0.08415,0.487184 0.08399,1.312342 -1.44e-4,0.747118 -0.01216,0.972583 -0.06492,1.217953 -0.21005,0.976823 -0.572435,1.657408 -1.263431,2.37281 -0.952032,0.985656 -2.136393,1.629803 -3.551628,1.93165 -0.397707,0.08482 -0.533122,0.09534 -1.37594,0.106849 -0.681308,0.0093 -1.017697,-8.02e-4 -1.240433,-0.03726 z"
     id="path1564"
     inkscape:connector-curvature="0" />
  <path
     style="opacity:1;fill:#764abc;fill-opacity:1;stroke:#764abc;stroke-width:20.763;stroke-linecap:butt;stroke-linejoin:bevel;stroke-miterlimit:4;stroke-dasharray:none;stroke-opacity:0;paint-order:normal"
     d="m 17.088568,23.333802 c -0.281244,-0.01891 -0.565984,-0.04916 -0.761458,-0.08092 -0.48526,-0.07883 -1.150745,-0.249947 -1.674465,-0.430565 -0.265636,-0.09161 -0.851762,-0.319727 -0.939117,-0.365496 -0.04373,-0.02291 -0.03341,-0.03234 0.44718,-0.40894 0.270565,-0.212019 0.566533,-0.444584 0.657706,-0.51681 0.150362,-0.119117 0.171093,-0.130152 0.223062,-0.118738 0.03151,0.0069 0.236013,0.07157 0.454448,0.143671 0.448861,0.148154 0.936911,0.275194 1.269053,0.330335 0.793585,0.131748 1.919788,0.112837 2.532704,-0.04253 0.413879,-0.104912 0.936547,-0.334173 1.296459,-0.568671 0.469817,-0.306106 0.962939,-0.805094 1.303731,-1.31924 0.35672,-0.538177 0.567828,-1.050624 0.650307,-1.578568 0.04512,-0.288803 0.04498,-1.036041 -2.4e-4,-1.324999 -0.173432,-1.108169 -0.770194,-2.343553 -1.628264,-3.370743 -0.197984,-0.237005 -0.695193,-0.737439 -0.963728,-0.969978 -0.9658,-0.836341 -2.165069,-1.534087 -3.478153,-2.02362 -0.715842,-0.266875 -1.670171,-0.511922 -2.337501,-0.60021 -0.417316,-0.05521 -0.929458,-0.08566 -1.842672,-0.1095435 l -0.3955,-0.010345 -0.08616,0.1701235 c -0.225948,0.446102 -0.7426,0.790533 -1.284609,0.856395 C 10.034494,11.054786 9.4917742,10.841866 9.1262279,10.443151 8.8188882,10.107925 8.6555779,9.6697449 8.6816086,9.2501872 8.7215454,8.6064952 9.1230155,8.027846 9.6974097,7.7860868 c 0.3868973,-0.162843 0.8531353,-0.1660905 1.2609023,-0.00878 0.309827,0.1195248 0.551117,0.3046126 0.735049,0.5638394 0.05659,0.079755 0.124395,0.1554221 0.150679,0.1681494 0.03269,0.015828 0.253947,0.031474 0.700117,0.049508 1.008137,0.040748 1.511589,0.08765 2.220756,0.2068867 1.044846,0.1756758 2.062765,0.4746369 2.916906,0.8566896 0.330507,0.1478343 1.001861,0.4871631 1.294365,0.6542241 0.621634,0.35504 1.416154,0.948719 2.108321,1.575374 0.261449,0.236703 1.00859,1.03254 1.243416,1.324456 0.274765,0.341565 0.663897,0.959602 0.895329,1.422 0.353212,0.705712 0.601699,1.515297 0.686967,2.238173 0.06104,0.517517 0.05337,1.282693 -0.01802,1.797729 -0.143527,1.035388 -0.506402,1.790164 -1.242362,2.584096 -1.051704,1.134547 -2.622718,1.905679 -4.240908,2.081647 -0.237419,0.02582 -1.107422,0.04804 -1.320357,0.03373 z"
     id="path1566"
     inkscape:connector-curvature="0" />
  <path
     style="opacity:1;fill:#764abc;fill-opacity:1;stroke:#764abc;stroke-width:1;stroke-linecap:butt;stroke-linejoin:bevel;stroke-miterlimit:4;stroke-dasharray:none;stroke-opacity:0;paint-order:normal"
     d="m 17.052614,23.333656 c -0.935435,-0.06406 -1.907522,-0.301341 -2.97864,-0.727066 -0.169957,-0.06755 -0.330866,-0.13427 -0.357577,-0.148265 l -0.04856,-0.02545 0.285047,-0.222891 c 0.156776,-0.122589 0.451167,-0.35454 0.654203,-0.515446 0.351374,-0.278466 0.372185,-0.292033 0.432075,-0.28168 0.03461,0.006 0.216626,0.0622 0.404489,0.124939 0.593926,0.198336 1.082379,0.319246 1.519081,0.376028 0.693508,0.09017 1.689073,0.0695 2.229184,-0.04629 0.533638,-0.114403 1.16688,-0.408183 1.635934,-0.758957 0.21499,-0.160777 0.632924,-0.574689 0.822985,-0.815067 0.445872,-0.563911 0.747958,-1.178599 0.865052,-1.760217 0.08068,-0.400768 0.09292,-1.035013 0.02843,-1.473527 -0.148778,-1.011609 -0.71398,-2.234916 -1.472641,-3.187343 -0.564941,-0.70923 -1.299992,-1.375947 -2.122451,-1.925136 -1.201132,-0.802045 -2.557555,-1.381815 -3.990959,-1.70584 -0.544654,-0.12312 -0.952786,-0.181286 -1.52807,-0.217776 -0.277461,-0.0176 -1.522597,-0.057932 -1.528919,-0.049525 -0.0017,0.00227 -0.0422,0.080973 -0.08998,0.174905 -0.07305,0.14359 -0.114353,0.197978 -0.259389,0.341568 -0.24506,0.242618 -0.485327,0.37991 -0.822936,0.470236 -0.197394,0.05281 -0.54935,0.05241 -0.7504114,-8.67e-4 C 9.1282507,10.734693 8.5570963,9.893098 8.6998982,9.0758977 8.8982426,7.9408486 10.040806,7.3435166 11.08134,7.83088 c 0.268815,0.125907 0.454854,0.2838746 0.638046,0.5417719 0.05966,0.083986 0.102759,0.1258681 0.143048,0.1390019 0.03171,0.010339 0.348895,0.031187 0.704845,0.046331 1.027046,0.043694 1.669351,0.1075116 2.373003,0.2357756 0.953387,0.1737866 1.916121,0.4618588 2.696594,0.806883 0.312127,0.1379824 1.060113,0.5149166 1.339308,0.6749196 0.655526,0.375675 1.460263,0.980874 2.173549,1.634607 0.238892,0.218947 1.059459,1.105395 1.231295,1.330154 0.541081,0.70772 1.032116,1.642144 1.275775,2.427756 0.225474,0.72698 0.314849,1.387982 0.292906,2.166264 -0.03775,1.338869 -0.322874,2.1944 -1.022969,3.069469 -0.203862,0.254813 -0.660892,0.708077 -0.930371,0.922704 -0.654404,0.521201 -1.318633,0.879675 -2.130309,1.149696 -0.523024,0.173995 -1.006732,0.280225 -1.510093,0.33164 -0.198465,0.02027 -1.118228,0.03848 -1.303353,0.0258 z"
     id="path1568"
     inkscape:connector-curvature="0" />
  <path
     style="opacity:1;fill:#764abc;fill-opacity:1;stroke:#764abc;stroke-width:0.01797729;stroke-linecap:butt;stroke-linejoin:bevel;stroke-miterlimit:4;stroke-dasharray:none;stroke-opacity:0;paint-order:normal"
     d="m 16.917784,23.326183 c -0.648972,-0.05213 -1.37717,-0.210413 -2.148286,-0.466951 -0.385547,-0.128264 -0.922732,-0.3326 -1.050822,-0.399713 l -0.05169,-0.02708 0.158411,-0.123793 c 0.08713,-0.06809 0.381709,-0.300094 0.654626,-0.515572 0.476453,-0.376176 0.49872,-0.391334 0.559135,-0.38063 0.03461,0.0061 0.233944,0.06703 0.442973,0.135332 0.396616,0.129595 0.80619,0.241817 1.112063,0.304703 0.755584,0.155344 2.052016,0.151062 2.687605,-0.0089 0.67093,-0.168832 1.325564,-0.517322 1.808029,-0.962491 0.488846,-0.451058 0.837765,-0.906808 1.103665,-1.441579 0.261703,-0.526334 0.361219,-0.923655 0.388785,-1.552257 0.03712,-0.84652 -0.171119,-1.69782 -0.648396,-2.650647 -0.338795,-0.676364 -0.730116,-1.244326 -1.241375,-1.801726 -1.45848,-1.590108 -3.641762,-2.771469 -6.007498,-3.25062 -0.372621,-0.07547 -0.721147,-0.120774 -1.166545,-0.151638 -0.402612,-0.0279 -1.587861,-0.065916 -1.611411,-0.051686 -0.0072,0.00433 -0.0514,0.082356 -0.09827,0.173381 -0.162245,0.315056 -0.510155,0.60778 -0.890536,0.749277 -0.271093,0.100844 -0.643551,0.128063 -0.901105,0.06585 C 9.3955031,10.819317 8.9038437,10.345439 8.7256621,9.7246984 8.6695136,9.5290909 8.6693551,9.1469242 8.7253373,8.9414195 8.9025081,8.2910435 9.3522353,7.8444629 9.983272,7.6922861 c 0.196983,-0.047503 0.545668,-0.038854 0.768301,0.019057 0.386217,0.1004628 0.711074,0.309028 0.912818,0.5860477 0.117344,0.1611292 0.17345,0.2124114 0.244609,0.2235778 0.03577,0.00561 0.344126,0.022465 0.685245,0.037451 0.901934,0.039622 1.314624,0.07482 1.914582,0.1632909 1.086568,0.1602279 2.191531,0.4694537 3.110071,0.8703592 0.300468,0.1311419 1.052347,0.5090903 1.341084,0.6741253 0.641431,0.366626 1.466324,0.982864 2.149533,1.605812 0.186976,0.170483 0.875376,0.895103 1.121378,1.180377 0.11936,0.138415 0.358496,0.464871 0.493828,0.674149 0.675357,1.044369 1.06844,2.087446 1.195741,3.172992 0.05217,0.444853 0.03933,1.22964 -0.02863,1.750687 -0.109815,0.84188 -0.424262,1.577875 -0.960978,2.24926 -0.205892,0.257553 -0.661442,0.709216 -0.938617,0.930607 -1.011866,0.808221 -2.233944,1.312168 -3.564357,1.469831 -0.278617,0.03302 -1.221843,0.04943 -1.510092,0.02627 z"
     id="path1570"
     inkscape:connector-curvature="0" />
  <path
     style="opacity:1;fill:#764abc;fill-opacity:1;stroke:#764abc;stroke-width:0.01797729;stroke-linecap:butt;stroke-linejoin:bevel;stroke-miterlimit:4;stroke-dasharray:none;stroke-opacity:1;paint-order:normal"
     d="M 5.5022041,23.206982 C 5.2996597,23.184517 4.8085961,23.101476 4.5943509,23.053459 3.4008098,22.785963 2.3320544,22.244935 1.5889752,21.532071 c -1.1911225,-1.142689 -1.76597267,-3.078595 -1.487696,-5.01007 0.17592506,-1.221068 0.69148317,-2.382146 1.5157366,-3.41356 0.4429291,-0.55425 1.1237903,-1.21714 1.7068932,-1.661838 0.1092498,-0.08332 0.227759,-0.157447 0.227759,-0.142466 0,0.03361 0.2668148,1.032068 0.3220891,1.205304 0.040376,0.126545 0.073411,0.235853 0.073411,0.242908 0,0.0071 -0.119117,0.109808 -0.2647043,0.22834 -0.9067211,0.738222 -1.6840441,1.796592 -2.0727884,2.822221 -0.088495,0.233476 -0.2004484,0.660781 -0.2425672,0.92583 -0.03981,0.250521 -0.055121,0.857826 -0.028127,1.115638 0.1019607,0.97378 0.5802255,1.994551 1.250901,2.669825 0.3317391,0.334014 0.6434591,0.557056 1.0786375,0.771787 0.5313803,0.2622 1.0449394,0.410586 1.7527859,0.506446 0.3397408,0.04601 1.3890752,0.04616 1.7348086,2.55e-4 1.3746864,-0.182539 2.505037,-0.596029 3.8830948,-1.420466 1.592354,-0.952641 2.856765,-2.147176 3.713899,-3.508655 0.154098,-0.244772 0.483798,-0.816006 0.483798,-0.838224 0,-0.0099 -0.03438,-0.05787 -0.0764,-0.106581 -0.161294,-0.186973 -0.288325,-0.44733 -0.367262,-0.752723 -0.03973,-0.153706 -0.04357,-0.198062 -0.03593,-0.414804 0.01247,-0.353582 0.103057,-0.620449 0.308197,-0.907931 0.087,-0.121924 0.303092,-0.333651 0.428796,-0.420138 0.118097,-0.08125 0.358272,-0.193493 0.506635,-0.236765 0.164849,-0.04808 0.46869,-0.0651 0.647441,-0.03626 0.640241,0.103282 1.183605,0.569136 1.385217,1.18762 0.0466,0.142957 0.0499,0.173665 0.05126,0.476398 0.0016,0.355613 -0.01046,0.429929 -0.106951,0.659494 -0.194764,0.463377 -0.636532,0.843152 -1.114058,0.957725 -0.285983,0.06862 -0.237695,0.02426 -0.426874,0.392123 -0.37323,0.72576 -1.033186,1.718292 -1.50149,2.258147 -0.368843,0.425198 -1.110118,1.156557 -1.505299,1.485162 -0.923559,0.767968 -2.227409,1.50495 -3.455222,1.953012 -0.758692,0.276867 -2.0714555,0.597014 -2.7199767,0.663326 -0.1893815,0.01937 -1.617941,0.03879 -1.7527859,0.02383 z"
     id="path1572"
     inkscape:connector-curvature="0" />
  <path
     style="opacity:1;fill:#764abc;fill-opacity:1;stroke:#764abc;stroke-width:0.01797729;stroke-linecap:butt;stroke-linejoin:bevel;stroke-miterlimit:4;stroke-dasharray:none;stroke-opacity:1;paint-order:normal"
     d="M 16.989693,23.331949 C 16.353597,23.289814 15.561382,23.122582 14.796464,22.86897 14.40831,22.740276 13.868723,22.536221 13.734559,22.467391 l -0.06797,-0.03487 0.160448,-0.126369 c 0.944695,-0.744047 1.152618,-0.903316 1.179266,-0.903316 0.01704,0 0.20331,0.05596 0.413935,0.124353 0.691025,0.224392 1.118752,0.328694 1.605409,0.391482 0.366191,0.04725 1.495952,0.04706 1.833683,-3.02e-4 0.463712,-0.06503 0.796007,-0.165698 1.222456,-0.370344 0.579066,-0.277885 0.95547,-0.569576 1.449068,-1.122945 0.415255,-0.465538 0.772512,-1.106602 0.924036,-1.658097 0.139448,-0.507541 0.168154,-1.248459 0.07025,-1.813318 -0.112433,-0.648716 -0.408215,-1.425844 -0.807992,-2.122893 -1.023008,-1.78371 -2.894937,-3.26341 -5.226575,-4.13144 -0.711543,-0.264896 -1.594481,-0.496911 -2.260399,-0.593979 -0.423257,-0.0617 -1.262568,-0.1125327 -1.993663,-0.1207532 l -0.330764,-0.00372 -0.07041,0.1327162 c -0.09318,0.175647 -0.166726,0.273499 -0.304509,0.405151 -0.370865,0.35436 -0.891389,0.537191 -1.35629,0.476388 C 9.5062313,10.907728 8.9354134,10.417405 8.7353421,9.7588833 8.6928445,9.6190052 8.6872608,9.570644 8.6869868,9.3400737 8.6867362,9.1291347 8.6939506,9.053078 8.7248014,8.9414195 8.8180695,8.6038542 8.9677896,8.3431038 9.1978196,8.1176179 9.5356888,7.7864233 10.038042,7.6118898 10.497481,7.6660744 c 0.515511,0.060797 0.928149,0.2952208 1.213957,0.6896595 0.0853,0.117722 0.128466,0.1504425 0.217648,0.1649842 0.03461,0.00564 0.342018,0.022531 0.683137,0.03753 1.382881,0.060803 2.226098,0.1735759 3.235176,0.4326747 0.900555,0.2312333 1.547367,0.4742168 2.409693,0.9052324 0.764378,0.3820578 1.187952,0.6413938 1.797935,1.1007968 0.669303,0.50408 1.111868,0.902053 1.677061,1.508085 0.586423,0.628796 0.795707,0.894799 1.119392,1.422766 0.58009,0.946192 0.936666,1.918699 1.059938,2.890824 0.06439,0.50777 0.05217,1.333797 -0.02793,1.887615 -0.158343,1.094858 -0.622453,1.952737 -1.510955,2.792907 -0.994879,0.94076 -2.367613,1.588709 -3.773875,1.781321 -0.379998,0.05205 -1.202907,0.07838 -1.608968,0.05148 z"
     id="path1574"
     inkscape:connector-curvature="0" />
  <path
     style="opacity:1;fill:#764abc;fill-opacity:1;stroke:#764abc;stroke-width:0.01797729;stroke-linecap:butt;stroke-linejoin:bevel;stroke-miterlimit:4;stroke-dasharray:none;stroke-opacity:1;paint-order:normal"
     d="M 5.4482722,23.206047 C 4.7200542,23.110074 4.0744985,22.94948 3.4980782,22.720901 2.3083028,22.249097 1.4212683,21.546791 0.86873102,20.639127 0.12010309,19.409341 -0.14592933,17.795603 0.14406661,16.243353 0.41836644,14.77512 1.1647218,13.449201 2.3855577,12.261288 2.8592892,11.800332 3.5061844,11.2661 3.5443743,11.30429 c 0.010164,0.01016 0.038752,0.113062 0.1760041,0.633502 0.054759,0.207638 0.1281632,0.470556 0.1631209,0.584262 0.034958,0.113707 0.063584,0.215661 0.063614,0.226567 3.59e-5,0.0109 -0.1087134,0.110233 -0.2416524,0.220729 -0.7759076,0.644918 -1.3831972,1.39273 -1.8193275,2.240309 -0.2385005,0.463504 -0.3529121,0.777485 -0.4624973,1.269238 -0.068446,0.307145 -0.084577,0.482502 -0.086443,0.939727 -0.00128,0.313324 0.00587,0.462214 0.029041,0.604481 0.1762262,1.082191 0.7356944,2.099442 1.5112854,2.747888 0.4635184,0.387533 1.1195708,0.707546 1.7887404,0.872523 0.6108591,0.150601 0.9152371,0.179473 1.7701741,0.167915 0.7007172,-0.0095 0.8412623,-0.02349 1.4116999,-0.140771 1.2204996,-0.250933 2.4151771,-0.77824 3.7214061,-1.642555 0.747974,-0.494925 1.370991,-1.011002 1.966564,-1.629008 0.620779,-0.644162 1.10795,-1.312215 1.590501,-2.181039 l 0.108904,-0.196079 -0.08707,-0.109535 c -0.434643,-0.546757 -0.520437,-1.265762 -0.221155,-1.853412 0.16148,-0.317071 0.493494,-0.634538 0.816288,-0.780525 0.224179,-0.101387 0.348912,-0.13012 0.607931,-0.140041 0.206511,-0.0079 0.266298,-0.0036 0.401019,0.02862 0.517174,0.123853 0.954897,0.466568 1.186225,0.928753 0.127799,0.255338 0.147565,0.353962 0.147565,0.736295 0,0.30789 -0.0042,0.354863 -0.04212,0.476398 -0.08507,0.272317 -0.275135,0.570353 -0.480395,0.753309 -0.196333,0.174999 -0.490471,0.329705 -0.720556,0.378987 -0.224065,0.04799 -0.220246,0.04447 -0.383095,0.353696 -0.499279,0.948071 -1.147045,1.89119 -1.739015,2.531933 -0.286783,0.31041 -0.856977,0.867956 -1.147118,1.121671 -0.944731,0.826125 -2.311896,1.611034 -3.6528633,2.097162 -0.5630538,0.204118 -1.7002165,0.493257 -2.3646859,0.601252 -0.1258736,0.02046 -0.3726119,0.04483 -0.5483074,0.05417 -0.3057975,0.01625 -1.4474576,0.02015 -1.5598793,0.0053 z"
     id="path1576"
     inkscape:connector-curvature="0" />
  <path
     style="opacity:1;fill:#764abc;fill-opacity:1;stroke:#764abc;stroke-width:0.01797729;stroke-linecap:butt;stroke-linejoin:bevel;stroke-miterlimit:4;stroke-dasharray:none;stroke-opacity:1;paint-order:normal"
     d="M 8.0025711,18.651618 C 7.5955917,18.587575 7.262073,18.413516 6.9912911,18.123843 6.7616685,17.878201 6.618745,17.601202 6.5497748,17.268143 c -0.028345,-0.136879 -0.03358,-0.215569 -0.026319,-0.395584 0.010147,-0.25157 0.039188,-0.380384 0.1284104,-0.569587 l 0.0609,-0.129142 -0.2553303,-0.509051 C 6.1633923,15.078545 5.9892952,14.703411 5.8165473,14.283829 5.2534168,12.916059 4.9436692,11.610961 4.8458803,10.193995 4.8203267,9.823722 4.8201323,9.0119987 4.8455144,8.6659253 4.9494814,7.248383 5.2952204,5.8713978 5.8330877,4.7326872 6.5839689,3.1430082 7.9118744,1.8129049 9.398849,1.1610242 9.6892203,1.0337272 9.9815196,0.93010764 10.291722,0.84450242 l 0.223286,-0.0616193 1.205909,2.734e-5 1.205908,2.734e-5 0.20221,0.0542064 c 0.700195,0.1877014 1.421481,0.5626042 2.052684,1.0669234 0.249813,0.1995962 0.674487,0.6151143 0.884371,0.8653062 0.883029,1.0526089 1.489999,2.3662095 1.794247,3.8830949 0.07668,0.3822838 0.215671,1.3844089 0.194612,1.4031106 C 18.043329,8.0658989 16.647288,7.664353 16.62811,7.6451749 16.62523,7.6422951 16.6066,7.5337608 16.58671,7.4039876 16.328382,5.7185315 15.562535,4.1128682 14.560509,3.1558856 13.982342,2.6037075 13.263274,2.224361 12.597344,2.1202118 12.332037,2.0787187 11.587328,2.0785639 11.309751,2.1199443 10.337292,2.2649159 9.2894271,2.7257201 8.6032868,3.3101266 7.9049674,3.9049062 7.2214578,4.99427 6.8050815,6.1760705 6.5772112,6.8228344 6.4402622,7.4582795 6.3630225,8.2272298 c -0.038116,0.3794608 -0.05438,1.7549552 -0.025958,2.1954052 0.099255,1.538156 0.6091968,3.180683 1.4610718,4.706126 l 0.095373,0.170785 0.2694965,0.01091 c 0.3357322,0.01359 0.5294451,0.05788 0.7728607,0.176685 0.4959205,0.24205 0.8172176,0.652824 0.9069412,1.159509 0.030369,0.171501 0.022871,0.519042 -0.015152,0.702307 -0.092667,0.446632 -0.3112672,0.762642 -0.7175262,1.037258 -0.3184819,0.215283 -0.7575107,0.320486 -1.1075584,0.265403 z"
     id="path1578"
     inkscape:connector-curvature="0" />
  <path
     style="opacity:1;fill:#764abc;fill-opacity:1;stroke:#764abc;stroke-width:0.01797729;stroke-linecap:butt;stroke-linejoin:bevel;stroke-miterlimit:4;stroke-dasharray:none;stroke-opacity:1;paint-order:normal"
     d="m 17.124739,23.342075 c -0.677369,-0.02546 -1.588243,-0.214204 -2.444911,-0.506605 -0.443218,-0.15128 -1.006729,-0.375798 -1.006729,-0.401107 0,-0.01278 1.187315,-0.951074 1.276862,-1.009058 0.05398,-0.03495 0.04035,-0.03807 0.610754,0.139749 0.996392,0.310624 1.466352,0.386626 2.39098,0.386669 0.890548,3.6e-5 1.343286,-0.0745 1.920057,-0.316149 0.573373,-0.240222 0.999938,-0.532683 1.44224,-0.988827 0.361881,-0.373205 0.635253,-0.747314 0.839306,-1.148588 0.199748,-0.392809 0.299863,-0.686046 0.377468,-1.105603 0.04547,-0.245824 0.04521,-1.132593 -3.99e-4,-1.393241 -0.129465,-0.73979 -0.466418,-1.589359 -0.934041,-2.355025 -1.09329,-1.790108 -3.081041,-3.266985 -5.469326,-4.063652 -0.552961,-0.184453 -1.221236,-0.35661 -1.70481,-0.439183 -0.45318,-0.07738 -1.169184,-0.128413 -2.136443,-0.1522641 l -0.371635,-0.00916 -0.076,0.1389021 c -0.219626,0.401411 -0.555358,0.671123 -1.023403,0.822155 -0.20075,0.06478 -0.547407,0.08235 -0.75947,0.0385 C 9.4483917,10.854081 8.9535404,10.409782 8.7455969,9.8037249 8.6867769,9.6322924 8.685536,9.6224153 8.6863326,9.3320008 8.6870864,9.0571954 8.6908319,9.024135 8.7372495,8.8825685 8.9354407,8.2781164 9.2912025,7.9108411 9.8619137,7.7215071 c 0.1430603,-0.04746 0.1723003,-0.050739 0.4584213,-0.051393 0.330671,-7.564e-4 0.399656,0.011297 0.677897,0.1184449 0.150359,0.057902 0.361399,0.1877087 0.482998,0.2970842 0.0421,0.037865 0.135674,0.1429851 0.20795,0.2336008 0.09471,0.1187477 0.147844,0.1698428 0.190261,0.1829724 0.03237,0.010019 0.253005,0.0273 0.490305,0.038402 1.360029,0.063627 1.973772,0.1273315 2.78648,0.2892262 1.303425,0.2596475 2.41164,0.6671773 3.625238,1.3331274 0.802166,0.44018 1.587507,1.019174 2.394029,1.765002 0.198074,0.183167 0.89214,0.923727 1.09398,1.16726 0.547093,0.660107 1.065926,1.600835 1.347192,2.442674 0.243849,0.729849 0.339536,1.318772 0.339372,2.088729 -3.04e-4,1.425684 -0.294866,2.36823 -1.025913,3.282739 -0.204067,0.255279 -0.641523,0.68931 -0.915562,0.908392 -0.99314,0.793976 -2.206458,1.308487 -3.473133,1.472794 -0.207315,0.02689 -0.990525,0.0666 -1.182985,0.05998 -0.05438,-0.0019 -0.159548,-0.0057 -0.233705,-0.0085 z"
     id="path1580"
     inkscape:connector-curvature="0" />
  <path
     style="opacity:1;fill:#764abc;fill-opacity:1;stroke:#764abc;stroke-width:0.5;stroke-linecap:butt;stroke-linejoin:bevel;stroke-miterlimit:4;stroke-dasharray:none;stroke-opacity:1;paint-order:normal"
     d="M 5.5383752,23.216447 C 5.3898556,23.204145 5.0452479,23.152272 4.8282722,23.109557 3.6857984,22.88464 2.6927072,22.445854 1.8979737,21.814835 1.6663746,21.630946 1.2948043,21.248717 1.122619,21.01724 0.5637513,20.265927 0.21829475,19.373147 0.07222989,18.302669 0.00933128,17.841698 0.01865231,17.038455 0.09288256,16.522917 0.32845452,14.886841 1.1567913,13.391705 2.538101,12.109332 c 0.4111986,-0.381746 0.887437,-0.772394 0.9820191,-0.80553 0.035593,-0.01247 0.022135,-0.05343 0.2026772,0.616929 0.065241,0.242244 0.1430901,0.523189 0.1729971,0.624323 0.029907,0.101133 0.051727,0.194919 0.048489,0.208413 -0.00324,0.01349 -0.09083,0.09619 -0.1946488,0.183773 -0.8740248,0.737325 -1.4764023,1.493822 -1.9318695,2.426142 -0.2012118,0.411871 -0.3075575,0.727196 -0.4039524,1.197757 -0.091295,0.445666 -0.096935,1.222168 -0.011776,1.621417 0.2409981,1.129873 0.8192022,2.090327 1.6195177,2.690177 0.5212119,0.390657 1.1343383,0.656113 1.8876156,0.817251 0.4843668,0.103614 0.5574303,0.109341 1.3842514,0.1085 0.808425,-8.24e-4 0.8861861,-0.0065 1.3752628,-0.100801 1.2470386,-0.240389 2.4212148,-0.728339 3.6673678,-1.524041 0.814722,-0.520222 1.416745,-1.001852 2.067712,-1.65421 0.696156,-0.697645 1.179528,-1.34481 1.713615,-2.294285 0.05597,-0.09951 0.101767,-0.187127 0.101767,-0.194717 0,-0.0076 -0.048,-0.07988 -0.106673,-0.160651 -0.273072,-0.375923 -0.396352,-0.796112 -0.358393,-1.221549 0.01779,-0.199331 0.05621,-0.341536 0.143606,-0.531457 0.09364,-0.203486 0.198012,-0.344459 0.388687,-0.524976 0.172797,-0.16359 0.330239,-0.265957 0.544001,-0.353702 0.200949,-0.08249 0.321248,-0.102885 0.60224,-0.102125 0.22082,5.97e-4 0.271055,0.0066 0.409672,0.04901 0.47998,0.146833 0.856356,0.452756 1.082246,0.879661 0.15138,0.286088 0.160651,0.330366 0.160887,0.768408 l 2.15e-4,0.386512 -0.05853,0.154122 c -0.206817,0.54461 -0.619421,0.920443 -1.172021,1.067569 -0.09393,0.02501 -0.190547,0.06021 -0.214703,0.07822 -0.02416,0.01801 -0.120096,0.173797 -0.213202,0.346182 -0.447958,0.829379 -0.999421,1.65155 -1.506478,2.245986 -0.21595,0.253164 -0.998377,1.036864 -1.292546,1.29465 -0.96761,0.847935 -2.281571,1.614152 -3.618164,2.10988 -0.6426467,0.238351 -1.8490177,0.545792 -2.5453571,0.64868 -0.3110091,0.04595 -1.5830144,0.08002 -1.9262597,0.05159 z"
     id="path1582"
     inkscape:connector-curvature="0" />
  <path
     style="opacity:1;fill:#764abc;fill-opacity:1;stroke:#764abc;stroke-width:0.5;stroke-linecap:butt;stroke-linejoin:bevel;stroke-miterlimit:4;stroke-dasharray:none;stroke-opacity:1;paint-order:normal"
     d="m 16.271865,23.262943 c -0.589557,-0.105591 -1.284424,-0.301869 -1.998203,-0.564429 -0.602016,-0.221447 -0.622122,-0.233556 -0.539479,-0.324876 0.160969,-0.177869 1.221508,-0.960918 1.301439,-0.960918 0.04382,0 0.304683,0.06926 0.579702,0.15392 1.086989,0.334596 1.922336,0.435873 2.922331,0.3543 0.880715,-0.07184 1.523186,-0.301238 2.212368,-0.78993 0.796392,-0.564714 1.527184,-1.642781 1.72924,-2.550986 0.125753,-0.565236 0.07987,-1.567655 -0.09959,-2.175779 -0.185188,-0.627537 -0.772664,-1.786334 -1.18101,-2.329545 -1.22753,-1.632946 -3.253515,-2.95937 -5.536969,-3.625085 -0.923388,-0.269204 -1.647786,-0.378812 -2.761164,-0.417789 l -0.981503,-0.03436 -0.127132,0.217055 c -0.273572,0.467077 -0.878383,0.791846 -1.476709,0.792957 C 9.688342,11.008643 9.0082351,10.512786 8.7695838,9.8805996 8.4723605,9.0932561 8.8720028,8.1707856 9.6801979,7.7786833 9.8636468,7.6896817 10.006157,7.6640865 10.322713,7.6632864 c 0.538556,-0.00136 0.938065,0.171893 1.293733,0.561051 l 0.247142,0.2704127 0.932952,0.054812 c 2.305708,0.1354632 3.664704,0.4630864 5.356681,1.2913749 1.364297,0.667876 2.374737,1.40622 3.447928,2.519451 0.671778,0.696842 1.029261,1.153281 1.379185,1.760966 0.777878,1.350875 1.083864,2.679244 0.955422,4.147749 -0.0707,0.808346 -0.198608,1.295961 -0.483681,1.843905 -0.815654,1.567791 -2.651665,2.809179 -4.659509,3.15045 -0.601442,0.102226 -1.948591,0.10195 -2.520701,-5.15e-4 z"
     id="path1584"
     inkscape:connector-curvature="0" />
  <path
     style="opacity:1;fill:#764abc;fill-opacity:1;stroke:#764abc;stroke-width:0.6;stroke-linecap:butt;stroke-linejoin:bevel;stroke-miterlimit:4;stroke-dasharray:none;stroke-opacity:1;paint-order:normal"
     d="M 7.8872874,18.631183 C 7.6168817,18.578078 7.2813227,18.396262 7.054605,18.18001 6.5663694,17.714312 6.390193,16.973795 6.6237101,16.368841 L 6.7000961,16.170954 6.324877,15.398067 C 5.4938122,13.686217 5.1023212,12.418216 4.8929086,10.760063 4.8627563,10.521314 4.8460954,10.012476 4.8475837,9.3758115 4.8495777,8.5228879 4.8621749,8.2894345 4.9300391,7.8477418 5.2106878,6.021144 5.7524496,4.59727 6.6058699,3.4432739 7.6600412,2.0178221 9.1955887,1.0193073 10.759759,0.74213958 c 0.504167,-0.0893374 1.457086,-0.0894277 1.941547,-1.8408e-4 1.681036,0.3096672 3.184109,1.4597964 4.168646,3.1897861 0.40977,0.7200319 0.771265,1.6857335 0.951546,2.5419682 0.0789,0.3747351 0.237041,1.3975139 0.237041,1.5330713 0,0.054035 -0.245804,-0.00311 -1.082728,-0.2516979 l -0.34566,-0.1026711 -0.06217,-0.355231 C 16.421312,6.4592107 16.198438,5.7560225 15.842216,5.0073298 15.234039,3.7290912 14.44623,2.8718722 13.446773,2.4008327 12.941565,2.1627305 12.768489,2.1255958 12.072101,2.105886 11.545364,2.0909777 11.409814,2.0990882 11.091496,2.1645592 10.078833,2.3728418 9.0984808,2.8489824 8.4680441,3.4387249 7.6040064,4.24699 6.7924672,5.8310989 6.504017,7.2724685 6.3686642,7.9488184 6.3553227,8.1488319 6.3553227,9.5016526 c 0,1.1415484 0.010117,1.4083844 0.065976,1.7401534 0.2022744,1.201377 0.6508418,2.519406 1.2248895,3.599102 l 0.229394,0.431455 0.2465983,0.02768 c 0.6461102,0.07254 0.9012533,0.172136 1.2368336,0.482824 0.3121724,0.289017 0.4687039,0.620146 0.4927378,1.042346 0.032819,0.576532 -0.1198679,1.002865 -0.4821657,1.346301 -0.4260277,0.403848 -0.9457914,0.565028 -1.4822992,0.459665 z"
     id="path1586"
     inkscape:connector-curvature="0" />
  <path
     style="opacity:1;fill:#764abc;fill-opacity:1;stroke:#764abc;stroke-width:0.031;stroke-linecap:butt;stroke-linejoin:bevel;stroke-miterlimit:4;stroke-dasharray:none;stroke-opacity:1;paint-order:normal"
     d="m 16.455753,23.518755 c -0.8107,-0.102848 -2.638869,-0.67594 -2.859241,-0.896312 -0.06343,-0.06344 -0.115335,-0.157494 -0.115335,-0.209022 0,-0.119478 0.266845,-0.373952 0.81356,-0.775843 0.695569,-0.511314 0.636864,-0.499331 1.403342,-0.286447 0.888537,0.246785 1.050859,0.279175 1.667381,0.332708 0.666207,0.05785 1.563296,-0.0089 2.039446,-0.151806 1.255923,-0.376867 2.286071,-1.384452 2.760889,-2.700416 0.122832,-0.34043 0.133636,-0.433175 0.129169,-1.108793 -0.0038,-0.575976 -0.02835,-0.826287 -0.112176,-1.144067 -0.130417,-0.494411 -0.827663,-1.912929 -1.148788,-2.337158 -1.255707,-1.658885 -3.314741,-2.98601 -5.607875,-3.614488 -0.835082,-0.228871 -1.51249,-0.323925 -2.541255,-0.35659 l -0.852845,-0.02708 -0.154109,0.217711 C 11.529092,10.95394 10.899304,11.239243 10.237842,11.20413 9.7613044,11.178834 9.4694499,11.050338 9.07992,10.69433 8.1672582,9.8602085 8.2759584,8.4666756 9.3100369,7.744237 9.6695963,7.4930379 9.9007566,7.4361545 10.455753,7.4623014 c 0.546001,0.025723 0.856862,0.161304 1.273676,0.5555096 l 0.265134,0.2507524 0.756019,0.049869 c 2.534977,0.1672122 3.98135,0.5322936 5.764493,1.4550257 1.2712,0.6578129 2.308654,1.4442119 3.330654,2.5246599 1.429661,1.511422 2.136164,2.957203 2.314065,4.735479 0.06628,0.662575 -6.96e-4,1.640284 -0.154171,2.250446 -0.484471,1.926068 -2.507893,3.632335 -4.931225,4.158296 -0.450132,0.0977 -2.07674,0.145164 -2.618645,0.07642 z"
     id="path1588"
     inkscape:connector-curvature="0" />
  <path
     style="opacity:1;fill:#764abc;fill-opacity:1;stroke:#764abc;stroke-width:0.00111459;stroke-linecap:butt;stroke-linejoin:bevel;stroke-miterlimit:4;stroke-dasharray:none;stroke-opacity:1;paint-order:normal"
     d="M 7.6597028,18.856551 C 6.7125146,18.53244 6.1162067,17.599475 6.2607598,16.667808 c 0.021679,-0.139723 0.059785,-0.302486 0.08468,-0.361695 0.04282,-0.101839 0.025448,-0.149677 -0.3217503,-0.88598 C 5.2942306,13.873167 4.9367007,12.800251 4.7159695,11.495778 4.5944075,10.777374 4.5688941,10.421656 4.5682318,9.4359616 4.5675618,8.4388034 4.5953587,8.0819315 4.7326517,7.3250469 5.281857,4.2973248 6.8187374,2.0891412 9.151818,0.97560605 9.9319148,0.60328053 10.620239,0.43136325 11.466494,0.397488 c 1.273867,-0.0509924 2.340728,0.23834448 3.366148,0.9129127 1.521914,1.0011846 2.629044,2.6443331 3.162182,4.6931589 0.155879,0.5990343 0.317039,1.5454301 0.321789,1.8896722 0.0033,0.2397883 -0.0042,0.268576 -0.08626,0.3317802 C 18.071836,8.3470624 17.907381,8.3237544 16.941997,8.0424174 16.40604,7.8862264 16.388518,7.8641769 16.250873,7.1727627 16.089379,6.3615457 15.904103,5.805781 15.552096,5.0766652 14.914714,3.7564518 14.043723,2.8930379 12.953355,2.5005311 12.686666,2.4045298 11.602939,2.3641939 11.203801,2.4354136 10.562334,2.549873 9.7261259,2.8858813 9.1744366,3.2508608 8.1087547,3.9558811 7.1608414,5.5795084 6.774836,7.3610015 6.679509,7.8009529 6.677138,7.8421615 6.6624344,9.314456 c -0.01673,1.675161 -0.00501,1.81763 0.223842,2.720143 0.2277893,0.898337 0.5309242,1.709715 0.955448,2.557372 l 0.2091304,0.417576 0.2268904,0.02496 c 0.7084077,0.07793 1.2127531,0.36253 1.5490176,0.874099 0.2112882,0.32144 0.2787972,0.53247 0.3021182,0.944405 0.03527,0.622987 -0.1438451,1.104102 -0.5624409,1.510765 -0.5295114,0.514417 -1.2781031,0.707882 -1.9067373,0.492775 z"
     id="path1590"
     inkscape:connector-curvature="0" />
  <path
     style="opacity:1;fill:#764abc;fill-opacity:1;stroke:#764abc;stroke-width:0;stroke-linecap:butt;stroke-linejoin:bevel;stroke-miterlimit:4;stroke-dasharray:none;stroke-opacity:1;paint-order:normal"
     d="m 16.576439,23.542765 c -0.148312,-0.01591 -0.407185,-0.05691 -0.575273,-0.09112 -0.793576,-0.161518 -2.295333,-0.667726 -2.438318,-0.821902 -0.127378,-0.137349 -0.116591,-0.265753 0.03702,-0.440711 0.150701,-0.17164 1.08125,-0.868541 1.276274,-0.95582 0.171941,-0.07695 0.109491,-0.08654 0.981563,0.150798 1.040107,0.283075 1.743918,0.360816 2.604392,0.287674 0.849901,-0.07224 1.396381,-0.252998 2.020592,-0.668334 0.74292,-0.494322 1.385451,-1.342401 1.687849,-2.227799 0.187767,-0.549767 0.157869,-1.709506 -0.06115,-2.371971 -0.147298,-0.445533 -0.707453,-1.581873 -0.983664,-1.995479 -0.927806,-1.389326 -2.722632,-2.702606 -4.711084,-3.447116 -1.166028,-0.436581 -2.139832,-0.628992 -3.391338,-0.670083 -0.329792,-0.01083 -0.681986,-0.02714 -0.782654,-0.03625 l -0.183033,-0.01656 -0.139916,0.203152 C 11.662983,10.811081 11.236363,11.07952 10.721141,11.194146 9.8928931,11.378409 9.0333379,10.932882 8.6242256,10.107259 8.4915443,9.8394973 8.4750979,9.7764579 8.459351,9.4752908 8.4492301,9.2817241 8.4599874,9.053445 8.484879,8.9335621 8.5983603,8.387015 9.023525,7.8500752 9.5481077,7.5908124 L 9.8312256,7.4508879 H 10.3005 c 0.674239,0 0.969895,0.1153706 1.439983,0.561908 l 0.254397,0.2416523 0.843608,0.058375 c 2.246018,0.1554168 3.510099,0.440679 5.048269,1.139231 1.561444,0.7091218 2.878887,1.6559918 4.022621,2.8911298 0.770352,0.831916 1.133852,1.342086 1.535311,2.154802 0.551221,1.115894 0.787748,2.19839 0.742404,3.397708 -0.02697,0.71327 -0.104849,1.215658 -0.262219,1.691471 -0.622195,1.881235 -2.710964,3.490846 -5.065319,3.90335 -0.339117,0.05942 -1.88615,0.09482 -2.283116,0.05225 z"
     id="path1592"
     inkscape:connector-curvature="0" />
  <path
     style="opacity:1;fill:#764abc;fill-opacity:1;stroke:#764abc;stroke-width:0;stroke-linecap:butt;stroke-linejoin:bevel;stroke-miterlimit:4;stroke-dasharray:none;stroke-opacity:1;paint-order:normal"
     d="M 5.1249048,23.396099 C 3.4977367,23.14652 2.0491676,22.430141 1.1821789,21.446254 -0.16907904,19.912803 -0.57339305,17.501556 0.14973802,15.288987 c 0.26233552,-0.80267 0.75032625,-1.677708 1.34359918,-2.409269 0.4442791,-0.547837 1.5664451,-1.595299 1.886243,-1.760673 0.110035,-0.0569 0.2634985,-0.03481 0.3391865,0.04882 0.059637,0.0659 0.4533417,1.438123 0.4533417,1.580085 0,0.06687 -0.1520869,0.237837 -0.6257658,0.703458 -0.3441711,0.338317 -0.7258225,0.751934 -0.8481142,0.919151 -0.4841183,0.661962 -0.8289959,1.350888 -0.9983998,1.994398 -0.086257,0.327662 -0.095501,0.425657 -0.096912,1.027371 -0.00138,0.587165 0.00823,0.700995 0.081911,0.970774 0.2078064,0.760838 0.543239,1.381125 1.0200132,1.886225 0.5865181,0.621363 1.2010952,0.957479 2.1863593,1.195732 0.3348008,0.08096 0.475174,0.0932 1.2404331,0.108184 0.7715663,0.0151 0.9123878,0.0085 1.3303195,-0.06202 1.4326316,-0.24187 2.8807413,-0.884085 4.3697243,-1.937909 0.475155,-0.33629 1.034193,-0.82717 1.544804,-1.356464 0.506188,-0.524708 0.858075,-0.974965 1.209051,-1.547039 0.131617,-0.214529 0.268942,-0.433306 0.305165,-0.486171 0.06551,-0.09561 0.0652,-0.09722 -0.05899,-0.303448 -0.212903,-0.35356 -0.278674,-0.569015 -0.296426,-0.971039 -0.02689,-0.608941 0.142195,-1.02654 0.586538,-1.448623 0.530675,-0.504089 1.17537,-0.664587 1.831982,-0.456074 0.54431,0.172851 0.952465,0.527512 1.203902,1.046117 0.132782,0.273872 0.140324,0.308393 0.157586,0.721343 0.01631,0.390116 0.0097,0.457965 -0.06621,0.675088 -0.111975,0.320452 -0.267156,0.555004 -0.525338,0.794035 -0.210027,0.194448 -0.569633,0.395988 -0.782534,0.438568 -0.140042,0.02801 -0.160722,0.0541 -0.452471,0.570924 -0.606931,1.075156 -1.123139,1.766515 -1.942554,2.601666 -1.071987,1.092573 -1.899923,1.699021 -3.228314,2.364679 -1.028247,0.515256 -1.9840829,0.833001 -3.3525491,1.114476 -0.7693889,0.158253 -2.101956,0.198011 -2.840412,0.08474 z"
     id="path1594"
     inkscape:connector-curvature="0" />
  <path
     style="opacity:1;fill:#764abc;fill-opacity:1;stroke:#764abc;stroke-width:0;stroke-linecap:butt;stroke-linejoin:bevel;stroke-miterlimit:4;stroke-dasharray:none;stroke-opacity:1;paint-order:normal"
     d="M 7.7693609,18.867316 C 7.3218818,18.744732 6.895819,18.454883 6.6361149,18.096372 6.3181742,17.657467 6.2480706,17.368933 6.2956307,16.695 l 0.041775,-0.591954 -0.4348143,-0.95933 C 4.8755011,12.877649 4.4727654,10.978561 4.5751164,8.8840473 4.7256568,5.8033822 5.9054412,3.2581054 7.8684843,1.778908 9.0735319,0.87087743 10.093648,0.48843801 11.459861,0.43250775 c 1.131001,-0.0463011 1.769191,0.0777882 2.699839,0.52495559 2.121994,1.01959776 3.628924,3.30717766 4.047239,6.14387026 0.04374,0.2966253 0.09409,0.6289808 0.111877,0.7385668 0.04496,0.2769416 -0.184344,0.5017181 -0.451139,0.442232 C 17.21413,8.1364142 16.479591,7.8734482 16.422208,7.7646532 16.386237,7.6964524 16.317283,7.4464976 16.268977,7.2091973 16.022731,5.9995068 15.412733,4.6179516 14.778702,3.8339437 14.340555,3.2921561 13.663267,2.7734769 13.127968,2.5697814 12.791536,2.4417608 12.553902,2.4096379 11.918289,2.4062599 11.235897,2.4026335 11.048299,2.4292174 10.552015,2.5998715 9.6625322,2.9057317 9.160099,3.2038744 8.604754,3.7553715 7.8281697,4.526575 7.2055937,5.6883096 6.8491701,7.0313128 6.7122411,7.547261 6.6822567,7.8831199 6.6535348,9.2226539 6.6233422,10.630774 6.63614,10.88486 6.7699712,11.534372 c 0.1753126,0.85083 0.5315372,1.909139 0.9503371,2.82336 l 0.2965919,0.647446 0.3327381,0.04752 c 0.7535882,0.10763 1.3781289,0.551769 1.6467252,1.171061 0.1726885,0.398159 0.1468035,1.189049 -0.052666,1.609169 -0.3767012,0.793404 -1.3550415,1.258824 -2.1743361,1.034385 z"
     id="path1596"
     inkscape:connector-curvature="0" />
</svg>
