<?xml version="1.0" encoding="UTF-8" standalone="no"?>
<svg
   xmlns:dc="http://purl.org/dc/elements/1.1/"
   xmlns:cc="http://creativecommons.org/ns#"
   xmlns:rdf="http://www.w3.org/1999/02/22-rdf-syntax-ns#"
   xmlns:svg="http://www.w3.org/2000/svg"
   xmlns="http://www.w3.org/2000/svg"
   xmlns:sodipodi="http://sodipodi.sourceforge.net/DTD/sodipodi-0.dtd"
   xmlns:inkscape="http://www.inkscape.org/namespaces/inkscape"
   role="img"
   viewBox="0 0 24 24"
   version="1.1"
   id="svg881"
   sodipodi:docname="typescript.svg"
   inkscape:version="0.92.5 (2060ec1f9f, 2020-04-08)">
  <metadata
     id="metadata887">
    <rdf:RDF>
      <cc:Work
         rdf:about="">
        <dc:format>image/svg+xml</dc:format>
        <dc:type
           rdf:resource="http://purl.org/dc/dcmitype/StillImage" />
      </cc:Work>
    </rdf:RDF>
  </metadata>
  <defs
     id="defs885" />
  <sodipodi:namedview
     pagecolor="#ffffff"
     bordercolor="#666666"
     borderopacity="1"
     objecttolerance="10"
     gridtolerance="10"
     guidetolerance="10"
     inkscape:pageopacity="0"
     inkscape:pageshadow="2"
     inkscape:window-width="1920"
     inkscape:window-height="1023"
     id="namedview883"
     showgrid="false"
     inkscape:zoom="17.3125"
     inkscape:cx="9.276612"
     inkscape:cy="11.935528"
     inkscape:window-x="0"
     inkscape:window-y="1080"
     inkscape:window-maximized="1"
     inkscape:current-layer="svg881" />
  <title
     id="title877">TypeScript</title>
  <path
     d="M1.125 0C.502 0 0 .502 0 1.125v21.75C0 23.498.502 24 1.125 24h21.75c.623 0 1.125-.502 1.125-1.125V1.125C24 .502 23.498 0 22.875 0zm17.363 9.75c.612 0 1.154.037 1.627.111a6.38 6.38 0 0 1 1.306.34v2.458a3.95 3.95 0 0 0-.643-.361 5.093 5.093 0 0 0-.717-.26 5.453 5.453 0 0 0-1.426-.2c-.3 0-.573.028-.819.086a2.1 2.1 0 0 0-.623.242c-.17.104-.3.229-.393.374a.888.888 0 0 0-.14.49c0 .196.053.373.156.529.104.156.252.304.443.444s.423.276.696.41c.273.135.582.274.926.416.47.197.892.407 1.266.628.374.222.695.473.963.753.268.279.472.598.614.957.142.359.214.776.214 1.253 0 .657-.125 1.21-.373 1.656a3.033 3.033 0 0 1-1.012 1.085 4.38 4.38 0 0 1-1.487.596c-.566.12-1.163.18-1.79.18a9.916 9.916 0 0 1-1.84-.164 5.544 5.544 0 0 1-1.512-.493v-2.63a5.033 5.033 0 0 0 3.237 1.2c.333 0 .624-.03.872-.09.249-.06.456-.144.623-.25.166-.108.29-.234.373-.38a1.023 1.023 0 0 0-.074-1.089 2.12 2.12 0 0 0-.537-.5 5.597 5.597 0 0 0-.807-.444 27.72 27.72 0 0 0-1.007-.436c-.918-.383-1.602-.852-2.053-1.405-.45-.553-.676-1.222-.676-2.005 0-.614.123-1.141.369-1.582.246-.441.58-.804 1.004-1.089a4.494 4.494 0 0 1 1.47-.629 7.536 7.536 0 0 1 1.77-.201zm-15.113.188h9.563v2.166H9.506v9.646H6.789v-9.646H3.375z"
     id="path879" />
  <path
     style="opacity:1;fill:#3178c6;fill-opacity:0;stroke:#764abc;stroke-width:0;stroke-linecap:butt;stroke-linejoin:bevel;stroke-miterlimit:4;stroke-dasharray:none;stroke-opacity:1;paint-order:normal"
     d="M 0.77795454,23.921012 C 0.53658017,23.846656 0.24591828,23.589761 0.12284529,23.342007 L 0.02605757,23.147167 V 11.996833 0.84649934 L 0.12244948,0.66270263 C 0.25398807,0.41188948 0.39701348,0.26656406 0.63871326,0.13813673 L 0.84293183,0.02962508 11.910071,0.01904603 c 9.750243,-0.00932023 11.092279,-0.0032703 11.278422,0.05084301 0.299304,0.08701004 0.599252,0.36554357 0.70872,0.65812171 l 0.08427,0.22522755 -0.0105,11.1173867 -0.0105,11.117385 -0.08845,0.165211 c -0.04865,0.09087 -0.170968,0.241268 -0.271817,0.334227 -0.351369,0.32388 0.696867,0.297354 -11.62456,0.29417 -9.3685579,-0.0024 -11.0381356,-0.01146 -11.19768646,-0.06061 z M 18.80661,21.825273 c 1.62936,-0.292854 2.695647,-1.140029 3.039993,-2.415306 0.05551,-0.205567 0.07168,-0.4268 0.07168,-0.980249 0,-0.635113 -0.01066,-0.748902 -0.09565,-1.021093 -0.143946,-0.460999 -0.355912,-0.830018 -0.669871,-1.166202 -0.541357,-0.579681 -1.027311,-0.87941 -2.469748,-1.523306 -1.006246,-0.449183 -1.522117,-0.76181 -1.76582,-1.070118 -0.459459,-0.581259 -0.23595,-1.249431 0.531001,-1.587403 0.23907,-0.105351 0.826743,-0.207716 1.192489,-0.207716 0.840415,0 1.952369,0.303564 2.592656,0.707797 0.09503,0.05999 0.182329,0.109077 0.194008,0.109077 0.01168,0 0.02123,-0.559081 0.02123,-1.242403 v -1.242403 l -0.255273,-0.08306 c -0.691,-0.2248541 -1.316228,-0.3232846 -2.27703,-0.3584816 -1.106476,-0.040533 -2.068152,0.091197 -2.838638,0.3888386 -1.083013,0.418372 -1.824626,1.189068 -2.109905,2.192649 -0.121552,0.427608 -0.130743,1.314459 -0.01818,1.753968 0.1676,0.654389 0.568435,1.267892 1.11554,1.707403 0.507479,0.407678 0.829008,0.586978 1.808994,1.008778 1.169335,0.503298 1.69267,0.809534 1.977541,1.157181 0.18824,0.229722 0.268863,0.428969 0.268863,0.664451 0,0.766173 -0.706296,1.200729 -1.951579,1.200729 -1.051678,0 -2.138264,-0.354927 -2.945338,-0.962077 -0.162591,-0.122315 -0.303599,-0.222391 -0.313349,-0.222391 -0.0098,0 -0.01773,0.598351 -0.01773,1.329669 v 1.329668 l 0.21443,0.09445 c 0.915314,0.40317 1.851758,0.556629 3.277708,0.53713 0.735536,-0.01006 1.044132,-0.03167 1.421974,-0.09958 z M 9.5222208,16.959344 v -4.819558 h 1.7154362 1.715436 V 11.037006 9.9342255 H 8.1539565 3.3548202 v 1.1027805 1.10278 h 1.7154359 1.715436 v 4.819558 4.819558 h 1.3682644 1.3682643 z"
     id="path889"
     inkscape:connector-curvature="0" />
  <path
     style="opacity:1;fill:#3178c6;fill-opacity:0;stroke:#764abc;stroke-width:0;stroke-linecap:butt;stroke-linejoin:bevel;stroke-miterlimit:4;stroke-dasharray:none;stroke-opacity:1;paint-order:normal"
     d="M 0.80136449,23.928229 C 0.57314856,23.846438 0.37628624,23.711273 0.25634391,23.554021 0.01312764,23.235148 0.02862325,24.067572 0.04006611,11.935567 0.0503616,1.0200255 0.05208738,0.80258491 0.12966727,0.6462262 0.23705468,0.42979173 0.45408996,0.22081039 0.67999029,0.11632504 L 0.86743805,0.02962508 H 12.000238 23.133037 l 0.24042,0.12295532 c 0.266983,0.13653976 0.480614,0.37941965 0.548394,0.62347399 0.02863,0.10307503 0.04232,3.73525941 0.04248,11.26381361 l 2.45e-4,11.111682 -0.105285,0.211279 c -0.113701,0.228167 -0.258586,0.369792 -0.523036,0.511266 l -0.168149,0.08995 -11.10949,0.0086 c -9.0140915,0.007 -11.13735923,-0.0014 -11.25725051,-0.04438 z M 18.394643,21.88125 c 1.211338,-0.149966 2.045943,-0.501328 2.669265,-1.123738 0.16889,-0.168644 0.376468,-0.425959 0.461283,-0.571812 0.515454,-0.886404 0.574588,-2.261492 0.137571,-3.199058 -0.415458,-0.891315 -1.251203,-1.533243 -2.905778,-2.231901 -0.763266,-0.322296 -1.352672,-0.650995 -1.640876,-0.915081 -0.316206,-0.289746 -0.419937,-0.487682 -0.419937,-0.801312 0,-0.523275 0.372797,-0.891111 1.105897,-1.091181 0.360841,-0.09848 1.314677,-0.09715 1.787097,0.0025 0.660464,0.139301 1.336588,0.397771 1.686013,0.644531 0.05963,0.04211 0.119361,0.07656 0.132742,0.07656 0.01338,-10e-7 0.02433,-0.559072 0.02433,-1.24238 v -1.242379 l -0.318681,-0.10613 C 19.87575,9.6676371 17.903566,9.6212746 16.567579,9.9730006 c -1.270834,0.3345734 -2.190746,1.1227544 -2.552761,2.1872104 -0.09614,0.28269 -0.113625,0.409745 -0.129659,0.942255 -0.01605,0.532927 -0.0069,0.661702 0.0684,0.959828 0.245943,0.974136 0.854128,1.684366 1.964791,2.294452 0.146017,0.08021 0.596318,0.28673 1.000671,0.458942 0.939658,0.400194 1.430658,0.671191 1.755674,0.969009 0.325283,0.298063 0.445039,0.532077 0.444065,0.867747 -0.0021,0.73328 -0.717943,1.163429 -1.939115,1.165254 -1.141791,0.0017 -2.187515,-0.364861 -3.150316,-1.104308 l -0.112321,-0.08626 v 1.333389 1.333389 l 0.255274,0.115639 c 0.506277,0.229345 1.174718,0.392783 1.991131,0.486846 0.511181,0.05889 1.698301,0.05084 2.231234,-0.01514 z M 9.5058834,16.959344 v -4.819558 h 1.7154356 1.715436 V 11.037006 9.9342255 H 8.136952 3.3371484 l 0.010878,1.0925695 0.010878,1.092569 1.7052251,0.01066 1.705225,0.01066 v 4.81911 4.81911 H 8.137619 9.5058834 Z"
     id="path891"
     inkscape:connector-curvature="0" />
  <path
     style="opacity:1;fill:#3178c6;fill-opacity:1;stroke:#3178c6;stroke-width:0;stroke-linecap:butt;stroke-linejoin:bevel;stroke-miterlimit:4;stroke-dasharray:none;stroke-opacity:0.97354496;paint-order:normal"
     d="M 0.80136449,23.928229 C 0.57314856,23.846438 0.37628624,23.711273 0.25634391,23.554021 0.01312764,23.235148 0.02862325,24.067572 0.04006611,11.935567 0.0503616,1.0200255 0.05208738,0.80258491 0.12966727,0.6462262 0.23705468,0.42979173 0.45408996,0.22081039 0.67999029,0.11632504 L 0.86743805,0.02962508 H 12.000238 23.133037 l 0.24042,0.12295532 c 0.266983,0.13653976 0.480614,0.37941965 0.548394,0.62347399 0.02863,0.10307503 0.04232,3.73525941 0.04248,11.26381361 l 2.45e-4,11.111682 -0.105285,0.211279 c -0.113701,0.228167 -0.258586,0.369792 -0.523036,0.511266 l -0.168149,0.08995 -11.10949,0.0086 c -9.0140915,0.007 -11.13735923,-0.0014 -11.25725051,-0.04438 z M 18.394643,21.88125 c 1.211338,-0.149966 2.045943,-0.501328 2.669265,-1.123738 0.16889,-0.168644 0.376468,-0.425959 0.461283,-0.571812 0.515454,-0.886404 0.574588,-2.261492 0.137571,-3.199058 -0.415458,-0.891315 -1.251203,-1.533243 -2.905778,-2.231901 -0.763266,-0.322296 -1.352672,-0.650995 -1.640876,-0.915081 -0.316206,-0.289746 -0.419937,-0.487682 -0.419937,-0.801312 0,-0.523275 0.372797,-0.891111 1.105897,-1.091181 0.360841,-0.09848 1.314677,-0.09715 1.787097,0.0025 0.660464,0.139301 1.336588,0.397771 1.686013,0.644531 0.05963,0.04211 0.119361,0.07656 0.132742,0.07656 0.01338,-10e-7 0.02433,-0.559072 0.02433,-1.24238 v -1.242379 l -0.318681,-0.10613 C 19.87575,9.6676371 17.903566,9.6212746 16.567579,9.9730006 c -1.270834,0.3345734 -2.190746,1.1227544 -2.552761,2.1872104 -0.09614,0.28269 -0.113625,0.409745 -0.129659,0.942255 -0.01605,0.532927 -0.0069,0.661702 0.0684,0.959828 0.245943,0.974136 0.854128,1.684366 1.964791,2.294452 0.146017,0.08021 0.596318,0.28673 1.000671,0.458942 0.939658,0.400194 1.430658,0.671191 1.755674,0.969009 0.325283,0.298063 0.445039,0.532077 0.444065,0.867747 -0.0021,0.73328 -0.717943,1.163429 -1.939115,1.165254 -1.141791,0.0017 -2.187515,-0.364861 -3.150316,-1.104308 l -0.112321,-0.08626 v 1.333389 1.333389 l 0.255274,0.115639 c 0.506277,0.229345 1.174718,0.392783 1.991131,0.486846 0.511181,0.05889 1.698301,0.05084 2.231234,-0.01514 z M 9.5058834,16.959344 v -4.819558 h 1.7154356 1.715436 V 11.037006 9.9342255 H 8.136952 3.3371484 l 0.010878,1.0925695 0.010878,1.092569 1.7052251,0.01066 1.705225,0.01066 v 4.81911 4.81911 H 8.137619 9.5058834 Z"
     id="path893"
     inkscape:connector-curvature="0" />
  <path
     style="opacity:1;fill:#3178c6;fill-opacity:1;stroke:#3178c6;stroke-width:0;stroke-linecap:butt;stroke-linejoin:bevel;stroke-miterlimit:4;stroke-dasharray:none;stroke-opacity:0.97354497;paint-order:normal"
     d="m 7.9139525,22.879914 v -1.093613 h 0.7964524 0.7964524 v -4.543863 -4.543863 h 2.1968237 2.196823 l -0.0066,0.07913 c -0.0036,0.04352 -0.0094,0.256039 -0.01291,0.472256 -0.0072,0.445837 -6.19e-4,0.528286 0.06219,0.78372 0.210976,0.858066 0.691394,1.504069 1.531953,2.059973 0.368325,0.243593 0.608344,0.36404 1.475479,0.740434 1.041403,0.452038 1.459487,0.691717 1.797575,1.030514 0.141167,0.141463 0.208837,0.229944 0.269952,0.352975 0.06899,0.138879 0.09105,0.242896 0.09094,0.428859 -1.23e-4,0.221075 -0.04129,0.364984 -0.151973,0.531337 -0.321813,0.483656 -1.178287,0.714282 -2.271979,0.611784 -0.921617,-0.08637 -1.783524,-0.43066 -2.592955,-1.035755 -0.09026,-0.06748 -0.16868,-0.122682 -0.174264,-0.122682 -0.01193,0 -0.01425,2.643384 -0.0023,2.660532 0.0106,0.01526 0.381119,0.17832 0.531296,0.233816 0.405413,0.149815 0.9095,0.266475 1.498164,0.346717 0.3635,0.04955 0.674826,0.0671 1.189379,0.06705 0.730623,-7.2e-5 1.178947,-0.03055 1.649065,-0.112107 1.216481,-0.211036 2.035309,-0.668196 2.624258,-1.465149 0.13261,-0.179444 0.21186,-0.325039 0.302299,-0.555371 0.16563,-0.42183 0.243936,-0.862965 0.243936,-1.374218 0,-1.29269 -0.510246,-2.177867 -1.682343,-2.918537 -0.390101,-0.246512 -0.851867,-0.47895 -1.52626,-0.768269 -0.164368,-0.07052 -0.450483,-0.203687 -0.635812,-0.295937 -0.531047,-0.264337 -0.835018,-0.460088 -1.062192,-0.684034 -0.177422,-0.1749 -0.260444,-0.29832 -0.31277,-0.464958 -0.0214,-0.06814 -0.02393,-0.09572 -0.02393,-0.260018 0,-0.165087 0.0025,-0.191853 0.02446,-0.262932 l 0.02446,-0.07913 h 3.597865 3.597865 v 5.23383 5.23383 l -0.06606,0.12946 c -0.09005,0.176483 -0.138908,0.248747 -0.229495,0.339438 -0.09662,0.09673 -0.172869,0.150758 -0.348759,0.247111 l -0.138869,0.07607 -7.629094,0.0076 -7.6290945,0.0076 z"
     id="path895"
     inkscape:connector-curvature="0" />
  <path
     style="opacity:1;fill:#3178c6;fill-opacity:1;stroke:#3178c6;stroke-width:0.37795276;stroke-linecap:butt;stroke-linejoin:bevel;stroke-miterlimit:4;stroke-dasharray:none;stroke-opacity:0.97354497;paint-order:normal"
     d="M 1.8985423,23.944717 0.81550983,23.927818 0.6503812,23.846729 C 0.48706359,23.76653 0.27363378,23.583848 0.18549009,23.448811 0.06924153,23.270718 0.06925275,23.271571 0.05860248,13.805074 0.05296424,8.7935218 0.05934678,3.8016627 0.07278589,2.7120543 L 0.09722064,0.73094779 0.17234522,0.60275738 C 0.27601988,0.42584994 0.50004962,0.22376072 0.70994986,0.11780341 L 0.88606484,0.02890086 H 11.992303 23.09854 l 0.194225,0.09801565 c 0.251388,0.12686309 0.434787,0.29063073 0.541769,0.48377765 l 0.08567,0.15466879 0.01822,3.55234655 c 0.01002,1.9537906 0.01977,6.9870135 0.02166,11.1849395 l 0.0034,7.632592 -0.08828,0.174885 c -0.117899,0.233558 -0.281419,0.405032 -0.513934,0.538938 l -0.19197,0.110577 -10.093862,9.88e-4 C 7.5238131,23.961172 2.4942102,23.954012 1.8985423,23.944717 Z M 18.475019,21.874362 c 1.421705,-0.183939 2.418376,-0.721633 3.008083,-1.622831 0.348206,-0.532134 0.527681,-1.362874 0.460813,-2.132974 -0.132195,-1.522434 -0.92687,-2.383474 -3.060877,-3.316492 -0.620172,-0.271148 -1.16312,-0.545911 -1.439656,-0.728549 -0.252235,-0.166588 -0.532864,-0.437186 -0.637813,-0.615012 -0.06924,-0.117316 -0.0767,-0.15807 -0.0767,-0.418773 0,-0.260446 0.0075,-0.301572 0.07652,-0.418772 0.166801,-0.28332 0.471806,-0.497788 0.905435,-0.636667 0.173404,-0.05554 0.284797,-0.06668 0.782986,-0.0783 0.359508,-0.0084 0.67864,-6.64e-4 0.837545,0.02027 0.629117,0.08287 1.421637,0.353351 1.875855,0.640215 0.103758,0.06553 0.197785,0.110013 0.208948,0.09885 0.01116,-0.01116 0.02489,-0.575509 0.0305,-1.254109 l 0.0102,-1.233817 -0.34233,-0.106152 c -0.43205,-0.1339681 -0.615672,-0.1753607 -1.136563,-0.2562023 -0.367012,-0.05696 -0.531218,-0.065103 -1.32852,-0.065879 -0.723946,-7.047e-4 -0.980529,0.00955 -1.256318,0.050214 -1.207943,0.1781066 -2.020322,0.5415163 -2.658227,1.1891333 -0.363685,0.369223 -0.611724,0.784183 -0.768618,1.285873 -0.06354,0.20317 -0.06772,0.261395 -0.06736,0.938628 3.67e-4,0.706014 0.0021,0.727656 0.07971,0.976156 0.162795,0.521491 0.390191,0.905221 0.771241,1.30147 0.483314,0.502592 0.917086,0.775727 1.984122,1.249352 1.312837,0.582729 1.698032,0.802164 2.034837,1.159196 0.265493,0.281436 0.325572,0.418395 0.326115,0.743429 5.31e-4,0.317562 -0.05839,0.46763 -0.264552,0.673791 -0.285866,0.285866 -0.776916,0.449804 -1.451703,0.484654 -1.101359,0.05688 -2.265837,-0.302074 -3.191336,-0.983743 -0.111191,-0.0819 -0.218412,-0.158724 -0.238267,-0.170727 -0.02868,-0.01733 -0.0361,0.254008 -0.0361,1.319264 v 1.341088 l 0.295421,0.122603 c 0.616334,0.255784 1.359643,0.425321 2.159452,0.492535 0.391345,0.03289 1.715988,0.0029 2.107163,-0.04772 z M 9.4997108,17.523487 c -0.00492,-2.33899 -2.599e-4,-4.502787 0.010367,-4.808438 l 0.019307,-0.555729 1.7080442,-0.0074 1.708045,-0.0074 0.0076,-1.104693 0.0076,-1.104693 H 8.1328721 3.3051436 l 0.018548,0.238267 c 0.010201,0.131047 0.018626,0.62491 0.018721,1.097473 l 1.73e-4,0.859206 0.7725632,5.8e-5 c 0.4249098,2.6e-5 1.1916968,0.0086 1.7039711,0.01911 l 0.931408,0.01906 v 4.803997 4.803997 h 1.3790614 l 1.3790613,10e-7 -0.00894,-4.252708 z"
     id="path901"
     inkscape:connector-curvature="0" />
</svg>
