<?xml version="1.0" encoding="UTF-8" standalone="no"?>
<svg
   xmlns:dc="http://purl.org/dc/elements/1.1/"
   xmlns:cc="http://creativecommons.org/ns#"
   xmlns:rdf="http://www.w3.org/1999/02/22-rdf-syntax-ns#"
   xmlns:svg="http://www.w3.org/2000/svg"
   xmlns="http://www.w3.org/2000/svg"
   xmlns:sodipodi="http://sodipodi.sourceforge.net/DTD/sodipodi-0.dtd"
   xmlns:inkscape="http://www.inkscape.org/namespaces/inkscape"
   role="img"
   viewBox="0 0 24 24"
   version="1.1"
   id="svg6"
   sodipodi:docname="webpack-8DD5F2-05-177FBF-02.svg"
   inkscape:version="0.92.5 (2060ec1f9f, 2020-04-08)">
  <metadata
     id="metadata12">
    <rdf:RDF>
      <cc:Work
         rdf:about="">
        <dc:format>image/svg+xml</dc:format>
        <dc:type
           rdf:resource="http://purl.org/dc/dcmitype/StillImage" />
        <dc:title>Webpack</dc:title>
      </cc:Work>
    </rdf:RDF>
  </metadata>
  <defs
     id="defs10" />
  <sodipodi:namedview
     pagecolor="#ffffff"
     bordercolor="#666666"
     borderopacity="1"
     objecttolerance="10"
     gridtolerance="10"
     guidetolerance="10"
     inkscape:pageopacity="0"
     inkscape:pageshadow="2"
     inkscape:window-width="1920"
     inkscape:window-height="1023"
     id="namedview8"
     showgrid="false"
     inkscape:zoom="6.9532167"
     inkscape:cx="-7.673701"
     inkscape:cy="10.580337"
     inkscape:window-x="0"
     inkscape:window-y="1080"
     inkscape:window-maximized="1"
     inkscape:current-layer="svg6" />
  <title
     id="title2">Webpack</title>
  <path
     d="M22.1987 18.498l-9.7699 5.5022v-4.2855l6.0872-3.3338 3.6826 2.117zm.6683-.6026V6.3884l-3.5752 2.0544v7.396zm-21.0657.6026l9.7699 5.5022v-4.2855L5.484 16.3809l-3.6826 2.117zm-.6683-.6026V6.3884l3.5751 2.0544v7.396zm.4183-12.2515l10.0199-5.644v4.1434L5.152 7.6586l-.0489.028zm20.8975 0l-10.02-5.644v4.1434l6.4192 3.5154.0489.028 3.5518-2.0427zm-10.8775 13.096l-6.0056-3.2873V8.9384l6.0054 3.4525v6.349zm.8575 0l6.0053-3.2873V8.9384l-6.0053 3.4525zM5.9724 8.1845l6.0287-3.3015L18.03 8.1845l-6.0288 3.4665z"
     id="path4" />
  <path
     style="opacity:1;fill:#8dd5f2;fill-opacity:1;stroke:#61dafb;stroke-width:0.02542373;stroke-linecap:butt;stroke-linejoin:bevel;stroke-miterlimit:4;stroke-dasharray:none;stroke-opacity:1;paint-order:normal"
     d="m 15.664242,5.8918083 -3.214699,-1.7594655 -0.0014,-2.0507572 -0.0014,-2.0507573 0.165254,0.09957075 c 0.09089,0.0547639 2.29322,1.29550675 4.894068,2.75720625 2.600847,1.4616996 4.757887,2.6842428 4.793421,2.7167633 0.05039,0.046113 -0.313366,0.2758236 -1.652542,1.043583 -0.944433,0.5414507 -1.728591,0.9887004 -1.742574,0.9938889 -0.01398,0.00519 -1.472039,-0.7823263 -3.240124,-1.7500322 z"
     id="path822"
     inkscape:connector-curvature="0" />
  <path
     style="opacity:1;fill:#8dd5f2;fill-opacity:1;stroke:#61dafb;stroke-width:0.02542373;stroke-linecap:butt;stroke-linejoin:bevel;stroke-miterlimit:4;stroke-dasharray:none;stroke-opacity:1;paint-order:normal"
     d="m 21.05362,16.82535 -1.740575,-0.998092 8.1e-5,-3.686441 8.2e-5,-3.6864403 1.740494,-0.9975877 1.740494,-0.9975878 0.01314,2.8408081 c 0.0072,1.5624447 0.0072,4.1193987 0,5.6821207 l -0.01314,2.841312 z"
     id="path824"
     inkscape:connector-curvature="0" />
  <path
     style="opacity:1;fill:#8dd5f2;fill-opacity:1;stroke:#61dafb;stroke-width:0.02542373;stroke-linecap:butt;stroke-linejoin:bevel;stroke-miterlimit:4;stroke-dasharray:none;stroke-opacity:1;paint-order:normal"
     d="m 12.446739,21.839815 v -2.106087 l 3.034115,-1.661393 3.034115,-1.661393 1.30063,0.747263 c 0.715347,0.410996 1.523489,0.874582 1.795871,1.030193 0.272382,0.15561 0.495341,0.294369 0.495465,0.308352 1.96e-4,0.0222 -9.497336,5.388014 -9.615047,5.432203 -0.02585,0.0097 -0.04515,-0.883465 -0.04515,-2.089138 z"
     id="path826"
     inkscape:connector-curvature="0" />
  <path
     style="opacity:1;fill:#8dd5f2;fill-opacity:1;stroke:#61dafb;stroke-width:0.02542373;stroke-linecap:butt;stroke-linejoin:bevel;stroke-miterlimit:4;stroke-dasharray:none;stroke-opacity:1;paint-order:normal"
     d="M 6.726927,21.242281 C 4.0984035,19.761945 1.9410257,18.530459 1.9327541,18.505644 c -0.00827,-0.02482 0.7873251,-0.506669 1.7679924,-1.070786 l 1.7830316,-1.025669 2.9857176,1.634075 c 1.6421443,0.898741 3.0031353,1.650141 3.0244253,1.669776 0.02129,0.01964 0.03273,0.977339 0.02542,2.128231 l -0.01328,2.09253 z"
     id="path828"
     inkscape:connector-curvature="0" />
  <path
     style="opacity:1;fill:#8dd5f2;fill-opacity:1;stroke:#61dafb;stroke-width:0.02542373;stroke-linecap:butt;stroke-linejoin:bevel;stroke-miterlimit:4;stroke-dasharray:none;stroke-opacity:1;paint-order:normal"
     d="m 1.158603,12.140817 c 0,-3.1355039 0.017161,-5.6917109 0.038136,-5.6804595 0.020975,0.011251 0.8103813,0.4634915 1.7542372,1.004978 l 1.7161017,0.9845209 v 3.6920586 3.692057 L 2.9509762,16.817606 C 2.0071203,17.358605 1.2177135,17.810351 1.196739,17.821487 1.175764,17.832627 1.158603,15.276322 1.158603,12.140817 Z"
     id="path830"
     inkscape:connector-curvature="0" />
  <path
     style="opacity:1;fill:#8dd5f2;fill-opacity:1;stroke:#8dd5f2;stroke-width:0.02542373;stroke-linecap:butt;stroke-linejoin:bevel;stroke-miterlimit:4;stroke-dasharray:none;stroke-opacity:1;paint-order:normal"
     d="M 3.3610386,6.6575603 C 2.4050053,6.1076735 1.6384798,5.6427925 1.6576487,5.6244915 1.7032936,5.5809122 11.355304,0.14669635 11.45504,0.10842401 11.52228,0.08262174 11.53148,0.32332546 11.53148,2.1075317 V 4.1359736 L 8.5187725,5.7852523 C 6.8617809,6.6923557 5.4145352,7.4846664 5.3026708,7.5459427 L 5.0992809,7.657354 Z"
     id="path832"
     inkscape:connector-curvature="0" />
  <path
     style="opacity:1;fill:#8dd5f2;fill-opacity:1;stroke:#8dd5f2;stroke-width:0.02542373;stroke-linecap:butt;stroke-linejoin:bevel;stroke-miterlimit:4;stroke-dasharray:none;stroke-opacity:1;paint-order:normal"
     d="m 15.675552,5.8663159 -3.20339,-1.7489132 -0.0133,-2.0137164 c -0.0073,-1.10754398 -0.0022,-2.01371635 0.0114,-2.01371635 0.02123,0 8.487275,4.76389875 9.446808,5.31578035 0.188771,0.108573 0.34322,0.2117141 0.34322,0.2292025 0,0.044661 -3.291779,1.9807902 -3.366977,1.9803585 -0.0079,-4.58e-5 -1.455904,-0.7870937 -3.217769,-1.7489954 z"
     id="path834"
     inkscape:connector-curvature="0" />
  <path
     style="opacity:1;fill:#8dd5f2;fill-opacity:1;stroke:#8dd5f2;stroke-width:0.02542373;stroke-linecap:butt;stroke-linejoin:bevel;stroke-miterlimit:4;stroke-dasharray:none;stroke-opacity:1;paint-order:normal"
     d="m 21.039959,16.793586 -1.70339,-0.983008 V 12.140861 8.4711434 l 1.716102,-0.984922 1.716101,-0.984922 v 5.6417926 c 0,3.102986 -0.0057,5.639928 -0.01271,5.637648 -0.007,-0.0023 -0.779238,-0.4465 -1.716102,-0.987154 z"
     id="path836"
     inkscape:connector-curvature="0" />
  <path
     style="opacity:1;fill:#8dd5f2;fill-opacity:1;stroke:#8dd5f2;stroke-width:0.02542373;stroke-linecap:butt;stroke-linejoin:bevel;stroke-miterlimit:4;stroke-dasharray:none;stroke-opacity:1;paint-order:normal"
     d="m 12.474201,22.550183 c -0.01915,-0.733202 -0.02745,-1.663352 -0.01843,-2.067001 l 0.01639,-0.733907 2.949153,-1.617082 c 1.622034,-0.889396 2.989032,-1.630331 3.037773,-1.646524 0.05792,-0.01924 0.648053,0.291788 1.70339,0.897768 0.888123,0.509965 1.679654,0.966593 1.758957,1.01473 l 0.144189,0.08752 -0.474697,0.278793 c -0.857173,0.503425 -8.5091,4.822588 -8.922953,5.0366 l -0.158952,0.0822 z"
     id="path838"
     inkscape:connector-curvature="0" />
  <path
     style="opacity:1;fill:#8dd5f2;fill-opacity:1;stroke:#8dd5f2;stroke-width:0.02542373;stroke-linecap:butt;stroke-linejoin:bevel;stroke-miterlimit:4;stroke-dasharray:none;stroke-opacity:1;paint-order:normal"
     d="M 8.658603,22.303755 C 3.618886,19.458101 2.0230097,18.543087 2.0230097,18.499158 c 0,-0.0657 3.3524122,-2.036307 3.4641838,-2.036307 0.040364,0 2.8056973,1.504566 5.6502235,3.07418 l 0.34322,0.18939 v 2.08008 c 0,1.144044 -0.0057,2.079239 -0.01271,2.078213 -0.007,-10e-4 -1.271186,-0.712458 -2.809322,-1.580959 z"
     id="path840"
     inkscape:connector-curvature="0" />
  <path
     style="opacity:1;fill:#8dd5f2;fill-opacity:1;stroke:#8dd5f2;stroke-width:0.02542373;stroke-linecap:butt;stroke-linejoin:bevel;stroke-miterlimit:4;stroke-dasharray:none;stroke-opacity:1;paint-order:normal"
     d="m 1.2024725,14.667967 c -0.012575,-1.711542 -0.010428,-4.24748 0.00477,-5.6354174 L 1.2348741,6.5090277 2.938264,7.4851999 4.6416538,8.4613722 v 3.6809068 3.680907 l -1.5,0.857011 c -0.825,0.471356 -1.5936716,0.911608 -1.7081591,0.978338 l -0.2081592,0.121328 z"
     id="path842"
     inkscape:connector-curvature="0" />
  <path
     style="opacity:1;fill:#8dd5f2;fill-opacity:1;stroke:#8dd5f2;stroke-width:0.02542373;stroke-linecap:butt;stroke-linejoin:bevel;stroke-miterlimit:4;stroke-dasharray:none;stroke-opacity:1;paint-order:normal"
     d="M 4.1331792,7.0794401 C 2.5524241,6.1624601 1.7178859,5.6629464 1.719022,5.6344428 1.7196254,5.6193045 1.8969559,5.5076181 2.1130898,5.3862498 2.3292238,5.264882 3.8675013,4.3974103 5.5314843,3.4585349 10.178533,0.83651379 11.44204,0.13611908 11.471663,0.16574163 c 0.01497,0.0149747 0.02884,0.91166327 0.03081,1.99264127 l 0.0036,1.9654147 -3.1779665,1.743249 C 6.5802131,6.8258333 5.127247,7.610312 5.0992809,7.6103323 5.0713148,7.6103532 4.6365691,7.3714515 4.1331792,7.0794401 Z"
     id="path844"
     inkscape:connector-curvature="0" />
  <path
     style="opacity:1;fill:#8dd5f2;fill-opacity:0;stroke:#8dd5f2;stroke-width:0;stroke-linecap:butt;stroke-linejoin:bevel;stroke-miterlimit:4;stroke-dasharray:none;stroke-opacity:0;paint-order:normal"
     d="M 4.158603,7.1048349 C 2.7343221,6.2824001 1.717925,5.6694305 1.717925,5.6329088 c 0,-0.018613 1.5845339,-0.9280134 3.5211864,-2.0208904 4.9596566,-2.79879559 6.1965646,-3.48225994 6.2341296,-3.44472415 0.01805,0.0180365 0.03983,0.91755105 0.04841,1.99892115 l 0.01559,1.9661274 -0.854569,0.4624385 C 10.21265,4.8491225 8.7913967,5.6238544 7.5243218,6.3164084 6.257247,7.008962 5.1818233,7.5852854 5.1344914,7.5971267 5.0871596,7.6089686 4.6480097,7.3874369 4.158603,7.1048349 Z"
     id="path846"
     inkscape:connector-curvature="0" />
  <path
     style="opacity:1;fill:#8dd5f2;fill-opacity:0;stroke:#8dd5f2;stroke-width:0.7;stroke-linecap:butt;stroke-linejoin:bevel;stroke-miterlimit:4;stroke-dasharray:none;stroke-opacity:0;paint-order:normal"
     d="m 21.039959,16.800921 -1.70339,-0.979228 V 12.141142 8.4605909 l 1.70339,-0.9791219 1.70339,-0.9791219 0.01314,2.8192352 c 0.0072,1.5505797 0.0072,4.0880847 0,5.6389017 l -0.01314,2.819666 z"
     id="path848"
     inkscape:connector-curvature="0" />
  <path
     style="opacity:1;fill:#8dd5f2;fill-opacity:0;stroke:#8dd5f2;stroke-width:0.03559322;stroke-linecap:butt;stroke-linejoin:bevel;stroke-miterlimit:4;stroke-dasharray:none;stroke-opacity:1;paint-order:normal"
     d="m 22.792936,11.937428 c 0,-2.1114411 0.0063,-2.9752123 0.01395,-1.919492 0.0077,1.05572 0.0077,2.783263 0,3.838983 -0.0077,1.05572 -0.01395,0.191949 -0.01395,-1.919491 z"
     id="path850"
     inkscape:connector-curvature="0" />
  <path
     style="opacity:1;fill:#8dd5f2;fill-opacity:1;stroke:#8dd5f2;stroke-width:0.03559322;stroke-linecap:butt;stroke-linejoin:bevel;stroke-miterlimit:4;stroke-dasharray:none;stroke-opacity:1;paint-order:normal"
     d="m 21.039959,16.800988 -1.70339,-0.979295 V 12.141142 8.4605909 l 1.70339,-0.9791981 1.70339,-0.9791981 0.04208,2.6189703 c 0.02314,1.440434 0.02314,3.978003 0,5.639044 l -0.04208,3.020073 z"
     id="path852"
     inkscape:connector-curvature="0" />
  <path
     style="opacity:1;fill:#8dd5f2;fill-opacity:1;stroke:#8dd5f2;stroke-width:0.5;stroke-linecap:butt;stroke-linejoin:bevel;stroke-miterlimit:4;stroke-dasharray:none;stroke-opacity:1;paint-order:normal"
     d="m 21.002589,16.801867 -1.689913,-0.974609 2.47e-4,-3.686441 2.48e-4,-3.6864403 1.709819,-0.9798462 c 0.9404,-0.5389155 1.717664,-0.9720007 1.727253,-0.9624117 0.0096,0.00959 0.03242,1.4115368 0.05074,3.1154395 0.03302,3.0714337 -0.01466,8.1612067 -0.07638,8.1531217 -0.01765,-0.0023 -0.792559,-0.442779 -1.722011,-0.978813 z"
     id="path854"
     inkscape:connector-curvature="0" />
  <path
     style="opacity:1;fill:#8dd5f2;fill-opacity:1;stroke:#8dd5f2;stroke-width:0.01797729;stroke-linecap:butt;stroke-linejoin:bevel;stroke-miterlimit:4;stroke-dasharray:none;stroke-opacity:1;paint-order:normal"
     d="M 18.46535,7.4029969 C 18.247825,7.2843367 16.977729,6.5917004 15.642915,5.8638057 14.308101,5.1359109 13.046095,4.445886 12.838458,4.3304168 l -0.377523,-0.2099442 -0.0093,-1.9933309 c -0.0051,-1.0963321 0.003,-2.0053911 0.01798,-2.02013115 0.015,-0.01474004 0.50457,0.24159718 1.087933,0.5696383 2.897497,1.62934225 8.142506,4.58852635 8.404384,4.74167415 0.163144,0.095407 0.296625,0.1908002 0.296625,0.2119843 0,0.05028 -0.468007,0.3399775 -1.72582,1.0682886 -1.3642,0.7899128 -1.610264,0.928215 -1.643675,0.9238408 -0.01552,-0.00203 -0.206188,-0.1007793 -0.423713,-0.2194398 z"
     id="path856"
     inkscape:connector-curvature="0" />
  <path
     style="opacity:1;fill:#8dd5f2;fill-opacity:1;stroke:#8dd5f2;stroke-width:0.5;stroke-linecap:butt;stroke-linejoin:bevel;stroke-miterlimit:4;stroke-dasharray:none;stroke-opacity:1;paint-order:normal"
     d="M 15.820066,5.9691619 C 14.150519,5.0578294 12.707689,4.2690758 12.613778,4.2163761 l -0.170748,-0.095818 -3.6e-5,-2.0224452 c -2e-5,-1.1123449 0.01011,-2.02244526 0.0225,-2.02244526 0.0549,0 9.018554,5.04120956 9.572904,5.38385676 l 0.265229,0.1639399 -0.08546,0.067712 C 21.979804,5.880045 18.977146,7.62613 18.89072,7.62613 c -0.01932,0 -1.401115,-0.7456358 -3.070661,-1.6569684 z"
     id="path858"
     inkscape:connector-curvature="0" />
  <path
     style="opacity:1;fill:#8dd5f2;fill-opacity:1;stroke:#8dd5f2;stroke-width:0.5;stroke-linecap:butt;stroke-linejoin:bevel;stroke-miterlimit:4;stroke-dasharray:none;stroke-opacity:1;paint-order:normal"
     d="M 4.9104724,7.5392604 C 4.8313723,7.4930253 4.3378956,7.2081874 3.8138576,6.9062872 2.6379717,6.2288551 1.7354721,5.6890107 1.7100348,5.647852 1.6994883,5.6307876 1.800449,5.552933 1.9343918,5.4748422 2.5502329,5.1157961 8.9224403,1.5304877 11.148592,0.29049242 11.436827,0.1299423 11.455757,0.12433068 11.48148,0.19181517 c 0.015,0.0393545 0.02309,0.94573903 0.01798,2.01418783 l -0.0093,1.9426343 -0.323591,0.179797 C 9.7629927,5.1083028 5.1247173,7.6258423 5.0935307,7.6247273 5.0719487,7.6239558 4.9895724,7.5854955 4.9104724,7.5392604 Z"
     id="path860"
     inkscape:connector-curvature="0" />
  <path
     style="opacity:1;fill:#8dd5f2;fill-opacity:1;stroke:#8dd5f2;stroke-width:0.5;stroke-linecap:butt;stroke-linejoin:bevel;stroke-miterlimit:4;stroke-dasharray:none;stroke-opacity:1;paint-order:normal"
     d="m 12.462617,22.538293 c -0.01358,-0.736619 -0.01951,-1.667716 -0.01319,-2.069105 l 0.0115,-0.729796 1.312342,-0.719608 c 0.721788,-0.395785 2.083822,-1.140841 3.026743,-1.655682 l 1.7144,-0.936074 1.629376,0.93215 c 0.896156,0.512683 1.700254,0.976908 1.786882,1.031612 l 0.157508,0.09946 -0.337281,0.197667 c -0.672836,0.394322 -7.240308,4.106823 -8.628184,4.877393 -0.308368,0.17121 -0.577487,0.311291 -0.598042,0.311291 -0.02475,0 -0.04571,-0.452364 -0.06206,-1.339308 z"
     id="path862"
     inkscape:connector-curvature="0" />
  <path
     style="opacity:1;fill:#8dd5f2;fill-opacity:1;stroke:#8dd5f2;stroke-width:0.5;stroke-linecap:butt;stroke-linejoin:bevel;stroke-miterlimit:4;stroke-dasharray:none;stroke-opacity:1;paint-order:normal"
     d="M 10.267705,23.225924 C 9.6349045,22.868544 8.3405395,22.138274 7.3913385,21.603102 3.1146691,19.19186 1.9702308,18.52959 1.9991856,18.48274 c 0.039367,-0.0637 3.4150475,-2.047737 3.4840561,-2.047737 0.041492,0 5.8974763,3.21159 5.9799533,3.279578 0.06574,0.05419 0.06574,4.163459 0,4.162072 -0.02472,-5.21e-4 -0.562689,-0.29335 -1.19549,-0.650729 z"
     id="path864"
     inkscape:connector-curvature="0" />
  <path
     style="opacity:1;fill:#8dd5f2;fill-opacity:1;stroke:#8dd5f2;stroke-width:0.5;stroke-linecap:butt;stroke-linejoin:bevel;stroke-miterlimit:4;stroke-dasharray:none;stroke-opacity:1;paint-order:normal"
     d="m 1.2083885,17.772553 c -0.036936,-0.03694 -0.02078,-11.2198491 0.016242,-11.2427303 0.029075,-0.017969 3.2233503,1.7788431 3.3712391,1.8963559 0.035437,0.028159 0.044822,0.8161584 0.044368,3.7256424 L 4.6396625,15.841752 2.9336332,16.81676 C 1.995317,17.353015 1.2189569,17.783121 1.2083885,17.772553 Z"
     id="path866"
     inkscape:connector-curvature="0" />
  <path
     style="opacity:1;fill:#177fbf;fill-opacity:1;stroke:#177fbf;stroke-width:0.2;stroke-linecap:butt;stroke-linejoin:bevel;stroke-miterlimit:4;stroke-dasharray:none;stroke-opacity:1;paint-order:normal"
     d="m 12.483803,15.534582 0.01309,-3.152935 2.822034,-1.624362 C 16.87105,9.8638865 18.203889,9.0993694 18.280796,9.0583584 l 0.139831,-0.074566 v 3.2240336 3.224034 l -2.97496,1.627829 -2.974959,1.627829 z"
     id="path868"
     inkscape:connector-curvature="0" />
  <path
     style="opacity:1;fill:#177fbf;fill-opacity:1;stroke:#177fbf;stroke-width:0.2;stroke-linecap:butt;stroke-linejoin:bevel;stroke-miterlimit:4;stroke-dasharray:none;stroke-opacity:1;paint-order:normal"
     d="M 9.0003043,9.9067583 C 7.3864487,8.9792037 6.0650504,8.2076131 6.0638637,8.1921124 6.0598302,8.1394275 11.961702,4.9334886 12.032662,4.9498183 c 0.155591,0.035805 5.918083,3.222065 5.885795,3.2544377 -0.07318,0.073368 -5.884806,3.397066 -5.933022,3.393124 -0.02797,-0.0023 -1.371275,-0.763067 -2.9851307,-1.6906217 z"
     id="path870"
     inkscape:connector-curvature="0" />
  <path
     style="opacity:1;fill:#177fbf;fill-opacity:1;stroke:#177fbf;stroke-width:0.2;stroke-linecap:butt;stroke-linejoin:bevel;stroke-miterlimit:4;stroke-dasharray:none;stroke-opacity:1;paint-order:normal"
     d="M 8.5273939,17.055453 5.5701296,15.434825 V 12.200289 8.9657533 L 5.7948457,9.0919328 C 5.9184396,9.1613314 7.2572983,9.93025 8.7700874,10.800641 l 2.7505256,1.582528 0.0092,3.148255 c 0.0051,1.731541 -0.003,3.147446 -0.01798,3.146457 -0.01494,-9.89e-4 -1.357932,-0.731082 -2.9844271,-1.622428 z"
     id="path872"
     inkscape:connector-curvature="0" />
</svg>
